#N canvas 1135 313 450 300 12;
#X obj 99 40 inlet x;
#X obj 264 40 inlet y;
#X obj 187 151 expr atan2($f2 \, $f1);
#X obj 99 122 expr sqrt($f1*$f1 + $f2*$f2);
#X obj 99 86 t f f;
#X obj 264 73 t b b f f;
#X obj 99 230 outlet dist;
#X obj 187 230 outlet angle;
#X connect 0 0 4 0;
#X connect 1 0 5 0;
#X connect 2 0 7 0;
#X connect 3 0 6 0;
#X connect 4 0 3 0;
#X connect 4 1 2 0;
#X connect 5 0 3 0;
#X connect 5 1 2 0;
#X connect 5 2 3 1;
#X connect 5 3 2 1;
