#N canvas 705 272 660 729 12;
#X obj 133 617 list;
#X obj 180 562 list prepend;
#X obj 180 586 t l l;
#X obj 331 80 inlet;
#X obj 133 643 outlet;
#X obj 147 211 t b b;
#X obj 193 297 hidraw -info;
#X obj 274 322 list split 5;
#X msg 193 273 list-vidpid \$1 \$2;
#X text 117 28 hidraw right list out is "vendorname productname serialnb vid pid path" so we accumulate paths only and open by path;
#X text 268 628 thrustmaster vidpids are : 1103 45845;
#X text 289 644 extreme3D vidpids are : 1133 49685;
#X obj 103 578 bng 20 250 50 0 empty empty empty 0 -10 0 12 #fcfcfc #000000 #000000;
#X obj 194 246 pack \$1 \$2;
#X obj 311 500 text set \$0-devices;
#X obj 137 448 text get \$0-devices;
#X obj 456 282 text define \$0-devices;
#X obj 456 254 text delete \$0-devices;
#X obj 331 103 t b b b;
#X msg 456 230 -1;
#X obj 369 407 text search \$0-devices;
#X obj 369 433 sel -1;
#X obj 369 383 symbol;
#X obj 311 476 symbol;
#X obj 318 353 t a a;
#X obj 428 435 loadbang;
#X msg 428 458 1e+09;
#X obj 137 373 text size \$0-devices;
#X obj 137 398 until;
#X obj 137 424 f;
#X obj 166 424 + 1;
#X obj 107 335 t b b b;
#X msg 184 397 0;
#X connect 0 0 4 0;
#X connect 1 0 2 0;
#X connect 2 0 0 1;
#X connect 2 1 1 1;
#X connect 3 0 18 0;
#X connect 5 0 31 0;
#X connect 5 1 13 0;
#X connect 6 2 7 0;
#X connect 7 1 24 0;
#X connect 8 0 6 0;
#X connect 12 0 0 0;
#X connect 13 0 8 0;
#X connect 15 0 1 0;
#X connect 18 0 5 0;
#X connect 18 1 1 1;
#X connect 18 2 19 0;
#X connect 19 0 17 0;
#X connect 20 0 21 0;
#X connect 21 0 23 0;
#X connect 22 0 20 0;
#X connect 23 0 14 0;
#X connect 24 0 22 0;
#X connect 24 1 23 1;
#X connect 25 0 26 0;
#X connect 26 0 14 1;
#X connect 27 0 28 0;
#X connect 28 0 29 0;
#X connect 29 0 30 0;
#X connect 29 0 15 0;
#X connect 30 0 29 1;
#X connect 31 0 0 0;
#X connect 31 1 27 0;
#X connect 31 2 32 0;
#X connect 32 0 29 1;
