#N canvas 768 360 639 663 12;
#X msg 171 117 64;
#X obj 116 527 list;
#X obj 177 192 until;
#X msg 221 192 0;
#X obj 177 229 f;
#X obj 208 229 + 1;
#X obj 177 311 hid;
#X obj 252 381 f;
#X obj 333 416 list prepend;
#X obj 333 440 t l l;
#X obj 177 254 t f f;
#N canvas 208 246 492 526 bang-if-open-and-vidpid-match 0;
#X obj 117 90 route productID vendorID open;
#X obj 84 141 symbol;
#X obj 183 141 symbol;
#X obj 84 223 select pid;
#X obj 183 223 select vid;
#X obj 119 308 t f;
#X obj 220 308 t f;
#X obj 305 364 +;
#X obj 245 414 +;
#X obj 245 437 sel 3;
#X obj 84 247 t b;
#X obj 151 247 t b;
#X obj 183 247 t b;
#X obj 250 247 t b;
#X msg 84 271 1;
#X msg 151 271 0;
#X msg 183 271 1;
#X msg 250 271 0;
#X obj 117 62 inlet;
#X obj 245 465 outlet;
#X msg 331 114 \$2 \$1;
#X obj 331 62 inlet vid-pid;
#X obj 331 141 unpack s s;
#X obj 331 90 list;
#X connect 0 0 1 0;
#X connect 0 1 2 0;
#X connect 0 2 7 1;
#X connect 1 0 3 0;
#X connect 2 0 4 0;
#X connect 3 0 10 0;
#X connect 3 1 11 0;
#X connect 4 0 12 0;
#X connect 4 1 13 0;
#X connect 5 0 8 0;
#X connect 6 0 7 0;
#X connect 7 0 8 1;
#X connect 8 0 9 0;
#X connect 9 0 19 0;
#X connect 10 0 14 0;
#X connect 11 0 15 0;
#X connect 12 0 16 0;
#X connect 13 0 17 0;
#X connect 14 0 5 0;
#X connect 15 0 5 0;
#X connect 16 0 6 0;
#X connect 17 0 6 0;
#X connect 18 0 0 0;
#X connect 20 0 22 0;
#X connect 21 0 23 0;
#X connect 22 0 3 1;
#X connect 22 1 4 1;
#X connect 23 0 20 0;
#X restore 197 335 pd bang-if-open-and-vidpid-match;
#X msg 275 190 refresh;
#X obj 171 69 inlet;
#X obj 435 198 loadbang;
#X obj 435 253 symbol \$1;
#X obj 508 253 symbol \$2;
#X obj 435 223 t b b;
#X obj 435 280 pack s s;
#X obj 171 141 t b f b b b;
#X obj 171 93 t b;
#X obj 116 553 outlet;
#X msg 130 279 close;
#X obj 77 255 t b b;
#X msg 177 279 close \, open \$1 \, info;
#X connect 0 0 19 0;
#X connect 1 0 21 0;
#X connect 2 0 4 0;
#X connect 3 0 4 1;
#X connect 4 0 5 0;
#X connect 4 0 10 0;
#X connect 5 0 4 1;
#X connect 6 1 11 0;
#X connect 7 0 8 0;
#X connect 8 0 9 0;
#X connect 9 0 1 1;
#X connect 9 1 8 1;
#X connect 10 0 24 0;
#X connect 10 1 7 1;
#X connect 11 0 7 0;
#X connect 12 0 6 0;
#X connect 13 0 20 0;
#X connect 14 0 17 0;
#X connect 15 0 18 0;
#X connect 16 0 18 1;
#X connect 17 0 15 0;
#X connect 17 1 16 0;
#X connect 18 0 11 1;
#X connect 19 0 23 0;
#X connect 19 1 2 0;
#X connect 19 2 3 0;
#X connect 19 3 8 1;
#X connect 19 4 12 0;
#X connect 20 0 0 0;
#X connect 22 0 6 0;
#X connect 23 0 1 0;
#X connect 23 1 22 0;
#X connect 24 0 6 0;
