#N canvas 137 109 576 556 12;
#X obj 126 461 list;
#X obj 246 347 list prepend;
#X obj 246 371 t l l;
#X obj 296 70 inlet;
#X obj 126 487 outlet;
#X obj 121 119 t b b;
#X obj 158 287 hidraw -info;
#X obj 206 321 list split 5;
#X obj 158 175 t \$1 \$2;
#X msg 158 263 list-vidpid \$1 \$2;
#X obj 296 93 t b b;
#X text 82 18 hidraw right list out is "vendorname productname serialnb vid pid path" so we accumulate paths only and open by path;
#X text 231 463 thrustmaster vidpids are : 1103 45845;
#X text 252 479 extreme3D vidpids are : 1133 49685;
#X obj 363 287 print;
#X obj 96 422 bng 20 250 50 0 empty empty empty 0 -10 0 12 #fcfcfc #000000 #000000;
#X obj 158 239 pack s s;
#X obj 211 203 symbol;
#X obj 158 203 symbol;
#X obj 226 232 pack \$1 \$2;
#X connect 0 0 4 0;
#X connect 1 0 2 0;
#X connect 2 0 0 1;
#X connect 2 1 1 1;
#X connect 3 0 10 0;
#X connect 5 0 0 0;
#X connect 5 1 19 0;
#X connect 6 2 7 0;
#X connect 6 2 14 0;
#X connect 7 1 1 0;
#X connect 8 0 18 0;
#X connect 8 1 17 0;
#X connect 9 0 6 0;
#X connect 10 0 5 0;
#X connect 10 1 1 1;
#X connect 15 0 0 0;
#X connect 16 0 9 0;
#X connect 17 0 16 1;
#X connect 18 0 16 0;
#X connect 19 0 9 0;
