#N canvas 933 343 576 556 12;
#X obj 126 461 list;
#X obj 246 347 list prepend;
#X obj 246 371 t l l;
#X obj 296 70 inlet;
#X obj 126 487 outlet;
#X obj 126 190 t b b;
#X obj 158 287 hidraw -info;
#X obj 198 313 list split 5;
#X obj 158 215 t \$1 \$2;
#X obj 158 239 pack f f;
#X msg 158 263 list-vidpid \$1 \$2;
#X obj 296 93 t b b;
#X text 82 18 hidraw right list out is "vendorname productname serialnb vid pid path" so we accumulate paths only and open by path;
#X text 231 463 thrustmaster vidpids are : 1103 45845;
#X text 252 479 extreme3D vidpids are : 1133 49685;
#X connect 0 0 4 0;
#X connect 1 0 2 0;
#X connect 2 0 0 1;
#X connect 2 1 1 1;
#X connect 3 0 11 0;
#X connect 5 0 0 0;
#X connect 5 1 8 0;
#X connect 6 2 7 0;
#X connect 7 1 1 0;
#X connect 8 0 9 0;
#X connect 8 1 9 1;
#X connect 9 0 10 0;
#X connect 10 0 6 0;
#X connect 11 0 5 0;
#X connect 11 1 1 1;
