#N canvas 316 105 1177 725 10;
#X obj 357 205 vradio 19 1 0 9 gamepad-assign \$0-gamepad-assign-i empty 0 -10 0 12 #fcfcfc #000000 #000000 0;
#X text 378 205 use gamepads;
#X text 378 223 assign #1;
#X text 378 242 assign #2;
#X text 378 261 assign #3;
#X text 378 280 assign #4;
#X text 291 97 < refresh devices;
#X obj 264 95 bng 19 250 50 0 empty empty empty 0 -10 0 12 #fcfcfc #000000 #000000;
#N canvas 717 566 393 278 list-devices 1;
#X obj 68 73 bng 19 250 50 0 empty empty empty 0 -10 0 12 #fcfcfc #000000 #000000;
#X obj 68 149 bng 19 250 50 0 empty empty empty 0 -10 0 12 #fcfcfc #000000 #000000;
#X obj 113 17 inlet;
#X obj 68 97 devicelist-from-vidpid-hidraw 1103 45845;
#X obj 68 173 devicelist-from-vidpid-hidraw 1133 49685;
#X obj 68 198 s extreme3D-paths;
#X obj 68 122 s thrustmaster-paths;
#X obj 113 41 t b b b;
#X connect 0 0 3 0;
#X connect 1 0 4 0;
#X connect 2 0 7 0;
#X connect 3 0 6 0;
#X connect 4 0 5 0;
#X connect 7 0 0 0;
#X connect 7 1 1 0;
#X restore 264 120 pd list-devices;
#N canvas 992 249 560 443 mapping 0;
#X obj 32 20 r joystick-1;
#X obj 124 20 r joystick-2;
#X obj 41 91 r gamepad-1;
#X obj 216 20 r joystick-3;
#X obj 308 20 r joystick-4;
#X obj 41 142 s player1-controls;
#X obj 41 117 gamepad-mapping-1;
#X obj 178 117 gamepad-mapping-1;
#X obj 178 91 r gamepad-2;
#X obj 178 142 s player2-controls;
#X obj 41 203 gamepad-mapping-1;
#X obj 178 203 gamepad-mapping-1;
#X obj 41 177 r gamepad-3;
#X obj 178 177 r gamepad-4;
#X obj 41 228 s player3-controls;
#X obj 178 228 s player4-controls;
#X obj 32 48 print j1;
#X obj 43 284 gamepad-mapping-1;
#X obj 180 284 gamepad-mapping-1;
#X obj 43 370 gamepad-mapping-1;
#X obj 180 370 gamepad-mapping-1;
#X obj 180 258 r gamepad-6;
#X obj 43 258 r gamepad-5;
#X obj 43 344 r gamepad-7;
#X obj 180 344 r gamepad-8;
#X obj 43 309 s player5-controls;
#X obj 180 309 s player6-controls;
#X obj 43 395 s player7-controls;
#X obj 180 395 s player8-controls;
#X connect 2 0 6 0;
#X connect 6 0 5 0;
#X connect 7 0 9 0;
#X connect 8 0 7 0;
#X connect 10 0 14 0;
#X connect 11 0 15 0;
#X connect 12 0 10 0;
#X connect 13 0 11 0;
#X connect 17 0 25 0;
#X connect 18 0 26 0;
#X connect 19 0 27 0;
#X connect 20 0 28 0;
#X connect 21 0 18 0;
#X connect 22 0 17 0;
#X connect 23 0 19 0;
#X connect 24 0 20 0;
#X restore 266 594 pd mapping;
#X obj 970 61 vsl 33 347 0 1 0 0 \$0-master-o \$0-master-i empty 0 -9 0 12 #fcfcfc #000000 #000000 0 0;
#N canvas 441 320 719 614 audio-out 0;
#X obj 55 52 receive~ player1-left-output;
#X obj 55 76 receive~ player2-left-output;
#X obj 55 100 receive~ player3-left-output;
#X obj 55 124 receive~ player4-left-output;
#X obj 269 52 receive~ player1-right-output;
#X obj 269 76 receive~ player2-right-output;
#X obj 269 100 receive~ player3-right-output;
#X obj 269 124 receive~ player4-right-output;
#X obj 142 398 *~;
#X obj 195 398 *~;
#X obj 149 438 dac~ 1 2;
#X msg 284 313 \$1 10;
#X obj 284 289 clip 0 1;
#X obj 284 337 line~;
#X obj 284 265 r \$0-master-o;
#X obj 465 176 loadbang;
#X msg 465 199 1;
#X obj 465 222 s \$0-master-i;
#X obj 99 466 send~ master-left;
#X obj 234 466 send~ master-right;
#X obj 55 149 receive~ player5-left-output;
#X obj 55 173 receive~ player6-left-output;
#X obj 55 197 receive~ player7-left-output;
#X obj 55 221 receive~ player8-left-output;
#X obj 269 148 receive~ player5-right-output;
#X obj 269 172 receive~ player6-right-output;
#X obj 269 196 receive~ player7-right-output;
#X obj 269 220 receive~ player8-right-output;
#X obj 234 398 r~ snds-soundbank-audio-out;
#X connect 0 0 8 0;
#X connect 1 0 8 0;
#X connect 2 0 8 0;
#X connect 3 0 8 0;
#X connect 4 0 9 0;
#X connect 5 0 9 0;
#X connect 6 0 9 0;
#X connect 7 0 9 0;
#X connect 8 0 10 0;
#X connect 8 0 18 0;
#X connect 9 0 10 1;
#X connect 9 0 19 0;
#X connect 11 0 13 0;
#X connect 12 0 11 0;
#X connect 13 0 8 1;
#X connect 13 0 9 1;
#X connect 14 0 12 0;
#X connect 15 0 16 0;
#X connect 16 0 17 0;
#X connect 20 0 8 0;
#X connect 21 0 8 0;
#X connect 22 0 8 0;
#X connect 23 0 8 0;
#X connect 24 0 9 0;
#X connect 25 0 9 0;
#X connect 26 0 9 0;
#X connect 27 0 9 0;
#X connect 28 0 10 0;
#X connect 28 0 10 1;
#X restore 266 614 pd audio-out;
#X obj 265 205 ./controllers/thrustmaster-dual-analog-hidraw 0;
#X obj 265 248 ./controllers/thrustmaster-dual-analog-hidraw 1;
#X obj 265 291 ./controllers/thrustmaster-dual-analog-hidraw 2;
#X obj 265 334 ./controllers/thrustmaster-dual-analog-hidraw 3;
#X obj 265 143 tgl 19 0 empty empty empty 0 -10 0 12 #fcfcfc #000000 #000000 0 1;
#N canvas 458 217 476 435 record 0;
#X msg 155 237 start;
#X msg 162 265 stop;
#X text 199 239 start streaming audio;
#X text 201 265 stop streaming audio;
#X obj 137 327 writesf~ 2, f 15;
#X obj 342 117 savepanel;
#X msg 342 144 open \$1;
#X obj 342 86 bng 19 250 50 0 empty empty empty 0 -10 0 12 #dfdfdf #000000 #000000;
#X obj 121 151 sel 0 1;
#X obj 157 58 inlet;
#X obj 340 56 inlet;
#X obj 198 291 receive~ master-left;
#X obj 258 326 receive~ master-right;
#X connect 0 0 4 0;
#X connect 1 0 4 0;
#X connect 5 0 6 0;
#X connect 6 0 4 0;
#X connect 7 0 5 0;
#X connect 8 0 1 0;
#X connect 8 1 0 0;
#X connect 9 0 8 0;
#X connect 10 0 7 0;
#X connect 11 0 4 0;
#X connect 12 0 4 1;
#X restore 875 491 pd record;
#X obj 875 467 tgl 20 0 empty empty empty 0 -10 0 12 #fcfcfc #000000 #000000 0 1;
#X obj 926 467 bng 20 250 50 0 empty empty empty 0 -10 0 12 #fcfcfc #000000 #000000;
#X text 378 299 assign #5;
#X text 378 318 assign #6;
#X text 378 337 assign #7;
#X text 378 356 assign #8;
#X obj 500 59 sound-unit player1 mallette snds;
#X obj 500 147 sound-unit player2 mallette snds;
#X obj 735 59 sound-unit player5 mallette snds;
#X obj 735 147 sound-unit player6 mallette snds;
#X obj 735 235 sound-unit player7 mallette snds;
#X obj 735 323 sound-unit player8 mallette snds;
#N canvas 5 38 864 634 soundbank 0;
#X obj 14 13 project/soundbank snds mallette;
#X restore 540 492 pd soundbank;
#X obj 540 450 bng 20 250 50 0 empty empty empty 0 -10 0 12 #fcfcfc #000000 #000000;
#N canvas 679 122 763 816 populate-soundbank-from-folder 0;
#N canvas 0 23 410 559 split-last-slash 0;
#X obj 98 103 list fromsymbol;
#X obj 195 282 list;
#X obj 117 146 list length;
#X obj 117 215 until;
#X obj 144 186 - 1;
#X obj 117 166 t f f;
#X obj 152 356 list split;
#X obj 180 375 list split 1;
#X obj 117 236 f;
#X obj 141 236 - 1;
#X obj 180 395 sel 47;
#X obj 117 256 t b f f;
#X obj 261 375 f;
#X obj 291 288 t b b;
#X obj 98 441 list split;
#X obj 98 123 t l l l;
#X obj 98 80 inlet;
#X obj 126 466 list tosymbol;
#X obj 126 491 outlet;
#X obj 261 394 + 1;
#X connect 0 0 15 0;
#X connect 1 0 6 0;
#X connect 2 0 5 0;
#X connect 3 0 8 0;
#X connect 4 0 8 1;
#X connect 5 0 3 0;
#X connect 5 1 4 0;
#X connect 6 1 7 0;
#X connect 7 0 10 0;
#X connect 8 0 9 0;
#X connect 8 0 11 0;
#X connect 9 0 8 1;
#X connect 10 0 13 0;
#X connect 11 0 1 0;
#X connect 11 1 6 1;
#X connect 11 2 12 1;
#X connect 12 0 19 0;
#X connect 13 0 3 1;
#X connect 13 1 12 0;
#X connect 14 1 17 0;
#X connect 15 0 14 0;
#X connect 15 1 2 0;
#X connect 15 2 1 1;
#X connect 16 0 0 0;
#X connect 17 0 18 0;
#X connect 19 0 14 1;
#X restore 164 582 pd split-last-slash;
#X obj 245 401 soundfiler;
#X msg 245 381 read -resize \$1 \$2;
#X obj 289 272 t s b;
#X obj 245 361 pack s s;
#X obj 170 227 t s s;
#X obj 164 542 symbol;
#X obj 239 498 sel 1;
#X obj 239 479 > 0;
#X obj 239 441 t a a;
#X obj 345 612 list;
#X obj 164 562 t s s;
#X obj 181 694 list append;
#X obj 227 730 r \$0-text-line-index;
#X obj 239 421 list append;
#X msg 239 460 \$2;
#X obj 239 517 t b b b;
#N canvas 0 23 479 692 encode-spaces 0;
#X obj 171 68 list fromsymbol;
#X obj 217 332 list;
#X obj 117 146 list length;
#X obj 117 215 until;
#X obj 144 186 - 1;
#X obj 117 166 t f f;
#X obj 180 384 list split;
#X obj 208 403 list split 1;
#X obj 117 236 f;
#X obj 143 236 - 1;
#X obj 117 256 t b f f;
#X obj 120 354 f;
#X obj 120 375 sel 0;
#X obj 98 286 t b b;
#X obj 208 423 sel 32;
#X obj 275 505 list append;
#X obj 349 505 list;
#X obj 347 447 t b b;
#X obj 183 590 list;
#X obj 171 88 t l l b;
#X obj 183 611 list tosymbol;
#X obj 171 41 inlet;
#X obj 183 634 outlet;
#X msg 194 448 59;
#X connect 0 0 19 0;
#X connect 1 0 6 0;
#X connect 2 0 5 0;
#X connect 3 0 8 0;
#X connect 4 0 8 1;
#X connect 5 0 3 0;
#X connect 5 1 4 0;
#X connect 6 1 7 0;
#X connect 7 0 14 0;
#X connect 8 0 9 0;
#X connect 8 0 10 0;
#X connect 9 0 8 1;
#X connect 10 0 13 0;
#X connect 10 1 6 1;
#X connect 10 2 11 1;
#X connect 11 0 12 0;
#X connect 12 0 18 0;
#X connect 13 0 11 0;
#X connect 13 1 1 0;
#X connect 14 0 23 0;
#X connect 14 1 15 0;
#X connect 15 0 16 0;
#X connect 15 0 18 1;
#X connect 16 0 15 1;
#X connect 17 0 15 1;
#X connect 17 1 16 1;
#X connect 18 0 20 0;
#X connect 19 0 2 0;
#X connect 19 1 1 1;
#X connect 19 2 17 0;
#X connect 20 0 22 0;
#X connect 21 0 0 0;
#X connect 23 0 15 0;
#X restore 209 624 pd encode-spaces;
#N canvas 0 23 479 692 encode-spaces 0;
#X obj 171 68 list fromsymbol;
#X obj 217 332 list;
#X obj 117 146 list length;
#X obj 117 215 until;
#X obj 144 186 - 1;
#X obj 117 166 t f f;
#X obj 180 384 list split;
#X obj 208 403 list split 1;
#X obj 117 236 f;
#X obj 143 236 - 1;
#X obj 117 256 t b f f;
#X obj 120 354 f;
#X obj 120 375 sel 0;
#X obj 98 286 t b b;
#X obj 208 423 sel 32;
#X obj 275 505 list append;
#X obj 349 505 list;
#X obj 347 447 t b b;
#X obj 183 590 list;
#X obj 171 88 t l l b;
#X obj 183 611 list tosymbol;
#X obj 171 41 inlet;
#X obj 183 634 outlet;
#X msg 194 448 59;
#X connect 0 0 19 0;
#X connect 1 0 6 0;
#X connect 2 0 5 0;
#X connect 3 0 8 0;
#X connect 4 0 8 1;
#X connect 5 0 3 0;
#X connect 5 1 4 0;
#X connect 6 1 7 0;
#X connect 7 0 14 0;
#X connect 8 0 9 0;
#X connect 8 0 10 0;
#X connect 9 0 8 1;
#X connect 10 0 13 0;
#X connect 10 1 6 1;
#X connect 10 2 11 1;
#X connect 11 0 12 0;
#X connect 12 0 18 0;
#X connect 13 0 11 0;
#X connect 13 1 1 0;
#X connect 14 0 23 0;
#X connect 14 1 15 0;
#X connect 15 0 16 0;
#X connect 15 0 18 1;
#X connect 16 0 15 1;
#X connect 17 0 15 1;
#X connect 17 1 16 1;
#X connect 18 0 20 0;
#X connect 19 0 2 0;
#X connect 19 1 1 1;
#X connect 19 2 17 0;
#X connect 20 0 22 0;
#X connect 21 0 0 0;
#X connect 23 0 15 0;
#X restore 164 603 pd encode-spaces;
#X obj 181 674 pack s s s;
#X obj 170 119 hcs/folder_list;
#X obj 170 145 t s b;
#X obj 170 94 makefilename %s/*.wav;
#X obj 232 182 f;
#X obj 261 182 + 1;
#X floatatom 293 209 5 0 0 0 - - - 0;
#X obj 232 208 t f f f;
#X obj 369 296 f;
#X obj 251 231 s \$0-text-line-index;
#X obj 384 276 r \$0-text-line-index;
#X obj 369 337 t s s;
#X obj 117 21 inlet;
#X obj 182 753 text set snds-soundbank;
#X obj 369 316 makefilename snds-soundbank-array-%d;
#X msg 247 159 1, f 2;
#X obj 57 349 s snds-soundbank-cmd;
#X msg 57 328 update;
#X msg 427 161 clear;
#X obj 427 182 s snds-soundbank-cmd;
#X obj 130 73 makefilename %s/*.aif;
#X obj 117 45 t b a a b b;
#X connect 0 0 18 0;
#X connect 1 0 14 0;
#X connect 1 1 14 1;
#X connect 2 0 1 0;
#X connect 3 0 4 0;
#X connect 3 1 27 0;
#X connect 4 0 2 0;
#X connect 5 0 3 0;
#X connect 5 1 6 1;
#X connect 6 0 11 0;
#X connect 7 0 16 0;
#X connect 8 0 7 0;
#X connect 9 0 15 0;
#X connect 9 1 10 1;
#X connect 10 0 12 1;
#X connect 11 0 0 0;
#X connect 11 1 17 0;
#X connect 12 0 32 0;
#X connect 13 0 32 1;
#X connect 14 0 9 0;
#X connect 15 0 8 0;
#X connect 16 0 6 0;
#X connect 16 1 10 0;
#X connect 17 0 19 1;
#X connect 18 0 19 0;
#X connect 19 0 12 0;
#X connect 20 0 21 0;
#X connect 21 0 5 0;
#X connect 21 1 23 0;
#X connect 22 0 20 0;
#X connect 23 0 24 0;
#X connect 23 0 26 0;
#X connect 24 0 23 1;
#X connect 26 1 28 0;
#X connect 26 2 25 0;
#X connect 27 0 33 0;
#X connect 29 0 27 1;
#X connect 30 0 4 1;
#X connect 30 1 19 2;
#X connect 31 0 40 0;
#X connect 33 0 30 0;
#X connect 34 0 23 1;
#X connect 36 0 35 0;
#X connect 37 0 38 0;
#X connect 39 0 20 0;
#X connect 40 0 36 0;
#X connect 40 1 39 0;
#X connect 40 2 22 0;
#X connect 40 3 34 0;
#X connect 40 4 37 0;
#X restore 652 491 pd populate-soundbank-from-folder;
#X obj 652 449 bng 20 250 50 0 empty empty empty 0 -10 0 12 #fcfcfc #000000 #000000;
#X obj 652 472 openpanel 1;
#N canvas 458 217 266 369 joysticks-input-archive 0;
#X obj 61 26 vradio 19 1 0 5 joystick-assign \$0-joystick-assign-i empty 0 -10 0 12 #fcfcfc #000000 #000000 0;
#X text 82 44 assign #1;
#X text 82 63 assign #2;
#X text 82 84 assign #3;
#X text 82 103 assign #4;
#X text 82 26 use joysticks;
#X obj 61 139 ./controllers/logitech-extreme-3d-hidraw 0;
#X obj 61 188 ./controllers/logitech-extreme-3d-hidraw 1;
#X obj 61 237 ./controllers/logitech-extreme-3d-hidraw 2;
#X obj 61 286 ./controllers/logitech-extreme-3d-hidraw 3;
#X restore 266 634 pd joysticks-input-archive;
#N canvas 237 275 450 300 open-soundbank 0;
#X msg 57 99 \; pd-soundbank vis 1;
#X obj 57 71 inlet;
#X connect 1 0 0 0;
#X restore 540 473 pd open-soundbank;
#N canvas 411 449 450 300 get-set-dsp 0;
#X msg 79 115 \; pd dsp \$1;
#X obj 171 63 r pd;
#X obj 171 83 route dsp;
#X msg 171 103 set \$1;
#X obj 249 63 loadbang;
#X obj 239 42 sig~ 1;
#X obj 239 133 snapshot~;
#X obj 249 111 bng 16 250 50 0 empty empty empty 0 -8 0 10 #fcfcfc #000000 #000000;
#X obj 249 84 delay 10;
#X obj 171 169 outlet;
#X obj 79 92 inlet;
#X connect 1 0 2 0;
#X connect 2 0 3 0;
#X connect 3 0 9 0;
#X connect 4 0 8 0;
#X connect 5 0 6 0;
#X connect 6 0 9 0;
#X connect 7 0 6 0;
#X connect 8 0 7 0;
#X connect 10 0 0 0;
#X restore 265 168 pd get-set-dsp;
#X text 290 145 < enable audio;
#X text 882 625 mallette-pd-agogique v0.2.0;
#X text 840 643 joseph larralde © SCRIME 2024-2025;
#X obj 30 13 cnv 15 160 45 empty empty project 4 11 0 14 #e0e0e0 #404040 0;
#X msg 35 36 open;
#X msg 69 36 save;
#X msg 103 36 saveas;
#X obj 69 67 project/file-manager mallette;
#X obj 31 96 project/preset-manager prsts mallette;
#X obj 1009 59 remote-sound-unit-controls enable;
#X obj 500 235 sound-unit player3 mallette snds;
#X obj 500 323 sound-unit player4 mallette snds;
#N canvas 14 719 450 300 send-preset-cmds 0;
#X obj 235 27 inlet;
#X obj 48 75 s player1-preset-cmd;
#X obj 62 95 s player2-preset-cmd;
#X obj 81 116 s player3-preset-cmd;
#X obj 95 136 s player4-preset-cmd;
#X obj 112 156 s player5-preset-cmd;
#X obj 126 176 s player6-preset-cmd;
#X obj 145 197 s player7-preset-cmd;
#X obj 159 217 s player8-preset-cmd;
#X connect 0 0 1 0;
#X connect 0 0 2 0;
#X connect 0 0 3 0;
#X connect 0 0 4 0;
#X connect 0 0 5 0;
#X connect 0 0 6 0;
#X connect 0 0 7 0;
#X connect 0 0 8 0;
#X restore 31 689 pd send-preset-cmds;
#X obj 265 377 ./controllers/thrustmaster-dual-analog-hidraw 4;
#X obj 265 420 ./controllers/thrustmaster-dual-analog-hidraw 5;
#X obj 265 463 ./controllers/thrustmaster-dual-analog-hidraw 6;
#X obj 265 506 ./controllers/thrustmaster-dual-analog-hidraw 7;
#X connect 7 0 8 0;
#X connect 16 0 37 0;
#X connect 18 0 17 0;
#X connect 19 0 17 1;
#X connect 31 0 36 0;
#X connect 33 0 34 0;
#X connect 34 0 32 0;
#X connect 37 0 16 0;
#X connect 42 0 45 0;
#X connect 43 0 45 0;
#X connect 44 0 45 0;
#X connect 46 0 50 0;
