#N canvas 156 44 923 646 12;
#X obj 196 167 vradio 19 1 0 9 gamepad-assign \$0-gamepad-assign-i empty 0 -10 0 12 #fcfcfc #000000 #000000 0;
#X text 217 167 use gamepads;
#X text 217 185 assign #1;
#X text 217 204 assign #2;
#X text 217 223 assign #3;
#X text 217 242 assign #4;
#X text 86 50 < refresh devices;
#X obj 59 48 bng 19 250 50 0 empty empty empty 0 -10 0 12 #fcfcfc #000000 #000000;
#X obj 60 510 soundbank sounds 128;
#X msg 60 487 symbol ./sounds;
#X obj 60 464 loadbang;
#X obj 349 33 sound-unit player1 sounds;
#N canvas 639 602 450 300 list-devices 0;
#X obj 68 73 bng 19 250 50 0 empty empty empty 0 -10 0 12 #fcfcfc #000000 #000000;
#X obj 68 149 bng 19 250 50 0 empty empty empty 0 -10 0 12 #fcfcfc #000000 #000000;
#X obj 113 17 inlet;
#X obj 113 41 t b b;
#X obj 68 97 devicelist-from-vidpid-hidraw 1103 45845;
#X obj 68 173 devicelist-from-vidpid-hidraw 1133 49685;
#X obj 68 198 s extreme3D-paths;
#X obj 68 122 s thrustmaster-paths;
#X connect 0 0 4 0;
#X connect 1 0 5 0;
#X connect 2 0 3 0;
#X connect 3 0 0 0;
#X connect 3 1 1 0;
#X connect 4 0 7 0;
#X connect 5 0 6 0;
#X restore 59 73 pd list-devices;
#N canvas 659 239 560 443 mapping 1;
#X obj 32 20 r joystick-1;
#X obj 124 20 r joystick-2;
#X obj 41 91 r gamepad-1;
#X obj 216 20 r joystick-3;
#X obj 308 20 r joystick-4;
#X obj 41 142 s player1-controls;
#X obj 41 117 gamepad-mapping-1;
#X obj 178 117 gamepad-mapping-1;
#X obj 178 91 r gamepad-2;
#X obj 178 142 s player2-controls;
#X obj 41 203 gamepad-mapping-1;
#X obj 178 203 gamepad-mapping-1;
#X obj 41 177 r gamepad-3;
#X obj 178 177 r gamepad-4;
#X obj 41 228 s player3-controls;
#X obj 178 228 s player4-controls;
#X obj 32 48 print j1;
#X obj 43 284 gamepad-mapping-1;
#X obj 180 284 gamepad-mapping-1;
#X obj 43 370 gamepad-mapping-1;
#X obj 180 370 gamepad-mapping-1;
#X obj 180 258 r gamepad-6;
#X obj 43 258 r gamepad-5;
#X obj 43 344 r gamepad-7;
#X obj 180 344 r gamepad-8;
#X obj 43 309 s player5-controls;
#X obj 180 309 s player6-controls;
#X obj 43 395 s player7-controls;
#X obj 180 395 s player8-controls;
#X connect 2 0 6 0;
#X connect 6 0 5 0;
#X connect 7 0 9 0;
#X connect 8 0 7 0;
#X connect 10 0 14 0;
#X connect 11 0 15 0;
#X connect 12 0 10 0;
#X connect 13 0 11 0;
#X connect 17 0 25 0;
#X connect 18 0 26 0;
#X connect 19 0 27 0;
#X connect 20 0 28 0;
#X connect 21 0 18 0;
#X connect 22 0 17 0;
#X connect 23 0 19 0;
#X connect 24 0 20 0;
#X restore 60 548 pd mapping;
#X obj 349 113 sound-unit player2 sounds;
#X obj 349 193 sound-unit player3 sounds;
#X obj 349 273 sound-unit player4 sounds;
#X obj 830 75 vsl 33 400 0 1 0 0 \$0-master-o \$0-master-i empty 0 -9 0 12 #fcfcfc #000000 #000000 0 0;
#N canvas 441 320 667 321 audio-out 0;
#X obj 55 52 receive~ player1-left-output;
#X obj 55 76 receive~ player2-left-output;
#X obj 55 100 receive~ player3-left-output;
#X obj 55 124 receive~ player4-left-output;
#X obj 269 52 receive~ player1-right-output;
#X obj 269 76 receive~ player2-right-output;
#X obj 269 100 receive~ player3-right-output;
#X obj 269 124 receive~ player4-right-output;
#X obj 161 186 *~;
#X obj 214 186 *~;
#X obj 161 223 dac~ 1 2;
#X msg 337 203 \$1 10;
#X obj 337 179 clip 0 1;
#X obj 337 227 line~;
#X obj 337 155 r \$0-master-o;
#X obj 465 176 loadbang;
#X msg 465 199 1;
#X obj 465 222 s \$0-master-i;
#X obj 118 254 send~ master-left;
#X obj 253 254 send~ master-right;
#X connect 0 0 8 0;
#X connect 1 0 8 0;
#X connect 2 0 8 0;
#X connect 3 0 8 0;
#X connect 4 0 9 0;
#X connect 5 0 9 0;
#X connect 6 0 9 0;
#X connect 7 0 9 0;
#X connect 8 0 10 0;
#X connect 8 0 18 0;
#X connect 9 0 10 1;
#X connect 9 0 19 0;
#X connect 11 0 13 0;
#X connect 12 0 11 0;
#X connect 13 0 8 1;
#X connect 13 0 9 1;
#X connect 14 0 12 0;
#X connect 15 0 16 0;
#X connect 16 0 17 0;
#X restore 60 572 pd audio-out;
#X text 430 585 mallette-pd-agogique v0.1 - joseph larralde © SCRIME 2024;
#X obj 54 113 ./controllers/thrustmaster-dual-analog-hidraw 0;
#X obj 54 156 ./controllers/thrustmaster-dual-analog-hidraw 1;
#X obj 54 199 ./controllers/thrustmaster-dual-analog-hidraw 2;
#X obj 54 242 ./controllers/thrustmaster-dual-analog-hidraw 3;
#X obj 213 454 bng 20 250 50 0 empty empty empty 0 -10 0 12 #fcfcfc #000000 #000000;
#X obj 213 478 openpanel 1;
#X obj 239 539 tgl 20 0 empty empty empty 0 -10 0 12 #fcfcfc #000000 #000000 0 1;
#X msg 239 567 \; pd dsp \$1;
#N canvas 458 217 476 435 record 0;
#X msg 155 237 start;
#X msg 162 265 stop;
#X text 199 239 start streaming audio;
#X text 201 265 stop streaming audio;
#X obj 137 327 writesf~ 2, f 15;
#X obj 342 117 savepanel;
#X msg 342 144 open \$1;
#X obj 342 86 bng 19 250 50 0 empty empty empty 0 -10 0 12 #dfdfdf #000000 #000000;
#X obj 121 151 sel 0 1;
#X obj 157 58 inlet;
#X obj 340 56 inlet;
#X obj 198 291 receive~ master-left;
#X obj 258 326 receive~ master-right;
#X connect 0 0 4 0;
#X connect 1 0 4 0;
#X connect 5 0 6 0;
#X connect 6 0 4 0;
#X connect 7 0 5 0;
#X connect 8 0 1 0;
#X connect 8 1 0 0;
#X connect 9 0 8 0;
#X connect 10 0 7 0;
#X connect 11 0 4 0;
#X connect 12 0 4 1;
#X restore 329 573 pd record;
#X obj 329 544 tgl 20 0 empty empty empty 0 -10 0 12 #fcfcfc #000000 #000000 0 1;
#X obj 389 544 bng 20 250 50 0 empty empty empty 0 -10 0 12 #fcfcfc #000000 #000000;
#N canvas 458 217 266 369 joysticks-input 0;
#X obj 61 26 vradio 19 1 0 5 joystick-assign \$0-joystick-assign-i empty 0 -10 0 12 #fcfcfc #000000 #000000 0;
#X text 82 44 assign #1;
#X text 82 63 assign #2;
#X text 82 84 assign #3;
#X text 82 103 assign #4;
#X text 82 26 use joysticks;
#X obj 61 139 ./controllers/logitech-extreme-3d-hidraw 0;
#X obj 61 188 ./controllers/logitech-extreme-3d-hidraw 1;
#X obj 61 237 ./controllers/logitech-extreme-3d-hidraw 2;
#X obj 61 286 ./controllers/logitech-extreme-3d-hidraw 3;
#X restore 484 548 pd joysticks-input;
#X text 217 261 assign #5;
#X text 217 280 assign #6;
#X text 217 299 assign #7;
#X text 217 318 assign #8;
#X obj 54 285 ./controllers/thrustmaster-dual-analog-hidraw 0;
#X obj 54 328 ./controllers/thrustmaster-dual-analog-hidraw 1;
#X obj 54 371 ./controllers/thrustmaster-dual-analog-hidraw 2;
#X obj 54 414 ./controllers/thrustmaster-dual-analog-hidraw 3;
#X connect 7 0 12 0;
#X connect 9 0 8 0;
#X connect 10 0 9 0;
#X connect 24 0 25 0;
#X connect 25 0 8 0;
#X connect 26 0 27 0;
#X connect 29 0 28 0;
#X connect 30 0 28 1;
