#N canvas 187 30 923 646 12;
#X obj 59 131 vradio 19 1 0 5 gamepad-assign \$0-gamepad-assign-i empty 0 -10 0 12 #fcfcfc #000000 #000000 0;
#X text 80 131 use gamepads;
#X text 80 149 assign #1;
#X text 80 168 assign #2;
#X text 80 189 assign #3;
#X text 80 208 assign #4;
#X obj 185 131 vradio 19 1 0 5 joystick-assign \$0-joystick-assign-i empty 0 -10 0 12 #fcfcfc #000000 #000000 0;
#X text 206 149 assign #1;
#X text 206 168 assign #2;
#X text 206 189 assign #3;
#X text 206 208 assign #4;
#X text 206 131 use joysticks;
#X text 86 50 < refresh devices;
#X obj 59 48 bng 19 250 50 0 empty empty empty 0 -10 0 12 #fcfcfc #000000 #000000;
#X obj 60 510 soundbank sounds 128;
#X msg 60 487 symbol ./sounds;
#X obj 60 464 loadbang;
#X obj 345 73 sound-unit player1 sounds;
#N canvas 639 602 450 300 list-devices 0;
#X obj 68 73 bng 19 250 50 0 empty empty empty 0 -10 0 12 #fcfcfc #000000 #000000;
#X obj 68 149 bng 19 250 50 0 empty empty empty 0 -10 0 12 #fcfcfc #000000 #000000;
#X obj 113 17 inlet;
#X obj 113 41 t b b;
#X obj 68 97 devicelist-from-vidpid-hidraw 1103 45845;
#X obj 68 173 devicelist-from-vidpid-hidraw 1133 49685;
#X obj 68 198 s extreme3D-paths;
#X obj 68 122 s thrustmaster-paths;
#X connect 0 0 4 0;
#X connect 1 0 5 0;
#X connect 2 0 3 0;
#X connect 3 0 0 0;
#X connect 3 1 1 0;
#X connect 4 0 7 0;
#X connect 5 0 6 0;
#X restore 59 73 pd list-devices;
#N canvas 659 239 560 443 mapping 0;
#X obj 35 93 r joystick-1;
#X obj 127 93 r joystick-2;
#X obj 39 208 r gamepad-1;
#X obj 219 93 r joystick-3;
#X obj 311 93 r joystick-4;
#X obj 39 259 s player1-controls;
#X obj 39 234 gamepad-mapping-1;
#X obj 176 234 gamepad-mapping-1;
#X obj 176 208 r gamepad-2;
#X obj 176 259 s player2-controls;
#X obj 39 320 gamepad-mapping-1;
#X obj 176 320 gamepad-mapping-1;
#X obj 39 294 r gamepad-3;
#X obj 176 294 r gamepad-4;
#X obj 39 345 s player3-controls;
#X obj 176 345 s player4-controls;
#X obj 35 121 print j1;
#X connect 2 0 6 0;
#X connect 6 0 5 0;
#X connect 7 0 9 0;
#X connect 8 0 7 0;
#X connect 10 0 14 0;
#X connect 11 0 15 0;
#X connect 12 0 10 0;
#X connect 13 0 11 0;
#X restore 60 548 pd mapping;
#X obj 345 177 sound-unit player2 sounds;
#X obj 345 281 sound-unit player3 sounds;
#X obj 345 385 sound-unit player4 sounds;
#X obj 830 75 vsl 33 400 0 1 0 0 \$0-master-o \$0-master-i empty 0 -9 0 12 #fcfcfc #000000 #000000 0 0;
#N canvas 478 501 781 286 audio-out 0;
#X obj 55 52 receive~ player1-left-output;
#X obj 55 76 receive~ player2-left-output;
#X obj 55 100 receive~ player3-left-output;
#X obj 55 124 receive~ player4-left-output;
#X obj 269 52 receive~ player1-right-output;
#X obj 269 76 receive~ player2-right-output;
#X obj 269 100 receive~ player3-right-output;
#X obj 269 124 receive~ player4-right-output;
#X obj 161 186 *~;
#X obj 214 186 *~;
#X obj 161 223 dac~ 1 2;
#X msg 337 203 \$1 10;
#X obj 337 179 clip 0 1;
#X obj 337 227 line~;
#X obj 337 155 r \$0-master-o;
#X obj 465 176 loadbang;
#X msg 465 199 1;
#X obj 465 222 s \$0-master-i;
#X connect 0 0 8 0;
#X connect 1 0 8 0;
#X connect 2 0 8 0;
#X connect 3 0 8 0;
#X connect 4 0 9 0;
#X connect 5 0 9 0;
#X connect 6 0 9 0;
#X connect 7 0 9 0;
#X connect 8 0 10 0;
#X connect 9 0 10 1;
#X connect 11 0 13 0;
#X connect 12 0 11 0;
#X connect 13 0 8 1;
#X connect 13 0 9 1;
#X connect 14 0 12 0;
#X connect 15 0 16 0;
#X connect 16 0 17 0;
#X restore 60 572 pd audio-out;
#X text 430 585 mallette-pd-agogique v0.1 - joseph larralde © SCRIME 2024;
#X obj 59 244 ./controllers/thrustmaster-dual-analog-hidraw 0;
#X obj 59 293 ./controllers/thrustmaster-dual-analog-hidraw 1;
#X obj 59 342 ./controllers/thrustmaster-dual-analog-hidraw 2;
#X obj 59 391 ./controllers/thrustmaster-dual-analog-hidraw 3;
#X obj 185 244 ./controllers/logitech-extreme-3d-hidraw 0;
#X obj 185 293 ./controllers/logitech-extreme-3d-hidraw 1;
#X obj 185 342 ./controllers/logitech-extreme-3d-hidraw 2;
#X obj 185 391 ./controllers/logitech-extreme-3d-hidraw 3;
#X obj 213 454 bng 20 250 50 0 empty empty empty 0 -10 0 12 #fcfcfc #000000 #000000;
#X obj 213 478 openpanel 1;
#X obj 239 539 tgl 20 0 empty empty empty 0 -10 0 12 #fcfcfc #000000 #000000 0 1;
#X msg 239 567 \; pd dsp \$1;
#X connect 13 0 18 0;
#X connect 15 0 14 0;
#X connect 16 0 15 0;
#X connect 34 0 35 0;
#X connect 35 0 14 0;
#X connect 36 0 37 0;
