#N canvas 371 259 788 584 12;
#X obj 34 21 inlet;
#X obj 165 522 outlet;
#X msg 34 107 play \$1;
#X obj 111 119 cartopol;
#X msg 130 204 filterctl \$1 \$2;
#X msg 97 157 list dist \$1;
#X msg 199 157 list angle \$1;
#X obj 402 110 route btn1 btn2 btn3 btn4;
#X obj 34 46 route rightup-trigger left-joystick-x left-joystick-y leftup-trigger;
#X msg 310 204 reverbe \$1;
#X obj 310 179 * 0.5;
#X obj 478 308 route right-joystick-x right-joystick-y;
#X msg 612 432 volume \$1;
#X obj 478 393 expr $f1 * 0.5 + 0.5;
#X msg 478 418 panning \$1;
#X obj 613 343 moses 0;
#X obj 659 366 * 12;
#X obj 613 366 * 24;
#X obj 439 152 route cross-up cross-down;
#X obj 440 228 +;
#X obj 439 178 * 12;
#X obj 525 177 * -12;
#X obj 453 205 t b f;
#X msg 439 251 pitch \$1;
#X connect 0 0 8 0;
#X connect 2 0 1 0;
#X connect 3 0 5 0;
#X connect 3 1 6 0;
#X connect 4 0 1 0;
#X connect 5 0 4 0;
#X connect 6 0 4 0;
#X connect 7 4 18 0;
#X connect 8 0 2 0;
#X connect 8 1 3 0;
#X connect 8 2 3 1;
#X connect 8 3 10 0;
#X connect 8 4 7 0;
#X connect 9 0 1 0;
#X connect 10 0 9 0;
#X connect 11 0 13 0;
#X connect 11 1 15 0;
#X connect 12 0 1 0;
#X connect 13 0 14 0;
#X connect 14 0 1 0;
#X connect 15 0 17 0;
#X connect 15 1 16 0;
#X connect 16 0 12 0;
#X connect 17 0 12 0;
#X connect 18 0 20 0;
#X connect 18 1 21 0;
#X connect 18 2 11 0;
#X connect 19 0 23 0;
#X connect 20 0 19 0;
#X connect 21 0 22 0;
#X connect 22 0 19 0;
#X connect 22 1 19 1;
#X connect 23 0 1 0;
