#N canvas 400 196 1050 758 12;
#X obj 64 54 inlet;
#X obj 347 629 outlet;
#X msg 56 201 play \$1;
#X obj 141 152 cartopol;
#X msg 159 248 filterctl \$1 \$2;
#X msg 126 201 list dist \$1;
#X msg 227 213 list angle \$1;
#X obj 432 143 route btn1 btn2 btn3 btn4;
#X obj 64 79 route rightup-trigger left-joystick-x left-joystick-y leftup-trigger;
#X msg 347 226 reverbe \$1;
#X obj 347 201 * 0.5;
#X msg 761 475 volume \$1;
#X obj 548 468 expr $f1 * 0.5 + 0.5;
#X msg 548 493 panning \$1;
#X obj 761 398 moses 0;
#X obj 761 421 * 30;
#X obj 807 421 * 6;
#X obj 761 449 - 6;
#X obj 655 362 route right-joystick-x right-joystick-y enable;
#X obj 227 188 / 3.14159;
#X obj 469 185 route cross-up cross-down cross-left cross-right;
#X msg 469 294 pitch \$1;
#X obj 646 214 sel 1;
#X obj 706 214 sel 1;
#N canvas 397 362 540 410 incdec 0;
#X obj 144 233 f;
#X obj 182 212 +;
#X obj 207 128 t b b;
#X msg 245 176 -1;
#X obj 137 129 t b b;
#X msg 200 177 1;
#X obj 172 335 outlet;
#X obj 135 39 inlet;
#X obj 199 39 inlet;
#X obj 189 248 clip 0 1;
#X connect 0 0 1 0;
#X connect 1 0 9 0;
#X connect 2 0 0 0;
#X connect 2 1 3 0;
#X connect 3 0 1 1;
#X connect 4 0 0 0;
#X connect 4 1 5 0;
#X connect 5 0 1 1;
#X connect 7 0 4 0;
#X connect 8 0 2 0;
#X connect 9 0 0 1;
#X connect 9 0 6 0;
#X restore 646 241 pd incdec;
#X msg 634 267 reverse \$1;
#N canvas 179 217 450 300 original-pitch-ctl 0;
#X obj 125 146 +;
#X obj 124 96 * 12;
#X obj 210 95 * -12;
#X obj 138 123 t b f;
#X obj 123 33 inlet;
#X obj 213 37 inlet;
#X obj 127 202 outlet;
#X connect 0 0 6 0;
#X connect 1 0 0 0;
#X connect 2 0 3 0;
#X connect 3 0 0 0;
#X connect 3 1 0 1;
#X connect 4 0 1 0;
#X connect 5 0 2 0;
#X restore 432 266 pd original-pitch-ctl;
#N canvas 397 362 540 410 incdec-octave 0;
#X obj 144 233 f;
#X obj 182 212 +;
#X obj 207 128 t b b;
#X msg 245 176 -1;
#X obj 137 129 t b b;
#X msg 200 177 1;
#X obj 189 248 clip -1 1;
#X obj 172 335 outlet;
#X obj 135 39 inlet;
#X obj 199 39 inlet;
#X obj 181 300 * 12;
#X obj 138 90 sel 1;
#X obj 198 90 sel 1;
#X connect 0 0 1 0;
#X connect 1 0 6 0;
#X connect 2 0 0 0;
#X connect 2 1 3 0;
#X connect 3 0 1 1;
#X connect 4 0 0 0;
#X connect 4 1 5 0;
#X connect 5 0 1 1;
#X connect 6 0 0 1;
#X connect 6 0 10 0;
#X connect 8 0 11 0;
#X connect 9 0 12 0;
#X connect 10 0 7 0;
#X connect 11 0 4 0;
#X connect 12 0 2 0;
#X restore 443 240 pd incdec-octave;
#X text 714 268 < or plug directly to cross-left for tmp;
#N canvas 673 623 450 379 center-attract 0;
#X obj 177 114 moses 0;
#X obj 165 250 * -1;
#X obj 195 302 outlet;
#X obj 183 77 inlet;
#X obj 308 246 * -1;
#X obj 338 298 outlet;
#X obj 312 176 abs;
#X obj 311 207 pow 2;
#X obj 381 210 pow 2;
#X obj 174 184 t f f;
#X obj 168 211 *;
#X obj 224 184 t f f;
#X obj 218 211 *;
#X connect 0 0 9 0;
#X connect 0 1 11 0;
#X connect 1 0 2 0;
#X connect 3 0 0 0;
#X connect 4 0 5 0;
#X connect 6 0 7 0;
#X connect 7 0 4 0;
#X connect 8 0 5 0;
#X connect 9 0 10 0;
#X connect 9 1 10 1;
#X connect 10 0 1 0;
#X connect 11 0 12 0;
#X connect 11 1 12 1;
#X connect 12 0 2 0;
#X restore 548 438 pd center-attract;
#X connect 0 0 8 0;
#X connect 2 0 1 0;
#X connect 3 0 5 0;
#X connect 3 1 19 0;
#X connect 4 0 1 0;
#X connect 5 0 4 0;
#X connect 6 0 4 0;
#X connect 7 4 20 0;
#X connect 8 0 2 0;
#X connect 8 1 3 0;
#X connect 8 2 3 1;
#X connect 8 3 10 0;
#X connect 8 4 7 0;
#X connect 9 0 1 0;
#X connect 10 0 9 0;
#X connect 11 0 1 0;
#X connect 12 0 13 0;
#X connect 13 0 1 0;
#X connect 14 0 15 0;
#X connect 14 1 16 0;
#X connect 15 0 17 0;
#X connect 16 0 17 0;
#X connect 17 0 11 0;
#X connect 18 0 29 0;
#X connect 18 1 14 0;
#X connect 19 0 6 0;
#X connect 20 0 27 0;
#X connect 20 1 27 1;
#X connect 20 2 22 0;
#X connect 20 3 23 0;
#X connect 20 4 18 0;
#X connect 21 0 1 0;
#X connect 22 0 24 0;
#X connect 23 0 24 1;
#X connect 24 0 25 0;
#X connect 25 0 1 0;
#X connect 27 0 21 0;
#X connect 29 0 12 0;
