#N canvas 707 372 631 524 8;
#X obj 53 70 tgl 22 0 \$1-volume-enable-o \$1-volume-enable-i volume 28 12 0 12 #fcfcfc #000000 #000000 0 1;
#X obj 53 92 tgl 22 0 \$1-panning-enable-o \$1-panning-enable-i panning 28 12 0 12 #fcfcfc #000000 #000000 0 1;
#X obj 53 114 tgl 22 0 \$1-pitch-enable-o \$1-pitch-enable-i pitch 28 12 0 12 #fcfcfc #000000 #000000 0 1;
#X obj 53 136 tgl 22 0 \$1-filter-enable-o \$1-filter-enable-i filter 28 12 0 12 #fcfcfc #000000 #000000 0 1;
#X obj 53 158 tgl 22 0 \$1-reverbe-enable-o \$1-reverbe-enable-i reverbe 28 12 0 12 #fcfcfc #000000 #000000 0 1;
#X obj 53 180 tgl 22 0 \$1-reverse-enable-o \$1-reverse-enable-i reverse 28 12 0 12 #fcfcfc #000000 #000000 0 1;
#X msg 87 273 1;
#X msg 119 273 0;
#X obj 100 302 t f f f f f f;
#X obj 115 479 s \$1-volume-enable-i;
#X obj 140 457 s \$1-panning-enable-i;
#X obj 166 435 s \$1-pitch-enable-i;
#X obj 194 413 s \$1-filter-enable-i;
#X obj 219 391 s \$1-reverbe-enable-i;
#X obj 245 369 s \$1-reverse-enable-i;
#X obj 242 127 r \$1-volume-enable-o;
#X obj 267 105 r \$1-panning-enable-o;
#X obj 293 83 r \$1-pitch-enable-o;
#X obj 321 61 r \$1-filter-enable-o;
#X obj 346 39 r \$1-reverbe-enable-o;
#X obj 372 17 r \$1-reverse-enable-o;
#X msg 243 264 volume \$1;
#X msg 267 242 panning \$1;
#X msg 293 220 pitch \$1;
#X msg 321 198 filter \$1;
#X msg 346 176 reverbe \$1;
#X msg 372 154 reverse \$1;
#X obj 430 326 list prepend enable;
#X obj 430 349 list trim;
#X obj 53 205 bng 22 250 50 0 \$0-all-o \$0-all-i empty 0 -10 0 12 #fcfcfc #000000 #000000;
#X obj 78 205 bng 22 250 50 0 \$0-none-o \$0-none-i empty 0 -10 0 12 #fcfcfc #000000 #000000;
#X text 78 209 none;
#X text 54 209 all;
#X obj 430 372 s sound-unit-controls;
#X connect 6 0 8 0;
#X connect 7 0 8 0;
#X connect 8 0 9 0;
#X connect 8 1 10 0;
#X connect 8 2 11 0;
#X connect 8 3 12 0;
#X connect 8 4 13 0;
#X connect 8 5 14 0;
#X connect 15 0 21 0;
#X connect 16 0 22 0;
#X connect 17 0 23 0;
#X connect 18 0 24 0;
#X connect 19 0 25 0;
#X connect 20 0 26 0;
#X connect 21 0 27 0;
#X connect 22 0 27 0;
#X connect 23 0 27 0;
#X connect 24 0 27 0;
#X connect 25 0 27 0;
#X connect 26 0 27 0;
#X connect 27 0 28 0;
#X connect 28 0 33 0;
#X connect 29 0 6 0;
#X connect 30 0 7 0;
#X coords 0 -1 1 1 85 163 2 50 67;
