#N canvas 406 132 1307 918 12;
#X obj 850 229 soundfiler;
#X obj 850 99 openpanel;
#X obj 851 359 array define \$1;
#X obj 850 153 makefilename \$1;
#X obj 850 123 t b s;
#X obj 850 179 pack s s;
#X msg 850 205 read -resize \$2 \$1;
#X obj 850 75 bng 19 250 50 0 empty empty empty 0 -10 0 12 #fcfcfc #000000 #000000;
#X msg 917 254 \$1;
#X obj 850 289 pack f f;
#X obj 453 464 phasor~;
#X obj 102 361 hidraw;
#X obj 102 287 f \$2;
#X obj 155 287 f \$3;
#X obj 102 263 t b b;
#X obj 102 311 pack f f;
#X obj 102 236 bng 19 250 50 0 empty empty empty 0 -10 0 12 #fcfcfc #000000 #000000;
#X msg 102 336 open-vidpid \$1 \$2 \, poll 5;
#X obj 102 391 unpack 0 0 0 0 0 0 0 0;
#X msg 43 312 close;
#N canvas 179 217 598 421 main-buttons-and-triggers 0;
#X obj 69 126 & 1;
#X obj 105 126 & 2;
#X obj 141 126 & 4;
#X obj 177 126 & 8;
#X obj 213 126 & 16;
#X obj 249 126 & 32;
#X obj 285 126 & 64;
#X obj 321 126 & 128;
#X obj 69 346 s \$1-btn1;
#X obj 69 322 change;
#X obj 105 274 change;
#X obj 105 298 s \$1-btn2;
#X obj 141 226 change;
#X obj 177 178 change;
#X obj 141 250 s \$1-btn3;
#X obj 177 202 s \$1-btn4;
#X obj 213 322 change;
#X obj 249 274 change;
#X obj 213 346 s \$1-lefttop-trig;
#X obj 249 298 s \$1-leftbottom-trig;
#X obj 285 226 change;
#X obj 321 178 change;
#X obj 285 250 s \$1-righttop-trig;
#X obj 321 202 s \$1-rightbottom-trig;
#X obj 140 72 t f f f f f f f f;
#X obj 140 47 change;
#X obj 140 22 inlet;
#X obj 69 150 != 0;
#X obj 105 150 != 0;
#X obj 141 150 != 0;
#X obj 177 150 != 0;
#X obj 213 150 != 0;
#X obj 249 150 != 0;
#X obj 285 150 != 0;
#X obj 321 150 != 0;
#X connect 0 0 27 0;
#X connect 1 0 28 0;
#X connect 2 0 29 0;
#X connect 3 0 30 0;
#X connect 4 0 31 0;
#X connect 5 0 32 0;
#X connect 6 0 33 0;
#X connect 7 0 34 0;
#X connect 9 0 8 0;
#X connect 10 0 11 0;
#X connect 12 0 14 0;
#X connect 13 0 15 0;
#X connect 16 0 18 0;
#X connect 17 0 19 0;
#X connect 20 0 22 0;
#X connect 21 0 23 0;
#X connect 24 0 0 0;
#X connect 24 1 1 0;
#X connect 24 2 2 0;
#X connect 24 3 3 0;
#X connect 24 4 4 0;
#X connect 24 5 5 0;
#X connect 24 6 6 0;
#X connect 24 7 7 0;
#X connect 25 0 24 0;
#X connect 26 0 25 0;
#X connect 27 0 9 0;
#X connect 28 0 10 0;
#X connect 29 0 12 0;
#X connect 30 0 13 0;
#X connect 31 0 16 0;
#X connect 32 0 17 0;
#X connect 33 0 20 0;
#X connect 34 0 21 0;
#X restore 102 526 pd main-buttons-and-triggers;
#N canvas 1017 167 436 425 select-start-and-joystick-buttons 0;
#X obj 88 145 & 1;
#X obj 127 145 & 2;
#X obj 166 145 & 4;
#X obj 205 145 & 8;
#X obj 88 335 change;
#X obj 127 287 change;
#X obj 166 239 change;
#X obj 205 191 change;
#X obj 117 80 change;
#X obj 117 55 inlet;
#X obj 117 105 t f f f f;
#X obj 166 263 s \$1-left-joystick-btn;
#X obj 205 215 s \$1-right-joystick-btn;
#X obj 127 311 s \$1-start-btn;
#X obj 88 359 s \$1-select-btn;
#X obj 88 168 != 0;
#X obj 127 168 != 0;
#X obj 166 168 != 0;
#X obj 205 168 != 0;
#X connect 0 0 15 0;
#X connect 1 0 16 0;
#X connect 2 0 17 0;
#X connect 3 0 18 0;
#X connect 4 0 14 0;
#X connect 5 0 13 0;
#X connect 6 0 11 0;
#X connect 7 0 12 0;
#X connect 8 0 10 0;
#X connect 9 0 8 0;
#X connect 10 0 0 0;
#X connect 10 1 1 0;
#X connect 10 2 2 0;
#X connect 10 3 3 0;
#X connect 15 0 4 0;
#X connect 16 0 5 0;
#X connect 17 0 6 0;
#X connect 18 0 7 0;
#X restore 123 501 pd select-start-and-joystick-buttons;
#N canvas 388 210 763 789 cross 0;
#X obj 62 59 sel 240 0 16 32 48 64 80 96 112;
#X msg 62 116 0;
#X msg 85 93 1;
#X msg 109 117 2;
#X msg 133 93 3;
#X msg 157 118 4;
#X msg 180 95 5;
#X msg 204 119 6;
#X msg 228 95 7;
#X msg 252 119 8;
#X obj 62 33 inlet;
#X obj 150 184 t f;
#X obj 375 303 list split;
#X obj 460 384 list append;
#X msg 375 268 0 0 0 0 0 0 0 0;
#X obj 453 303 list split 1;
#X obj 545 303 list split;
#X obj 527 148 t f f;
#X obj 571 184 swap 8;
#X obj 580 216 -;
#X obj 516 186 - 1;
#X floatatom 446 70 5 0 0 0 - - - 0;
#X obj 445 97 t b f;
#X obj 397 417 list append;
#X obj 454 330 t b;
#X msg 457 355 1;
#X obj 150 209 sel 0;
#X msg 254 268 0 0 0 0 0 0 0 0;
#X obj 342 451 t l l;
#X obj 396 483 unpack f f f f f f f f;
#X obj 396 675 s \$1-cross-up;
#X obj 417 651 s \$1-cross-upright;
#X obj 439 627 s \$1-cross-right;
#X obj 460 603 s \$1-cross-downright;
#X obj 482 579 s \$1-cross-down;
#X obj 503 555 s \$1-cross-downleft;
#X obj 525 531 s \$1-cross-left;
#X obj 547 507 s \$1-cross-upleft;
#X obj 255 660 s \$1-cross-list;
#X connect 0 0 1 0;
#X connect 0 1 2 0;
#X connect 0 2 3 0;
#X connect 0 3 4 0;
#X connect 0 4 5 0;
#X connect 0 5 6 0;
#X connect 0 6 7 0;
#X connect 0 7 8 0;
#X connect 0 8 9 0;
#X connect 1 0 11 0;
#X connect 2 0 11 0;
#X connect 3 0 11 0;
#X connect 4 0 11 0;
#X connect 5 0 11 0;
#X connect 6 0 11 0;
#X connect 7 0 11 0;
#X connect 8 0 11 0;
#X connect 9 0 11 0;
#X connect 10 0 0 0;
#X connect 11 0 26 0;
#X connect 12 0 23 0;
#X connect 12 1 15 0;
#X connect 13 0 23 1;
#X connect 14 0 12 0;
#X connect 15 0 24 0;
#X connect 15 1 16 0;
#X connect 16 0 13 1;
#X connect 17 0 20 0;
#X connect 17 1 18 0;
#X connect 18 0 19 0;
#X connect 18 1 19 1;
#X connect 19 0 16 1;
#X connect 20 0 12 1;
#X connect 21 0 22 0;
#X connect 22 0 14 0;
#X connect 22 1 17 0;
#X connect 23 0 28 0;
#X connect 24 0 25 0;
#X connect 25 0 13 0;
#X connect 26 0 27 0;
#X connect 26 1 21 0;
#X connect 27 0 28 0;
#X connect 28 0 38 0;
#X connect 28 1 29 0;
#X connect 29 0 30 0;
#X connect 29 1 31 0;
#X connect 29 2 32 0;
#X connect 29 3 33 0;
#X connect 29 4 34 0;
#X connect 29 5 35 0;
#X connect 29 6 36 0;
#X connect 29 7 37 0;
#X restore 145 477 pd cross;
#N canvas 237 275 665 349 left-joystick 0;
#X obj 83 110 moses 128;
#X obj 83 134 / 127;
#X obj 143 133 expr 1 - ($f1 - 128) / 127;
#X obj 143 157 * -1;
#X obj 342 108 moses 128;
#X obj 342 132 / 127;
#X obj 402 131 expr 1 - ($f1 - 128) / 127;
#X obj 342 155 * -1;
#X obj 342 55 inlet;
#X obj 83 55 inlet;
#X obj 364 200 t f;
#X obj 102 201 t f;
#X obj 102 235 s \$1-left-joystick-x;
#X obj 364 235 s \$1-left-joystick-y;
#X connect 0 0 1 0;
#X connect 0 1 2 0;
#X connect 1 0 11 0;
#X connect 2 0 3 0;
#X connect 3 0 11 0;
#X connect 4 0 5 0;
#X connect 4 1 6 0;
#X connect 5 0 7 0;
#X connect 6 0 10 0;
#X connect 7 0 10 0;
#X connect 8 0 4 0;
#X connect 9 0 0 0;
#X connect 10 0 13 0;
#X connect 11 0 12 0;
#X restore 166 454 pd left-joystick;
#N canvas 237 275 665 349 right-joystick 0;
#X obj 342 55 inlet;
#X obj 83 55 inlet;
#X obj 83 86 moses 128;
#X obj 83 110 / 127;
#X obj 143 110 expr 1 - ($f1 - 128) / 127;
#X obj 143 133 * -1;
#X obj 342 86 moses 128;
#X obj 342 184 t f;
#X obj 102 184 t f;
#X obj 402 133 * -1;
#X obj 342 156 expr 1 - ($f1 / 128);
#X obj 402 110 expr ($f1 - 128) / 127;
#X obj 102 207 s \$1-right-joystick-x;
#X obj 342 207 s \$1-right-joystick-y;
#X connect 0 0 6 0;
#X connect 1 0 2 0;
#X connect 2 0 3 0;
#X connect 2 1 4 0;
#X connect 3 0 8 0;
#X connect 4 0 5 0;
#X connect 5 0 8 0;
#X connect 6 0 10 0;
#X connect 6 1 11 0;
#X connect 7 0 13 0;
#X connect 8 0 12 0;
#X connect 9 0 7 0;
#X connect 10 0 7 0;
#X connect 11 0 9 0;
#X restore 210 431 pd right-joystick;
#X obj 694 757 line~;
#X msg 694 733 \$1 10;
#X obj 694 599 vsl 16 126 0 1 0 0 empty empty empty 0 -9 0 12 #fcfcfc #000000 #000000 0 1;
#X obj 623 858 dac~ 1 2;
#X obj 676 817 *~;
#N canvas 227 82 745 532 joystick-controlled-filters 0;
#X obj 94 431 *~ 1;
#X obj 267 305 jl/bibi~ lowpass;
#X obj 320 330 jl/bibi~ highpass;
#X obj 502 304 jl/bibi~ bandpass;
#X obj 195 117 pow 0.5;
#X msg 445 398 Q \$1;
#X floatatom 445 376 5 0 0 0 - - - 0;
#N canvas 1194 371 331 378 split~ 0;
#X obj 48 37 inlet~;
#X obj 142 119 expr 1 - $f1;
#X obj 142 93 t f f;
#X obj 158 39 inlet;
#X obj 88 214 *~;
#X obj 149 213 *~;
#X obj 111 185 line~;
#X msg 111 161 \$1 10;
#X obj 171 185 line~;
#X msg 171 161 \$1 10;
#X obj 74 284 outlet~;
#X obj 144 284 outlet~;
#X connect 0 0 4 0;
#X connect 0 0 5 0;
#X connect 1 0 7 0;
#X connect 2 0 1 0;
#X connect 2 1 9 0;
#X connect 3 0 2 0;
#X connect 4 0 10 0;
#X connect 5 0 11 0;
#X connect 6 0 4 1;
#X connect 7 0 6 0;
#X connect 8 0 5 1;
#X connect 9 0 8 0;
#X restore 94 174 pd split~;
#N canvas 1194 371 331 378 split~ 0;
#X obj 48 37 inlet~;
#X obj 142 119 expr 1 - $f1;
#X obj 142 93 t f f;
#X obj 158 39 inlet;
#X obj 88 214 *~;
#X obj 149 213 *~;
#X obj 111 185 line~;
#X msg 111 161 \$1 10;
#X obj 171 185 line~;
#X msg 171 161 \$1 10;
#X obj 74 284 outlet~;
#X obj 144 284 outlet~;
#X connect 0 0 4 0;
#X connect 0 0 5 0;
#X connect 1 0 7 0;
#X connect 2 0 1 0;
#X connect 2 1 9 0;
#X connect 3 0 2 0;
#X connect 4 0 10 0;
#X connect 5 0 11 0;
#X connect 6 0 4 1;
#X connect 7 0 6 0;
#X connect 8 0 5 1;
#X connect 9 0 8 0;
#X restore 275 270 pd split~;
#N canvas 1194 371 331 378 split~ 0;
#X obj 48 37 inlet~;
#X obj 142 119 expr 1 - $f1;
#X obj 142 93 t f f;
#X obj 158 39 inlet;
#X obj 88 214 *~;
#X obj 149 213 *~;
#X obj 111 185 line~;
#X msg 111 161 \$1 10;
#X obj 171 185 line~;
#X msg 171 161 \$1 10;
#X obj 74 284 outlet~;
#X obj 144 284 outlet~;
#X connect 0 0 4 0;
#X connect 0 0 5 0;
#X connect 1 0 7 0;
#X connect 2 0 1 0;
#X connect 2 1 9 0;
#X connect 3 0 2 0;
#X connect 4 0 10 0;
#X connect 5 0 11 0;
#X connect 6 0 4 1;
#X connect 7 0 6 0;
#X connect 8 0 5 1;
#X connect 9 0 8 0;
#X restore 225 207 pd split~;
#X msg 635 330 Q \$1;
#X floatatom 635 308 5 0 0 0 - - - 0;
#X msg 524 231 reset;
#X obj 502 278 *~ 2;
#X obj 94 62 inlet~;
#X obj 374 87 / 3.14159;
#X obj 94 457 outlet~;
#N canvas 602 285 710 520 low-high-pass-control 0;
#X floatatom 180 83 15 0 0 0 - - - 0;
#X floatatom 423 89 5 0 0 0 - - - 0;
#X obj 422 43 loadbang;
#X obj 173 59 expr fmod($f1 + 1 + $f2 \, 2) - 1;
#X msg 423 66 1;
#X obj 173 106 clip -0.5 0.5;
#X obj 375 327 mtof;
#X obj 402 218 moses 0;
#X msg 375 351 cutoff \$1;
#X obj 508 326 mtof;
#X msg 508 350 cutoff \$1;
#X obj 221 151 t f f;
#X obj 68 262 clip -0.1 0.1;
#X obj 68 289 expr 1 - ($f1 * 5 + 0.5);
#X obj 375 273 expr $f1 * -2 * 128;
#X obj 508 302 expr (1 - $f1 * 2) * 128;
#X text 40 237 fade between full range lowpass and highpass;
#X obj 173 25 inlet;
#X obj 68 427 outlet to-high-low-pass-split;
#X obj 376 427 outlet to-lowpass;
#X obj 510 427 outlet to-highpass;
#X text 392 187 frequency controls;
#X text 451 327 lowpass;
#X text 311 327 highpass;
#X connect 1 0 3 1;
#X connect 2 0 4 0;
#X connect 3 0 0 0;
#X connect 3 0 5 0;
#X connect 4 0 1 0;
#X connect 5 0 11 0;
#X connect 6 0 8 0;
#X connect 7 0 14 0;
#X connect 7 1 15 0;
#X connect 8 0 20 0;
#X connect 9 0 10 0;
#X connect 10 0 19 0;
#X connect 11 0 12 0;
#X connect 11 1 7 0;
#X connect 12 0 13 0;
#X connect 13 0 18 0;
#X connect 14 0 6 0;
#X connect 15 0 9 0;
#X connect 17 0 3 0;
#X restore 277 143 pd low-high-pass-control;
#N canvas 512 234 763 517 bandpass-control 0;
#X floatatom 281 109 15 0 0 0 - - - 0;
#X obj 162 266 clip 0.4 0.6;
#X obj 162 290 expr 1 - ($f1 - 0.4) * 5;
#X obj 162 314 clip 0 1;
#X obj 162 242 abs;
#X obj 274 131 t f f;
#X obj 438 270 clip -0.5 0.5;
#X msg 438 342 cutoff \$1;
#X obj 438 318 mtof;
#X obj 438 294 expr ($f1 + 0.5) * 128;
#X obj 274 85 expr fmod($f1 + 1 + $f2 \, 2) - 1;
#X floatatom 516 102 5 0 0 0 - - - 0;
#X obj 516 56 loadbang;
#X msg 516 79 0;
#X text 67 214 fades between low/highpasses and bandpass;
#X text 435 246 bandpass frequency control;
#X obj 274 40 inlet;
#X obj 162 430 outlet to-lowhigh-vs-bandpass-xfades;
#X obj 438 429 outlet to-bandpass;
#X connect 1 0 2 0;
#X connect 2 0 3 0;
#X connect 3 0 17 0;
#X connect 4 0 1 0;
#X connect 5 0 4 0;
#X connect 5 1 6 0;
#X connect 6 0 9 0;
#X connect 7 0 18 0;
#X connect 8 0 7 0;
#X connect 9 0 8 0;
#X connect 10 0 5 0;
#X connect 10 0 0 0;
#X connect 11 0 10 1;
#X connect 12 0 13 0;
#X connect 13 0 11 0;
#X connect 16 0 10 0;
#X restore 462 145 pd bandpass-control;
#X obj 374 112 t f f;
#X obj 195 62 r \$1-left-joystick-dist;
#X obj 374 61 r \$1-left-joystick-angle;
#X obj 619 179 loadbang;
#X msg 619 205 1;
#X connect 0 0 16 0;
#X connect 1 0 0 0;
#X connect 2 0 0 0;
#X connect 3 0 0 0;
#X connect 4 0 7 1;
#X connect 5 0 2 0;
#X connect 5 0 1 0;
#X connect 6 0 5 0;
#X connect 7 0 0 0;
#X connect 7 1 9 0;
#X connect 8 0 1 0;
#X connect 8 1 2 0;
#X connect 9 0 8 0;
#X connect 9 1 13 0;
#X connect 10 0 3 0;
#X connect 11 0 10 0;
#X connect 12 0 1 0;
#X connect 12 0 2 0;
#X connect 12 0 3 0;
#X connect 13 0 3 0;
#X connect 14 0 7 0;
#X connect 15 0 19 0;
#X connect 17 0 8 1;
#X connect 17 1 1 0;
#X connect 17 2 2 0;
#X connect 18 0 9 1;
#X connect 18 1 3 0;
#X connect 19 0 17 0;
#X connect 19 1 18 0;
#X connect 20 0 4 0;
#X connect 21 0 15 0;
#X connect 22 0 23 0;
#X connect 23 0 11 0;
#X connect 23 0 6 0;
#X restore 453 686 pd joystick-controlled-filters;
#N canvas 694 494 488 261 left-joystick-to-polar 0;
#X obj 35 35 r \$1-left-joystick-x;
#X obj 88 59 r \$1-left-joystick-y;
#X obj 35 84 pack f f;
#X obj 35 110 t l l;
#X obj 212 155 expr sqrt($f1 * $f1 + $f2 * $f2);
#X obj 212 178 clip 0 1;
#X obj 35 156 expr atan2($f2 \, $f1);
#X obj 35 205 s \$1-left-joystick-angle;
#X obj 212 205 s \$1-left-joystick-dist;
#X connect 0 0 2 0;
#X connect 1 0 2 1;
#X connect 2 0 3 0;
#X connect 3 0 6 0;
#X connect 3 1 4 0;
#X connect 4 0 5 0;
#X connect 5 0 8 0;
#X connect 6 0 7 0;
#X restore 102 554 pd left-joystick-to-polar;
#X obj 692 513 line~;
#X obj 453 657 *~;
#X obj 109 45 cnv 19 265 170 empty empty empty 20 12 0 12 #404040 #404040 0;
#X obj 310 132 tgl 19 0 empty \$1-btn1 empty 0 -10 0 12 #fcfcfc #000000 #000000 0 1;
#X obj 291 113 tgl 19 0 empty \$1-btn2 empty 0 -10 0 12 #fcfcfc #000000 #000000 0 1;
#X obj 329 114 tgl 19 0 empty \$1-btn3 empty 0 -10 0 12 #fcfcfc #000000 #000000 0 1;
#X obj 310 95 tgl 19 0 empty \$1-btn4 empty 0 -10 0 12 #fcfcfc #000000 #000000 0 1;
#X obj 348 77 tgl 19 0 empty \$1-righttop-trig empty 0 -10 0 12 #fcfcfc #000000 #000000 0 1;
#X obj 348 52 tgl 19 0 empty \$1-rightbottom-trig empty 0 -10 0 12 #fcfcfc #000000 #000000 0 1;
#X obj 115 77 tgl 19 0 empty \$1-lefttop-trig empty 0 -10 0 12 #fcfcfc #000000 #000000 0 1;
#X obj 115 52 tgl 19 0 empty \$1-leftbottom-trig empty 0 -10 0 12 #fcfcfc #000000 #000000 0 1;
#X obj 198 145 tgl 14 0 empty \$1-cross-up empty 0 -10 0 12 #fcfcfc #000000 #000000 0 1;
#X obj 222 169 tgl 14 0 empty \$1-cross-right empty 0 -10 0 12 #fcfcfc #000000 #000000 0 1;
#X obj 198 193 tgl 14 0 empty \$1-cross-down empty 0 -10 0 12 #fcfcfc #000000 #000000 0 1;
#X obj 174 169 tgl 14 0 empty \$1-cross-left empty 0 -10 0 12 #fcfcfc #000000 #000000 0 1;
#X obj 179 150 tgl 14 0 empty \$1-cross-upleft empty 0 -10 0 12 #fcfcfc #000000 #000000 0 1;
#X obj 217 150 tgl 14 0 empty \$1-cross-upright empty 0 -10 0 12 #fcfcfc #000000 #000000 0 1;
#X obj 218 188 tgl 14 0 empty \$1-cross-downright empty 0 -10 0 12 #fcfcfc #000000 #000000 0 1;
#X obj 178 188 tgl 14 0 empty \$1-cross-downleft empty 0 -10 0 12 #fcfcfc #000000 #000000 0 1;
#X obj 139 116 hsl 48 14 -1 1 0 0 empty \$1-left-joystick-x empty -2 -10 0 12 #fcfcfc #000000 #000000 0 1;
#X obj 156 99 vsl 14 48 -1 1 0 0 empty \$1-left-joystick-y empty 0 -9 0 12 #fcfcfc #000000 #000000 0 1;
#X obj 156 116 tgl 14 0 empty \$1-left-joystick-btn empty 0 -10 0 12 #fcfcfc #000000 #000000 0 1;
#X obj 253 169 hsl 48 14 -1 1 0 0 empty \$1-right-joystick-x empty -2 -10 0 12 #fcfcfc #000000 #000000 0 1;
#X obj 270 152 vsl 14 48 -1 1 0 0 empty \$1-right-joystick-y empty 0 -9 0 12 #fcfcfc #000000 #000000 0 1;
#X obj 270 169 tgl 14 0 empty \$1-right-joystick-btn empty 0 -10 0 12 #fcfcfc #000000 #000000 0 1;
#X obj 256 79 tgl 12 0 empty \$1-start-btn empty 0 -10 0 12 #fcfcfc #000000 #000000 0 1;
#X obj 208 79 tgl 12 0 empty \$1-select-btn empty 0 -10 0 12 #fcfcfc #000000 #000000 0 1;
#X obj 453 537 tabread4~ \$1;
#X obj 1050 127 unpack f f;
#X obj 1117 151 * 0.001;
#X obj 1082 199 /;
#X obj 1082 224 t f f;
#X obj 1082 250 swap 1;
#X obj 1082 274 /;
#X obj 850 326 s \$0-snd-samples-samplerate;
#X obj 1050 101 r \$0-snd-samples-samplerate;
#X obj 1128 224 s \$0-snd-duration;
#X obj 1083 355 s \$0-snd-phasor-control-freq;
#X obj 1050 152 t f f;
#X obj 1050 326 s \$0-snd-samples;
#X obj 453 437 r \$0-snd-phasor-control-freq;
#X obj 514 464 r \$0-snd-samples;
#X obj 453 506 *~ 1;
#X floatatom 538 495 15 0 0 0 - - - 0;
#X obj 1082 300 * 1000;
#X obj 676 310 tgl 19 0 empty empty empty 0 -10 0 12 #fcfcfc #000000 #000000 0 1;
#X obj 676 336 sel 0 1;
#N canvas 760 506 809 359 reverb 0;
#X obj 65 117 freeverb~;
#X obj 65 61 inlet~;
#X obj 65 201 outlet~;
#X obj 125 201 outlet~;
#X msg 262 64 roomsize \$1;
#X msg 262 86 damping \$1;
#X msg 262 108 width \$1;
#X msg 262 130 wet \$1;
#X msg 262 152 dry \$1;
#X msg 262 174 print;
#X msg 262 196 freeze \$1;
#X msg 262 218 bypass \$1;
#X text 325 173 - print the current values of the above parameters;
#X text 338 196 - start/stop freeze of reverb tail \, using 1 or 0;
#X text 342 217 - bypass the reverb processing \, using a 1 or 0;
#X text 323 151 - level of unprocessed signal \, between 0 and 1 (default: 0);
#X text 327 130 - level of reverbed signal \, between 0 and 1 (default: 0.3);
#X text 349 85 - amount of damping of room's surfaces (default: 0.5);
#X text 331 109 - stereo width of reverb (default: 1);
#X text 353 63 - size of the room to be simulated (default=0.85);
#X floatatom 222 64 5 0 1 0 - - - 0;
#X floatatom 222 86 5 0 1 0 - - - 0;
#X floatatom 222 108 5 0 1 0 - - - 0;
#X floatatom 222 130 5 0 1 0 - - - 0;
#X floatatom 222 152 5 0 1 0 - - - 0;
#X obj 240 196 tgl 19 0 empty empty empty 0 -10 0 12 #fcfcfc #000000 #000000 0 1;
#X obj 240 218 tgl 19 0 empty empty empty 0 -10 0 12 #fcfcfc #000000 #000000 0 1;
#X obj 302 277 t a;
#X obj 197 25 loadbang;
#X msg 187 75 1;
#X msg 187 114 0.5;
#X obj 432 301 t f f;
#X obj 464 326 expr 1 - $f1;
#X obj 435 275 hsl 162 19 0 1 0 0 empty empty empty -2 -10 0 12 #fcfcfc #000000 #000000 0 0;
#X connect 0 0 2 0;
#X connect 0 1 3 0;
#X connect 1 0 0 0;
#X connect 1 0 0 1;
#X connect 4 0 27 0;
#X connect 5 0 27 0;
#X connect 6 0 27 0;
#X connect 7 0 27 0;
#X connect 8 0 27 0;
#X connect 9 0 27 0;
#X connect 10 0 27 0;
#X connect 11 0 27 0;
#X connect 20 0 4 0;
#X connect 21 0 5 0;
#X connect 22 0 6 0;
#X connect 23 0 7 0;
#X connect 24 0 8 0;
#X connect 25 0 10 0;
#X connect 26 0 11 0;
#X connect 27 0 0 0;
#X connect 28 0 29 0;
#X connect 28 0 30 0;
#X connect 29 0 20 0;
#X connect 29 0 21 0;
#X connect 30 0 22 0;
#X connect 30 0 23 0;
#X connect 31 0 23 0;
#X connect 31 1 32 0;
#X connect 32 0 24 0;
#X connect 33 0 31 0;
#X restore 453 733 pd reverb;
#X obj 623 818 *~;
#X obj 709 366 t b b;
#X msg 741 389 0;
#X msg 692 486 \$1 10;
#X msg 709 457 1;
#X msg 676 457 0;
#X obj 676 284 r \$1-righttop-trig;
#X connect 0 0 9 0;
#X connect 0 1 8 0;
#X connect 1 0 4 0;
#X connect 3 0 5 0;
#X connect 4 0 3 0;
#X connect 4 1 5 1;
#X connect 5 0 6 0;
#X connect 6 0 0 0;
#X connect 7 0 1 0;
#X connect 8 0 9 1;
#X connect 9 0 66 0;
#X connect 10 0 74 0;
#X connect 11 0 18 0;
#X connect 12 0 15 0;
#X connect 13 0 15 1;
#X connect 14 0 12 0;
#X connect 14 1 13 0;
#X connect 15 0 17 0;
#X connect 16 0 14 0;
#X connect 17 0 11 0;
#X connect 18 0 20 0;
#X connect 18 1 21 0;
#X connect 18 2 22 0;
#X connect 18 3 23 0;
#X connect 18 4 23 1;
#X connect 18 5 24 0;
#X connect 18 6 24 1;
#X connect 19 0 11 0;
#X connect 25 0 29 1;
#X connect 25 0 80 1;
#X connect 26 0 25 0;
#X connect 27 0 26 0;
#X connect 29 0 28 1;
#X connect 30 0 79 0;
#X connect 32 0 33 1;
#X connect 33 0 30 0;
#X connect 59 0 33 0;
#X connect 60 0 70 0;
#X connect 60 1 61 0;
#X connect 61 0 62 1;
#X connect 62 0 63 0;
#X connect 63 0 64 0;
#X connect 63 1 68 0;
#X connect 64 0 65 0;
#X connect 64 1 65 1;
#X connect 65 0 76 0;
#X connect 67 0 60 0;
#X connect 70 0 71 0;
#X connect 70 1 62 0;
#X connect 72 0 10 0;
#X connect 73 0 74 1;
#X connect 73 0 75 0;
#X connect 74 0 59 0;
#X connect 76 0 69 0;
#X connect 77 0 78 0;
#X connect 78 0 85 0;
#X connect 78 1 81 0;
#X connect 79 0 80 0;
#X connect 79 1 29 0;
#X connect 80 0 28 0;
#X connect 81 0 84 0;
#X connect 81 1 82 0;
#X connect 82 0 10 1;
#X connect 83 0 32 0;
#X connect 84 0 83 0;
#X connect 85 0 83 0;
#X connect 86 0 77 0;
