#N canvas 112 83 1121 429 12;
#X obj 747 299 phasor~;
#X obj 936 437 line~;
#X msg 936 413 \$1 10;
#N canvas 272 43 762 662 joystick-controlled-filters 0;
#X obj 94 576 *~ 1;
#X obj 251 353 jl/bibi~ lowpass;
#X obj 304 378 jl/bibi~ highpass;
#X obj 502 304 jl/bibi~ bandpass;
#X msg 524 419 Q \$1;
#X floatatom 524 397 5 0 0 0 - - - 0;
#N canvas 711 236 331 378 split~ 0;
#X obj 48 37 inlet~;
#X obj 142 119 expr 1 - $f1;
#X obj 142 93 t f f;
#X obj 158 39 inlet;
#X obj 88 214 *~;
#X obj 149 213 *~;
#X obj 111 185 line~;
#X obj 171 185 line~;
#X obj 74 284 outlet~;
#X obj 144 284 outlet~;
#X msg 111 161 \$1 50;
#X msg 171 161 \$1 50;
#X connect 0 0 4 0;
#X connect 0 0 5 0;
#X connect 1 0 10 0;
#X connect 2 0 1 0;
#X connect 2 1 11 0;
#X connect 3 0 2 0;
#X connect 4 0 8 0;
#X connect 5 0 9 0;
#X connect 6 0 4 1;
#X connect 7 0 5 1;
#X connect 10 0 6 0;
#X connect 11 0 7 0;
#X restore 94 174 pd split~;
#N canvas 1035 295 331 378 split~ 0;
#X obj 48 37 inlet~;
#X obj 142 119 expr 1 - $f1;
#X obj 142 93 t f f;
#X obj 158 39 inlet;
#X obj 88 214 *~;
#X obj 149 213 *~;
#X obj 111 185 line~;
#X obj 171 185 line~;
#X obj 74 284 outlet~;
#X obj 144 284 outlet~;
#X msg 111 161 \$1 50;
#X msg 171 161 \$1 50;
#X connect 0 0 4 0;
#X connect 0 0 5 0;
#X connect 1 0 10 0;
#X connect 2 0 1 0;
#X connect 2 1 11 0;
#X connect 3 0 2 0;
#X connect 4 0 8 0;
#X connect 5 0 9 0;
#X connect 6 0 4 1;
#X connect 7 0 5 1;
#X connect 10 0 6 0;
#X connect 11 0 7 0;
#X restore 259 318 pd split~;
#N canvas 906 295 331 378 split~ 0;
#X obj 48 37 inlet~;
#X obj 142 119 expr 1 - $f1;
#X obj 142 93 t f f;
#X obj 158 39 inlet;
#X obj 88 214 *~;
#X obj 149 213 *~;
#X obj 111 185 line~;
#X msg 111 161 \$1 10;
#X obj 171 185 line~;
#X msg 171 161 \$1 10;
#X obj 74 284 outlet~;
#X obj 144 284 outlet~;
#X connect 0 0 4 0;
#X connect 0 0 5 0;
#X connect 1 0 7 0;
#X connect 2 0 1 0;
#X connect 2 1 9 0;
#X connect 3 0 2 0;
#X connect 4 0 10 0;
#X connect 5 0 11 0;
#X connect 6 0 4 1;
#X connect 7 0 6 0;
#X connect 8 0 5 1;
#X connect 9 0 8 0;
#X restore 206 207 pd split~;
#X msg 635 330 Q \$1;
#X floatatom 635 308 5 0 0 0 - - - 0;
#X msg 474 208 reset;
#X obj 502 278 *~ 2;
#X obj 94 62 inlet~;
#X obj 374 87 / 3.14159;
#X obj 94 602 outlet~;
#N canvas 469 185 710 520 low-high-pass-control 0;
#X floatatom 180 83 15 0 0 0 - - - 0;
#X floatatom 423 89 5 0 0 0 - - - 0;
#X obj 422 43 loadbang;
#X obj 173 59 expr fmod($f1 + 1 + $f2 \, 2) - 1;
#X msg 423 66 1;
#X obj 173 106 clip -0.5 0.5;
#X obj 375 327 mtof;
#X obj 402 218 moses 0;
#X msg 375 351 cutoff \$1;
#X obj 508 326 mtof;
#X msg 508 350 cutoff \$1;
#X obj 221 151 t f f;
#X obj 68 262 clip -0.1 0.1;
#X obj 68 289 expr 1 - ($f1 * 5 + 0.5);
#X text 40 237 fade between full range lowpass and highpass;
#X obj 173 25 inlet;
#X obj 68 427 outlet to-high-low-pass-split;
#X obj 376 427 outlet to-lowpass;
#X obj 510 427 outlet to-highpass;
#X text 392 187 frequency controls;
#X text 451 327 lowpass;
#X text 311 327 highpass;
#X obj 318 391 line;
#X obj 589 388 line;
#X obj 375 273 expr $f1 * -2 * 92 + 24;
#X obj 508 241 expr (1 - $f1 * 2) * 92 + 24;
#X msg 318 366 \$1 50;
#X msg 589 363 \$1 50;
#X connect 1 0 3 1;
#X connect 2 0 4 0;
#X connect 3 0 0 0;
#X connect 3 0 5 0;
#X connect 4 0 1 0;
#X connect 5 0 11 0;
#X connect 6 0 8 0;
#X connect 7 0 24 0;
#X connect 7 1 25 0;
#X connect 8 0 18 0;
#X connect 9 0 10 0;
#X connect 10 0 17 0;
#X connect 11 0 12 0;
#X connect 11 1 7 0;
#X connect 12 0 13 0;
#X connect 13 0 16 0;
#X connect 15 0 3 0;
#X connect 22 0 6 0;
#X connect 23 0 9 0;
#X connect 24 0 26 0;
#X connect 25 0 27 0;
#X connect 26 0 22 0;
#X connect 27 0 23 0;
#X restore 277 143 pd low-high-pass-control;
#N canvas 516 95 763 517 bandpass-control 0;
#X floatatom 281 109 15 0 0 0 - - - 0;
#X obj 162 266 clip 0.4 0.6;
#X obj 162 290 expr 1 - ($f1 - 0.4) * 5;
#X obj 162 314 clip 0 1;
#X obj 162 242 abs;
#X obj 274 131 t f f;
#X obj 438 242 clip -0.5 0.5;
#X msg 438 400 cutoff \$1;
#X obj 438 376 mtof;
#X obj 274 85 expr fmod($f1 + 1 + $f2 \, 2) - 1;
#X floatatom 516 102 5 0 0 0 - - - 0;
#X obj 516 56 loadbang;
#X msg 516 79 0;
#X text 67 214 fades between low/highpasses and bandpass;
#X text 435 218 bandpass frequency control;
#X obj 274 40 inlet;
#X obj 162 430 outlet to-lowhigh-vs-bandpass-xfades;
#X obj 438 429 outlet to-bandpass;
#X obj 438 266 expr ($f1 + 0.5) * 92 + 24;
#X obj 438 333 line;
#X msg 438 308 \$1 50;
#X connect 1 0 2 0;
#X connect 2 0 3 0;
#X connect 3 0 16 0;
#X connect 4 0 1 0;
#X connect 5 0 4 0;
#X connect 5 1 6 0;
#X connect 6 0 18 0;
#X connect 7 0 17 0;
#X connect 8 0 7 0;
#X connect 9 0 5 0;
#X connect 9 0 0 0;
#X connect 10 0 9 1;
#X connect 11 0 12 0;
#X connect 12 0 10 0;
#X connect 15 0 9 0;
#X connect 18 0 20 0;
#X connect 19 0 8 0;
#X connect 20 0 19 0;
#X restore 462 145 pd bandpass-control;
#X obj 374 112 t f f;
#X obj 619 179 loadbang;
#X obj 195 87 clip 0 1;
#X obj 195 62 r \$0-filterctl-dist;
#X obj 374 62 r \$0-filterctl-angle;
#X obj 195 112 pow 0.75;
#X msg 619 205 1;
#X connect 0 0 15 0;
#X connect 1 0 0 0;
#X connect 2 0 0 0;
#X connect 3 0 0 0;
#X connect 4 0 2 0;
#X connect 4 0 1 0;
#X connect 5 0 4 0;
#X connect 6 0 0 0;
#X connect 6 1 8 0;
#X connect 7 0 1 0;
#X connect 7 1 2 0;
#X connect 8 0 7 0;
#X connect 8 1 12 0;
#X connect 9 0 3 0;
#X connect 10 0 9 0;
#X connect 11 0 1 0;
#X connect 11 0 2 0;
#X connect 11 0 3 0;
#X connect 12 0 3 0;
#X connect 13 0 6 0;
#X connect 14 0 18 0;
#X connect 16 0 7 1;
#X connect 16 1 1 0;
#X connect 16 2 2 0;
#X connect 17 0 8 1;
#X connect 17 1 3 0;
#X connect 18 0 16 0;
#X connect 18 1 17 0;
#X connect 19 0 24 0;
#X connect 20 0 23 0;
#X connect 21 0 20 0;
#X connect 22 0 14 0;
#X connect 23 0 6 1;
#X connect 24 0 10 0;
#X connect 24 0 5 0;
#X restore 747 484 pd joystick-controlled-filters;
#X obj 986 317 line~;
#X obj 747 459 *~;
#X obj 747 372 tabread4~ \$1;
#X obj 461 476 unpack f f;
#X obj 528 500 * 0.001;
#X obj 493 548 /;
#X obj 493 573 t f f;
#X obj 493 599 swap 1;
#X obj 493 623 /;
#X obj 461 450 r \$0-snd-samples-samplerate;
#X obj 539 573 s \$0-snd-duration;
#X obj 494 704 s \$0-snd-phasor-control-freq;
#X obj 461 501 t f f;
#X obj 461 675 s \$0-snd-samples;
#X obj 747 92 r \$0-snd-phasor-control-freq;
#X obj 808 299 r \$0-snd-samples;
#X obj 747 341 *~ 1;
#X floatatom 832 330 15 0 0 0 - - - 0;
#X obj 493 649 * 1000;
#X obj 970 140 sel 0 1;
#X obj 747 511 *~;
#X obj 1003 170 t b b;
#X msg 1035 193 0;
#X msg 986 290 \$1 10;
#X msg 1003 261 1;
#X msg 970 261 0;
#X obj 280 265 route dist angle;
#X obj 54 158 inlet control;
#X obj 190 564 text get \$2;
#X obj 149 467 text size \$2;
#X obj 280 313 s \$0-filterctl-dist;
#X obj 334 289 s \$0-filterctl-angle;
#X obj 191 588 list split 1;
#X obj 231 612 s \$0-snd-samples-samplerate;
#X obj 144 515 - 1;
#X obj 96 491 clip 1 1;
#X obj 96 515 t f f;
#X msg 53 586 set \$1;
#X obj 149 383 r \$2-soundbank-msgs-out;
#X obj 149 407 select read;
#X obj 747 195 * 1;
#X obj 747 274 line~;
#X obj 758 165 t b f;
#X obj 758 141 expr exp($f1*0.057762265);
#N canvas 215 615 450 300 pan 0;
#X obj 114 33 inlet~;
#X obj 189 57 clip 0 1;
#X obj 189 81 t f f;
#X obj 114 245 outlet~;
#X obj 172 246 outlet~;
#X obj 114 215 *~;
#X obj 132 191 line~;
#X msg 132 168 \$1 5;
#X obj 172 215 *~;
#X obj 190 191 line~;
#X msg 190 168 \$1 5;
#X obj 189 33 inlet;
#X obj 168 108 expr cos($f1 * 1.5708);
#X obj 202 133 expr sin($f1 * 1.5708);
#X connect 0 0 5 0;
#X connect 0 0 8 0;
#X connect 1 0 2 0;
#X connect 2 0 12 0;
#X connect 2 1 13 0;
#X connect 5 0 3 0;
#X connect 6 0 5 1;
#X connect 7 0 6 0;
#X connect 8 0 4 0;
#X connect 9 0 8 1;
#X connect 10 0 9 0;
#X connect 11 0 1 0;
#X connect 12 0 7 0;
#X connect 13 0 10 0;
#X restore 747 566 pd pan;
#N canvas 314 239 822 443 reverbere 0;
#X obj 131 253 freeverb~;
#X obj 57 74 inlet~;
#X obj 59 328 outlet~;
#X obj 119 328 outlet~;
#X msg 276 150 roomsize \$1;
#X msg 276 172 damping \$1;
#X msg 276 194 width \$1;
#X msg 276 216 wet \$1;
#X msg 276 238 dry \$1;
#X msg 276 260 print;
#X msg 276 282 freeze \$1;
#X msg 276 304 bypass \$1;
#X text 339 259 - print the current values of the above parameters;
#X text 352 282 - start/stop freeze of reverb tail \, using 1 or 0;
#X text 356 303 - bypass the reverb processing \, using a 1 or 0;
#X text 337 237 - level of unprocessed signal \, between 0 and 1 (default: 0);
#X text 341 216 - level of reverbed signal \, between 0 and 1 (default: 0.3);
#X text 363 171 - amount of damping of room's surfaces (default: 0.5);
#X text 345 195 - stereo width of reverb (default: 1);
#X text 367 149 - size of the room to be simulated (default=0.85);
#X floatatom 236 150 5 0 1 0 - - - 0;
#X floatatom 236 172 5 0 1 0 - - - 0;
#X floatatom 236 194 5 0 1 0 - - - 0;
#X floatatom 236 216 5 0 1 0 - - - 0;
#X floatatom 236 238 5 0 1 0 - - - 0;
#X obj 254 282 tgl 19 0 empty empty empty 0 -10 0 12 #fcfcfc #000000 #000000 0 1;
#X obj 254 304 tgl 19 0 empty empty empty 0 -10 0 12 #fcfcfc #000000 #000000 0 1;
#X obj 316 363 t a;
#X obj 220 109 loadbang;
#X msg 196 173 1;
#X msg 189 203 0.5;
#X obj 364 84 t f f;
#X obj 396 109 expr 1 - $f1;
#X obj 367 58 hsl 162 19 0 1 0 0 empty empty empty -2 -10 0 12 #fcfcfc #000000 #000000 0 0;
#X obj 117 74 inlet~;
#N canvas 1090 429 381 373 drywet 0;
#X obj 103 252 *~;
#X obj 91 34 inlet~;
#X obj 133 252 *~;
#X obj 176 252 *~;
#X obj 164 34 inlet~;
#X obj 206 252 *~;
#X obj 73 321 outlet~;
#X obj 189 321 outlet~;
#X obj 129 321 outlet~;
#X obj 245 321 outlet~;
#X obj 235 34 inlet;
#X obj 208 102 swap 1;
#X obj 208 127 -;
#X obj 235 73 t f f;
#X obj 208 173 line~;
#X obj 251 173 line~;
#X msg 208 150 \$1 5;
#X msg 251 150 \$1 5;
#X connect 0 0 6 0;
#X connect 1 0 0 0;
#X connect 1 0 2 0;
#X connect 2 0 7 0;
#X connect 3 0 8 0;
#X connect 4 0 3 0;
#X connect 4 0 5 0;
#X connect 5 0 9 0;
#X connect 10 0 13 0;
#X connect 11 0 12 0;
#X connect 11 1 12 1;
#X connect 12 0 16 0;
#X connect 13 0 11 0;
#X connect 13 1 17 0;
#X connect 14 0 0 1;
#X connect 14 0 3 1;
#X connect 15 0 2 1;
#X connect 15 0 5 1;
#X connect 16 0 14 0;
#X connect 17 0 15 0;
#X restore 66 192 pd drywet;
#X obj 181 72 inlet;
#X obj 124 163 clip 0 1;
#X floatatom 291 125 5 0 1 0 - - - 0;
#X msg 292 96 0.8;
#X obj 169 400 *~;
#X obj 205 397 *~;
#X msg 235 336 0.33;
#X obj 218 362 sig~ 0.33;
#X connect 0 0 2 0;
#X connect 0 1 3 0;
#X connect 1 0 35 0;
#X connect 4 0 27 0;
#X connect 5 0 27 0;
#X connect 6 0 27 0;
#X connect 7 0 27 0;
#X connect 8 0 27 0;
#X connect 9 0 27 0;
#X connect 10 0 27 0;
#X connect 11 0 27 0;
#X connect 20 0 4 0;
#X connect 21 0 5 0;
#X connect 22 0 6 0;
#X connect 23 0 7 0;
#X connect 24 0 8 0;
#X connect 25 0 10 0;
#X connect 26 0 11 0;
#X connect 27 0 0 0;
#X connect 28 0 29 0;
#X connect 28 0 30 0;
#X connect 28 0 39 0;
#X connect 29 0 21 0;
#X connect 29 0 23 0;
#X connect 30 0 22 0;
#X connect 31 0 23 0;
#X connect 31 1 32 0;
#X connect 32 0 24 0;
#X connect 33 0 31 0;
#X connect 34 0 35 1;
#X connect 35 0 2 0;
#X connect 35 1 3 0;
#X connect 35 2 40 0;
#X connect 35 3 41 0;
#X connect 36 0 37 0;
#X connect 37 0 35 2;
#X connect 38 0 4 0;
#X connect 39 0 38 0;
#X connect 40 0 0 0;
#X connect 41 0 0 1;
#X connect 42 0 43 0;
#X connect 43 0 40 1;
#X connect 43 0 41 1;
#X restore 750 638 pd reverbere;
#X obj 144 539 change -1;
#X msg 144 684 set \$1;
#X obj 144 564 t f f;
#X obj 144 660 makefilename \$2-%i;
#X obj 532 318 s \$0-filterctl-dist;
#X msg 532 294 0;
#X obj 747 224 * 1;
#X obj 799 195 t b f;
#X obj 855 202 sel 0 1;
#X msg 855 227 1;
#X msg 889 227 -1;
#X obj 855 177 r \$0-reverse-o;
#X obj 758 117 r \$0-pitch-o;
#X obj 970 116 r \$0-play-o;
#X obj 54 311 s \$0-play-i;
#X obj 110 288 s \$0-pitch-i;
#X obj 223 242 s \$0-panning-i;
#X obj 191 635 s \$0-soundfilename-i;
#X obj 96 360 r \$0-soundindex-o;
#X obj 53 611 s \$0-soundindex-i;
#X obj 993 396 r \$0-volume-o;
#X obj 818 516 r \$0-panning-o;
#X msg 747 250 \$1 20;
#X obj 852 548 r \$0-reverbe-o;
#X obj 167 265 s \$0-reverse-i;
#X obj 747 696 send~ \$1-left-output;
#X obj 834 668 send~ \$1-right-output;
#X obj 532 270 loadbang;
#X obj 144 708 s \$0-to-tabread;
#X obj 761 396 r \$0-to-tabread;
#X obj 336 242 s \$0-reverbe-o;
#X obj 30 30 cnv 19 470 93 empty empty \$1 415 12 0 12 #e0e0e0 #404040 0;
#X obj 33 75 tgl 45 0 \$0-play-o \$0-play-i empty 0 -10 0 12 #fcfcfc #000000 #000000 0 1;
#X floatatom 33 33 3 0 0 1 sound \$0-soundindex-i \$0-soundindex-o 12;
#X symbolatom 33 54 66 0 0 0 - \$0-soundfilename-i \$0-soundfilename-o 0;
#X floatatom 81 75 5 0 0 0 - \$0-pitch-i \$0-pitch-o 36;
#X obj 247 75 hsl 248 21 0 1 0 0 \$0-panning-o \$0-panning-i empty -2 -10 0 12 #fcfcfc #000000 #000000 0 0;
#X obj 247 99 hsl 248 21 -70 12 0 0 \$0-volume-o \$0-volume-i empty -2 -10 0 12 #fcfcfc #000000 #000000 0 0;
#X obj 196 75 tgl 45 0 \$0-reverse-o \$0-reverse-i empty 0 -10 0 12 #fcfcfc #000000 #000000 0 1;
#X text 367 75 |;
#X obj 264 474 loadbang;
#X msg 264 498 1;
#X obj 264 522 s \$0-soundindex-i;
#X obj 532 347 loadbang;
#X obj 532 395 s \$0-panning-i;
#X msg 532 371 0.5;
#X obj 149 434 t b b;
#X obj 192 434 s \$0-soundindex-i;
#X obj 566 294 s \$0-reverbe-o;
#X obj 71 187 r \$1-controls;
#X obj 54 217 route play pitch reverse panning filterctl reverbe volume;
#X obj 461 228 s \$0-volume-i;
#X obj 993 442 dbtorms;
#X obj 993 419 + 100;
#X text 453 99 |;
#X obj 461 205 clip -70 12;
#X obj 96 435 t f f;
#X obj 747 433 hip~ 10;
#X obj 747 537 hip~ 10;
#X connect 0 0 20 0;
#X connect 1 0 24 1;
#X connect 2 0 1 0;
#X connect 3 0 24 0;
#X connect 4 0 5 1;
#X connect 5 0 3 0;
#X connect 6 0 107 0;
#X connect 7 0 16 0;
#X connect 7 1 8 0;
#X connect 8 0 9 1;
#X connect 9 0 10 0;
#X connect 10 0 11 0;
#X connect 10 1 14 0;
#X connect 11 0 12 0;
#X connect 11 1 12 1;
#X connect 12 0 22 0;
#X connect 13 0 7 0;
#X connect 16 0 17 0;
#X connect 16 1 9 0;
#X connect 18 0 44 0;
#X connect 19 0 20 1;
#X connect 19 0 21 0;
#X connect 20 0 6 0;
#X connect 22 0 15 0;
#X connect 23 0 29 0;
#X connect 23 1 25 0;
#X connect 24 0 108 0;
#X connect 25 0 28 0;
#X connect 25 1 26 0;
#X connect 26 0 0 1;
#X connect 27 0 4 0;
#X connect 28 0 27 0;
#X connect 29 0 27 0;
#X connect 30 0 34 0;
#X connect 30 1 35 0;
#X connect 31 0 100 0;
#X connect 32 0 36 0;
#X connect 33 0 39 2;
#X connect 36 0 67 0;
#X connect 36 1 37 0;
#X connect 38 0 50 0;
#X connect 39 0 40 0;
#X connect 40 0 41 0;
#X connect 40 1 38 0;
#X connect 41 0 69 0;
#X connect 42 0 43 0;
#X connect 43 0 96 0;
#X connect 44 0 56 0;
#X connect 45 0 0 0;
#X connect 46 0 44 0;
#X connect 46 1 44 1;
#X connect 47 0 46 0;
#X connect 48 0 49 0;
#X connect 48 1 49 1;
#X connect 49 0 75 0;
#X connect 49 1 76 0;
#X connect 50 0 52 0;
#X connect 51 0 78 0;
#X connect 52 0 53 0;
#X connect 52 1 32 0;
#X connect 53 0 51 0;
#X connect 55 0 54 0;
#X connect 55 0 98 0;
#X connect 56 0 72 0;
#X connect 57 0 56 0;
#X connect 57 1 56 1;
#X connect 58 0 59 0;
#X connect 58 1 60 0;
#X connect 59 0 57 0;
#X connect 60 0 57 0;
#X connect 61 0 58 0;
#X connect 62 0 47 0;
#X connect 63 0 23 0;
#X connect 68 0 106 0;
#X connect 70 0 103 0;
#X connect 71 0 48 1;
#X connect 72 0 45 0;
#X connect 73 0 49 2;
#X connect 77 0 55 0;
#X connect 79 0 6 0;
#X connect 90 0 91 0;
#X connect 91 0 92 0;
#X connect 93 0 95 0;
#X connect 95 0 94 0;
#X connect 96 0 33 0;
#X connect 96 1 97 0;
#X connect 99 0 100 0;
#X connect 100 0 64 0;
#X connect 100 1 65 0;
#X connect 100 2 74 0;
#X connect 100 3 66 0;
#X connect 100 4 30 0;
#X connect 100 5 80 0;
#X connect 100 6 105 0;
#X connect 102 0 2 0;
#X connect 103 0 102 0;
#X connect 105 0 101 0;
#X connect 106 0 39 0;
#X connect 107 0 5 0;
#X connect 108 0 48 0;
#X coords 0 -1 1 1 470 93 2 30 30;
