#N canvas 17 50 472 904 12;
#X obj 113 250 hcs/folder_list;
#X obj 199 412 f;
#X obj 228 412 + 1;
#X floatatom 260 439 5 0 0 0 - - - 0;
#X obj 146 568 soundfiler;
#X obj 113 276 t s b;
#X msg 213 593 \$1;
#X obj 199 438 t f f f;
#X msg 266 283 -1;
#X msg 235 368 0;
#X obj 113 30 inlet;
#X obj 113 225 makefilename %s/*.wav;
#X obj 115 770 text define \$1;
#X obj 297 739 text set \$1;
#X obj 266 309 text delete \$1;
#X obj 113 78 t a b b;
#X obj 115 795 clone -s 0 soundbank-unit \$2 \$1;
#X obj 146 516 pack s s;
#X obj 199 463 makefilename \$1-%d;
#X msg 146 542 read -resize \$1 \$2;
#X obj 113 487 t s s;
#X obj 113 642 pack s f f;
#X obj 81 194 t b a;
#X obj 50 368 s \$1-soundbank-msgs-out;
#X msg 50 344 symbol read;
#N canvas 0 38 410 559 split-last-slash 0;
#X obj 98 103 list fromsymbol;
#X obj 195 282 list;
#X obj 117 146 list length;
#X obj 117 215 until;
#X obj 144 186 - 1;
#X obj 117 166 t f f;
#X obj 152 356 list split;
#X obj 180 375 list split 1;
#X obj 117 236 f;
#X obj 141 236 - 1;
#X obj 180 395 sel 47;
#X obj 117 256 t b f f;
#X obj 261 375 f;
#X obj 291 288 t b b;
#X obj 98 441 list split;
#X obj 98 123 t l l l;
#X obj 98 80 inlet;
#X obj 126 466 list tosymbol;
#X obj 126 491 outlet;
#X obj 261 394 + 1;
#X connect 0 0 15 0;
#X connect 1 0 6 0;
#X connect 2 0 5 0;
#X connect 3 0 8 0;
#X connect 4 0 8 1;
#X connect 5 0 3 0;
#X connect 5 1 4 0;
#X connect 6 1 7 0;
#X connect 7 0 10 0;
#X connect 8 0 9 0;
#X connect 8 0 11 0;
#X connect 9 0 8 1;
#X connect 10 0 13 0;
#X connect 11 0 1 0;
#X connect 11 1 6 1;
#X connect 11 2 12 1;
#X connect 12 0 19 0;
#X connect 13 0 3 1;
#X connect 13 1 12 0;
#X connect 14 1 17 0;
#X connect 15 0 14 0;
#X connect 15 1 2 0;
#X connect 15 2 1 1;
#X connect 16 0 0 0;
#X connect 17 0 18 0;
#X connect 19 0 14 1;
#X restore 113 617 pd split-last-slash;
#X connect 0 0 5 0;
#X connect 1 0 2 0;
#X connect 1 0 7 0;
#X connect 2 0 1 1;
#X connect 4 0 21 1;
#X connect 4 1 6 0;
#X connect 5 0 20 0;
#X connect 5 1 1 0;
#X connect 6 0 21 2;
#X connect 7 0 18 0;
#X connect 7 1 13 1;
#X connect 7 2 3 0;
#X connect 8 0 14 0;
#X connect 9 0 1 1;
#X connect 10 0 15 0;
#X connect 11 0 0 0;
#X connect 15 0 22 0;
#X connect 15 1 9 0;
#X connect 15 2 8 0;
#X connect 17 0 19 0;
#X connect 18 0 17 1;
#X connect 19 0 4 0;
#X connect 20 0 25 0;
#X connect 20 1 17 0;
#X connect 21 0 13 0;
#X connect 22 0 24 0;
#X connect 22 1 11 0;
#X connect 24 0 23 0;
#X connect 25 0 21 0;
