#N canvas 498 79 1151 700 10;
#X obj 767 254 phasor~;
#X obj 956 392 line~;
#X msg 956 368 \$1 10;
#N canvas 272 43 762 662 joystick-controlled-filters 0;
#X obj 94 576 *~ 1;
#X obj 251 353 jl/bibi~ lowpass;
#X obj 304 378 jl/bibi~ highpass;
#X obj 502 304 jl/bibi~ bandpass;
#X msg 524 419 Q \$1;
#X floatatom 524 397 5 0 0 0 - - - 0;
#N canvas 711 236 331 378 split~ 0;
#X obj 48 37 inlet~;
#X obj 142 119 expr 1 - $f1;
#X obj 142 93 t f f;
#X obj 158 39 inlet;
#X obj 88 214 *~;
#X obj 149 213 *~;
#X obj 111 185 line~;
#X obj 171 185 line~;
#X obj 74 284 outlet~;
#X obj 144 284 outlet~;
#X msg 111 161 \$1 50;
#X msg 171 161 \$1 50;
#X connect 0 0 4 0;
#X connect 0 0 5 0;
#X connect 1 0 10 0;
#X connect 2 0 1 0;
#X connect 2 1 11 0;
#X connect 3 0 2 0;
#X connect 4 0 8 0;
#X connect 5 0 9 0;
#X connect 6 0 4 1;
#X connect 7 0 5 1;
#X connect 10 0 6 0;
#X connect 11 0 7 0;
#X restore 94 174 pd split~;
#N canvas 1035 295 331 378 split~ 0;
#X obj 48 37 inlet~;
#X obj 142 119 expr 1 - $f1;
#X obj 142 93 t f f;
#X obj 158 39 inlet;
#X obj 88 214 *~;
#X obj 149 213 *~;
#X obj 111 185 line~;
#X obj 171 185 line~;
#X obj 74 284 outlet~;
#X obj 144 284 outlet~;
#X msg 111 161 \$1 50;
#X msg 171 161 \$1 50;
#X connect 0 0 4 0;
#X connect 0 0 5 0;
#X connect 1 0 10 0;
#X connect 2 0 1 0;
#X connect 2 1 11 0;
#X connect 3 0 2 0;
#X connect 4 0 8 0;
#X connect 5 0 9 0;
#X connect 6 0 4 1;
#X connect 7 0 5 1;
#X connect 10 0 6 0;
#X connect 11 0 7 0;
#X restore 259 318 pd split~;
#N canvas 906 295 331 378 split~ 0;
#X obj 48 37 inlet~;
#X obj 142 119 expr 1 - $f1;
#X obj 142 93 t f f;
#X obj 158 39 inlet;
#X obj 88 214 *~;
#X obj 149 213 *~;
#X obj 111 185 line~;
#X msg 111 161 \$1 10;
#X obj 171 185 line~;
#X msg 171 161 \$1 10;
#X obj 74 284 outlet~;
#X obj 144 284 outlet~;
#X connect 0 0 4 0;
#X connect 0 0 5 0;
#X connect 1 0 7 0;
#X connect 2 0 1 0;
#X connect 2 1 9 0;
#X connect 3 0 2 0;
#X connect 4 0 10 0;
#X connect 5 0 11 0;
#X connect 6 0 4 1;
#X connect 7 0 6 0;
#X connect 8 0 5 1;
#X connect 9 0 8 0;
#X restore 206 207 pd split~;
#X msg 635 330 Q \$1;
#X floatatom 635 308 5 0 0 0 - - - 0;
#X msg 474 208 reset;
#X obj 502 278 *~ 2;
#X obj 94 62 inlet~;
#X obj 94 602 outlet~;
#N canvas 469 185 710 520 low-high-pass-control 0;
#X floatatom 180 83 15 0 0 0 - - - 0;
#X floatatom 423 89 5 0 0 0 - - - 0;
#X obj 422 43 loadbang;
#X obj 173 59 expr fmod($f1 + 1 + $f2 \, 2) - 1;
#X msg 423 66 1;
#X obj 173 106 clip -0.5 0.5;
#X obj 375 327 mtof;
#X obj 402 218 moses 0;
#X msg 375 351 cutoff \$1;
#X obj 508 326 mtof;
#X msg 508 350 cutoff \$1;
#X obj 221 151 t f f;
#X obj 68 262 clip -0.1 0.1;
#X obj 68 289 expr 1 - ($f1 * 5 + 0.5);
#X text 40 237 fade between full range lowpass and highpass;
#X obj 173 25 inlet;
#X obj 68 427 outlet to-high-low-pass-split;
#X obj 376 427 outlet to-lowpass;
#X obj 510 427 outlet to-highpass;
#X text 392 187 frequency controls;
#X text 451 327 lowpass;
#X text 311 327 highpass;
#X obj 318 391 line;
#X obj 589 388 line;
#X obj 375 273 expr $f1 * -2 * 92 + 24;
#X obj 508 241 expr (1 - $f1 * 2) * 92 + 24;
#X msg 318 366 \$1 50;
#X msg 589 363 \$1 50;
#X connect 1 0 3 1;
#X connect 2 0 4 0;
#X connect 3 0 0 0;
#X connect 3 0 5 0;
#X connect 4 0 1 0;
#X connect 5 0 11 0;
#X connect 6 0 8 0;
#X connect 7 0 24 0;
#X connect 7 1 25 0;
#X connect 8 0 18 0;
#X connect 9 0 10 0;
#X connect 10 0 17 0;
#X connect 11 0 12 0;
#X connect 11 1 7 0;
#X connect 12 0 13 0;
#X connect 13 0 16 0;
#X connect 15 0 3 0;
#X connect 22 0 6 0;
#X connect 23 0 9 0;
#X connect 24 0 26 0;
#X connect 25 0 27 0;
#X connect 26 0 22 0;
#X connect 27 0 23 0;
#X restore 277 143 pd low-high-pass-control;
#N canvas 516 95 763 517 bandpass-control 0;
#X floatatom 281 109 15 0 0 0 - - - 0;
#X obj 162 266 clip 0.4 0.6;
#X obj 162 290 expr 1 - ($f1 - 0.4) * 5;
#X obj 162 314 clip 0 1;
#X obj 162 242 abs;
#X obj 274 131 t f f;
#X obj 438 242 clip -0.5 0.5;
#X msg 438 400 cutoff \$1;
#X obj 438 376 mtof;
#X obj 274 85 expr fmod($f1 + 1 + $f2 \, 2) - 1;
#X floatatom 516 102 5 0 0 0 - - - 0;
#X obj 516 56 loadbang;
#X msg 516 79 0;
#X text 67 214 fades between low/highpasses and bandpass;
#X text 435 218 bandpass frequency control;
#X obj 274 40 inlet;
#X obj 162 430 outlet to-lowhigh-vs-bandpass-xfades;
#X obj 438 429 outlet to-bandpass;
#X obj 438 266 expr ($f1 + 0.5) * 92 + 24;
#X obj 438 333 line;
#X msg 438 308 \$1 50;
#X connect 1 0 2 0;
#X connect 2 0 3 0;
#X connect 3 0 16 0;
#X connect 4 0 1 0;
#X connect 5 0 4 0;
#X connect 5 1 6 0;
#X connect 6 0 18 0;
#X connect 7 0 17 0;
#X connect 8 0 7 0;
#X connect 9 0 5 0;
#X connect 9 0 0 0;
#X connect 10 0 9 1;
#X connect 11 0 12 0;
#X connect 12 0 10 0;
#X connect 15 0 9 0;
#X connect 18 0 20 0;
#X connect 19 0 8 0;
#X connect 20 0 19 0;
#X restore 462 145 pd bandpass-control;
#X obj 374 112 t f f;
#X obj 619 179 loadbang;
#X obj 195 87 clip 0 1;
#X obj 195 112 pow 0.75;
#X msg 619 205 1;
#X obj 195 62 r \$0-fdist-o;
#X obj 374 62 r \$0-fangle-o;
#X connect 0 0 14 0;
#X connect 1 0 0 0;
#X connect 2 0 0 0;
#X connect 3 0 0 0;
#X connect 4 0 2 0;
#X connect 4 0 1 0;
#X connect 5 0 4 0;
#X connect 6 0 0 0;
#X connect 6 1 8 0;
#X connect 7 0 1 0;
#X connect 7 1 2 0;
#X connect 8 0 7 0;
#X connect 8 1 12 0;
#X connect 9 0 3 0;
#X connect 10 0 9 0;
#X connect 11 0 1 0;
#X connect 11 0 2 0;
#X connect 11 0 3 0;
#X connect 12 0 3 0;
#X connect 13 0 6 0;
#X connect 15 0 7 1;
#X connect 15 1 1 0;
#X connect 15 2 2 0;
#X connect 16 0 8 1;
#X connect 16 1 3 0;
#X connect 17 0 15 0;
#X connect 17 1 16 0;
#X connect 18 0 21 0;
#X connect 19 0 20 0;
#X connect 20 0 6 1;
#X connect 21 0 10 0;
#X connect 21 0 5 0;
#X connect 22 0 19 0;
#X connect 23 0 17 0;
#X restore 767 439 pd joystick-controlled-filters;
#X obj 1006 272 line~;
#X obj 767 414 *~;
#X obj 439 383 unpack f f;
#X obj 506 407 * 0.001;
#X obj 471 455 /;
#X obj 471 480 t f f;
#X obj 471 506 swap 1;
#X obj 471 530 /;
#X obj 517 480 s \$0-snd-duration;
#X obj 472 611 s \$0-snd-phasor-control-freq;
#X obj 439 408 t f f;
#X obj 439 582 s \$0-snd-samples;
#X obj 767 47 r \$0-snd-phasor-control-freq;
#X obj 828 254 r \$0-snd-samples;
#X obj 767 296 *~ 1;
#X floatatom 852 285 15 0 0 0 - - - 0;
#X obj 471 556 * 1000;
#X obj 990 95 sel 0 1;
#X obj 767 466 *~;
#X obj 1023 125 t b b;
#X msg 1055 148 0;
#X msg 1006 245 \$1 10;
#X msg 1023 216 1;
#X msg 990 216 0;
#X obj 54 157 inlet control;
#X obj 767 150 * 1;
#X obj 767 229 line~;
#X obj 778 120 t b f;
#X obj 778 96 expr exp($f1*0.057762265);
#N canvas 215 615 450 300 pan 0;
#X obj 114 33 inlet~;
#X obj 189 57 clip 0 1;
#X obj 189 81 t f f;
#X obj 114 245 outlet~;
#X obj 172 246 outlet~;
#X obj 114 215 *~;
#X obj 132 191 line~;
#X msg 132 168 \$1 5;
#X obj 172 215 *~;
#X obj 190 191 line~;
#X msg 190 168 \$1 5;
#X obj 189 33 inlet;
#X obj 168 108 expr cos($f1 * 1.5708);
#X obj 202 133 expr sin($f1 * 1.5708);
#X connect 0 0 5 0;
#X connect 0 0 8 0;
#X connect 1 0 2 0;
#X connect 2 0 12 0;
#X connect 2 1 13 0;
#X connect 5 0 3 0;
#X connect 6 0 5 1;
#X connect 7 0 6 0;
#X connect 8 0 4 0;
#X connect 9 0 8 1;
#X connect 10 0 9 0;
#X connect 11 0 1 0;
#X connect 12 0 7 0;
#X connect 13 0 10 0;
#X restore 775 537 pd pan;
#N canvas 676 304 822 443 reverbere 0;
#X obj 134 340 freeverb~;
#X obj 57 74 inlet~;
#X obj 76 405 outlet~;
#X obj 136 405 outlet~;
#X msg 276 150 roomsize \$1;
#X msg 276 172 damping \$1;
#X msg 276 194 width \$1;
#X msg 276 216 wet \$1;
#X msg 276 238 dry \$1;
#X msg 276 260 print;
#X msg 276 282 freeze \$1;
#X msg 276 304 bypass \$1;
#X text 339 259 - print the current values of the above parameters;
#X text 352 282 - start/stop freeze of reverb tail \, using 1 or 0;
#X text 356 303 - bypass the reverb processing \, using a 1 or 0;
#X text 337 237 - level of unprocessed signal \, between 0 and 1 (default: 0);
#X text 341 216 - level of reverbed signal \, between 0 and 1 (default: 0.3);
#X text 363 171 - amount of damping of room's surfaces (default: 0.5);
#X text 345 195 - stereo width of reverb (default: 1);
#X text 367 149 - size of the room to be simulated (default=0.85);
#X floatatom 236 172 5 0 1 0 - - - 0;
#X floatatom 236 194 5 0 1 0 - - - 0;
#X floatatom 236 216 5 0 1 0 - - - 0;
#X floatatom 236 238 5 0 1 0 - - - 0;
#X obj 254 282 tgl 19 0 empty empty empty 0 -10 0 12 #fcfcfc #000000 #000000 0 1;
#X obj 254 304 tgl 19 0 empty empty empty 0 -10 0 12 #fcfcfc #000000 #000000 0 1;
#X obj 331 349 t a;
#X obj 227 96 loadbang;
#X msg 186 190 1;
#X msg 188 218 0.5;
#X obj 364 84 t f f;
#X obj 396 109 expr 1 - $f1;
#X obj 367 58 hsl 162 19 0 1 0 0 empty empty empty -2 -10 0 12 #fcfcfc #000000 #000000 0 0;
#X obj 117 74 inlet~;
#N canvas 1090 429 381 373 drywet 0;
#X obj 103 252 *~;
#X obj 91 34 inlet~;
#X obj 133 252 *~;
#X obj 176 252 *~;
#X obj 164 34 inlet~;
#X obj 206 252 *~;
#X obj 73 321 outlet~;
#X obj 189 321 outlet~;
#X obj 129 321 outlet~;
#X obj 245 321 outlet~;
#X obj 235 34 inlet;
#X obj 208 102 swap 1;
#X obj 208 127 -;
#X obj 235 73 t f f;
#X obj 208 173 line~;
#X obj 251 173 line~;
#X msg 208 150 \$1 5;
#X msg 251 150 \$1 5;
#X connect 0 0 6 0;
#X connect 1 0 0 0;
#X connect 1 0 2 0;
#X connect 2 0 7 0;
#X connect 3 0 8 0;
#X connect 4 0 3 0;
#X connect 4 0 5 0;
#X connect 5 0 9 0;
#X connect 10 0 13 0;
#X connect 11 0 12 0;
#X connect 11 1 12 1;
#X connect 12 0 16 0;
#X connect 13 0 11 0;
#X connect 13 1 17 0;
#X connect 14 0 0 1;
#X connect 14 0 3 1;
#X connect 15 0 2 1;
#X connect 15 0 5 1;
#X connect 16 0 14 0;
#X connect 17 0 15 0;
#X restore 66 192 pd drywet;
#X obj 181 72 inlet;
#X obj 124 163 clip 0 1;
#X floatatom 239 151 5 0 1 0 - - - 0;
#X msg 240 131 0.8;
#X obj 138 312 *~;
#X obj 174 309 *~;
#X msg 187 253 0.42;
#X obj 196 340 freeverb~;
#X obj 187 275 sig~ 0.42;
#X obj 125 137 clip 0 0.85;
#X connect 0 0 2 0;
#X connect 1 0 34 0;
#X connect 4 0 26 0;
#X connect 5 0 26 0;
#X connect 6 0 26 0;
#X connect 7 0 26 0;
#X connect 8 0 26 0;
#X connect 9 0 26 0;
#X connect 10 0 26 0;
#X connect 11 0 26 0;
#X connect 20 0 5 0;
#X connect 21 0 6 0;
#X connect 22 0 7 0;
#X connect 23 0 8 0;
#X connect 24 0 10 0;
#X connect 25 0 11 0;
#X connect 26 0 0 0;
#X connect 26 0 42 0;
#X connect 27 0 28 0;
#X connect 27 0 29 0;
#X connect 27 0 38 0;
#X connect 28 0 20 0;
#X connect 28 0 22 0;
#X connect 28 0 21 0;
#X connect 30 0 22 0;
#X connect 30 1 31 0;
#X connect 31 0 23 0;
#X connect 32 0 30 0;
#X connect 33 0 34 1;
#X connect 34 0 2 0;
#X connect 34 1 3 0;
#X connect 34 2 39 0;
#X connect 34 3 40 0;
#X connect 35 0 44 0;
#X connect 36 0 34 2;
#X connect 37 0 4 0;
#X connect 38 0 37 0;
#X connect 39 0 0 0;
#X connect 40 0 42 0;
#X connect 41 0 43 0;
#X connect 42 1 3 0;
#X connect 43 0 39 1;
#X connect 43 0 40 1;
#X connect 44 0 36 0;
#X restore 770 593 pd reverbere;
#X obj 767 179 * 1;
#X obj 819 150 t b f;
#X obj 875 157 sel 0 1;
#X msg 875 182 1;
#X msg 909 182 -1;
#X obj 875 132 r \$0-reverse-o;
#X obj 778 72 r \$0-pitch-o;
#X obj 990 71 r \$0-play-o;
#X obj 1013 351 r \$0-volume-o;
#X obj 838 471 r \$0-panning-o;
#X msg 767 205 \$1 20;
#X obj 872 503 r \$0-reverbe-o;
#X obj 767 651 send~ \$1-left-output;
#X obj 854 623 send~ \$1-right-output;
#X obj 781 351 r \$0-to-tabread;
#X obj 61 177 r \$1-controls;
#X obj 1013 397 dbtorms;
#X obj 1013 374 + 100;
#X obj 767 388 hip~ 10;
#X obj 767 492 hip~ 10;
#X obj 30 30 cnv 18 166 88 empty empty empty 20 12 0 10 #000000 #404040 0;
#X obj 31 31 cnv 10 164 86 empty empty \$1 20 9 0 12 #e0e0e0 #0400ff 0;
#X obj 33 33 tgl 14 0 \$0-play-o \$0-play-i empty 0 -10 0 12 #fcfcfc #000000 #000000 0 1;
#X floatatom 33 101 5 0 0 2 pitch \$0-pitch-i \$0-pitch-o 8;
#X obj 36 78 hsl 155 10 0 1 0 0 \$0-panning-o \$0-panning-i panning 0 5 0 8 #fcfcfc #000000 #000000 0 0;
#X obj 36 66 hsl 155 10 -70 12 0 0 \$0-volume-o \$0-volume-i volume 0 5 0 8 #fcfcfc #000000 #000000 0 0;
#X obj 163 101 tgl 14 0 \$0-reverbe-o \$0-reverbe-i rvb 0 -6 0 8 #fcfcfc #000000 #000000 0 1;
#X text 109 74 |;
#X text 163 62 |;
#X obj 198 32 tgl 14 0 \$0-volume-enable-o \$0-volume-enable-i volume 18 8 0 10 #fcfcfc #000000 #000000 0 1;
#X obj 198 46 tgl 14 0 \$0-panning-enable-o \$0-panning-enable-i panning 18 8 0 10 #fcfcfc #000000 #000000 0 1;
#X obj 198 60 tgl 14 0 \$0-pitch-enable-o \$0-pitch-enable-i pitch 18 8 0 10 #fcfcfc #000000 #000000 0 1;
#X obj 198 74 tgl 14 0 \$0-filter-enable-o \$0-filter-enable-i filter 18 8 0 10 #fcfcfc #000000 #000000 0 1;
#X obj 198 88 tgl 14 0 \$0-reverbe-enable-o \$0-reverbe-enable-i reverbe 18 8 0 10 #fcfcfc #000000 #000000 0 1;
#X obj 52 353 project/parameter-simple volume-enable \$1 \$2 \$0;
#X obj 52 372 project/parameter-simple panning-enable \$1 \$2 \$0;
#X obj 52 391 project/parameter-simple pitch-enable \$1 \$2 \$0;
#X obj 52 410 project/parameter-simple filter-enable \$1 \$2 \$0;
#X obj 33 49 project/sound-selector sound \$3 \$0;
#X obj 52 595 project/parameter-simple sound \$1 \$2 \$0;
#X obj 52 620 project/module-preset \$1 \$2 \$0;
#X floatatom 84 101 5 0 1 2 fdist \$0-fdist-i \$0-fdist-o 8;
#X floatatom 114 101 5 -1 1 2 fangle \$0-fangle-i \$0-fangle-o 8;
#X obj 179 101 tgl 14 0 \$0-reverse-o \$0-reverse-i rvs 0 -6 0 8 #fcfcfc #000000 #000000 0 1;
#X obj 198 102 tgl 14 0 \$0-reverse-enable-o \$0-reverse-enable-i reverse 18 8 0 10 #fcfcfc #000000 #000000 0 1;
#X obj 52 429 project/parameter-simple reverbe-enable \$1 \$2 \$0;
#X obj 52 448 project/parameter-simple reverse-enable \$1 \$2 \$0;
#X obj 405 317 r \$0-sound-info;
#X text 403 288 filename \, abspath \, arrayname \, samples \, samplerate \, headersize \, channels \, bytespersample \, endianness (l / b);
#X obj 405 359 list split 1;
#X msg 370 582 set \$1;
#X obj 370 611 s \$0-to-tabread;
#N canvas 520 667 450 300 pitch-ctl 0;
#X obj 166 70 inlet;
#X obj 166 144 spigot;
#X obj 199 112 r \$0-pitch-enable-o;
#X obj 166 201 s \$0-pitch-i;
#X connect 0 0 1 0;
#X connect 1 0 3 0;
#X connect 2 0 1 1;
#X restore 199 239 pd pitch-ctl;
#N canvas 411 449 450 300 reverse-ctl 0;
#X obj 77 63 inlet;
#X obj 166 144 spigot;
#X obj 199 112 r \$0-reverse-enable-o;
#X obj 166 201 s \$0-reverse-i;
#X connect 0 0 1 0;
#X connect 1 0 3 0;
#X connect 2 0 1 1;
#X restore 344 239 pd reverse-ctl;
#N canvas 486 496 450 300 panning-ctl 0;
#X obj 66 29 inlet;
#X obj 66 85 spigot;
#X obj 99 53 r \$0-panning-enable-o;
#X obj 66 179 s \$0-panning-i;
#X obj 66 130 clip 0 1;
#X connect 0 0 1 0;
#X connect 1 0 4 0;
#X connect 2 0 1 1;
#X connect 4 0 3 0;
#X restore 150 259 pd panning-ctl;
#N canvas 411 449 450 300 filterctl-ctl 0;
#X obj 72 37 inlet;
#X obj 72 142 route dist angle;
#X obj 72 97 spigot;
#X obj 118 162 s \$0-fangle-i;
#X obj 72 182 s \$0-fdist-i;
#X obj 105 67 r \$0-filter-enable-o;
#X connect 0 0 2 0;
#X connect 1 0 4 0;
#X connect 1 1 3 0;
#X connect 2 0 1 0;
#X connect 5 0 2 1;
#X restore 247 279 pd filterctl-ctl;
#N canvas 411 449 450 300 reverbe-ctl 0;
#X obj 90 61 inlet;
#X obj 166 144 spigot;
#X obj 199 112 r \$0-reverbe-enable-o;
#X obj 166 201 s \$0-reverbe-i;
#X connect 0 0 1 0;
#X connect 1 0 3 0;
#X connect 2 0 1 1;
#X restore 296 259 pd reverbe-ctl;
#N canvas 411 449 450 300 volume-ctl 0;
#X obj 52 39 inlet;
#X obj 109 201 s \$0-volume-i;
#X obj 109 178 clip -70 12;
#X obj 195 90 loadbang;
#X msg 195 113 0;
#X obj 52 95 spigot;
#X obj 85 63 r \$0-volume-enable-o;
#X connect 0 0 5 0;
#X connect 2 0 1 0;
#X connect 3 0 4 0;
#X connect 4 0 2 0;
#X connect 5 0 2 0;
#X connect 6 0 5 1;
#X restore 102 279 pd volume-ctl;
#X obj 54 219 route play volume panning pitch filterctl reverbe reverse;
#X obj 54 304 s \$0-play-i;
#X msg 405 338 \$1 \$2 \$3;
#X obj 767 327 tabread4~;
#N canvas 556 594 469 395 init-state 0;
#X obj 88 227 s \$0-play-i;
#X obj 112 249 s \$0-volume-i;
#X obj 133 271 s \$0-panning-i;
#X msg 191 175 0.5;
#X msg 157 171 0;
#X msg 122 165 0;
#X obj 162 292 s \$0-pitch-i;
#X msg 225 179 0;
#X obj 237 270 s \$0-fdist-i;
#X obj 254 293 s \$0-fangle-i;
#X msg 264 178 0;
#X obj 279 315 s \$0-reverbe-i;
#X obj 296 338 s \$0-reverse-i;
#X msg 308 177 0;
#X obj 168 84 t b b b b b b;
#X obj 168 57 inlet;
#X connect 3 0 2 0;
#X connect 4 0 1 0;
#X connect 5 0 0 0;
#X connect 7 0 6 0;
#X connect 10 0 8 0;
#X connect 10 0 9 0;
#X connect 13 0 11 0;
#X connect 13 0 12 0;
#X connect 14 0 5 0;
#X connect 14 1 4 0;
#X connect 14 2 3 0;
#X connect 14 3 7 0;
#X connect 14 4 10 0;
#X connect 14 5 13 0;
#X connect 15 0 14 0;
#X restore 331 155 pd init-state;
#X obj 331 134 bng 16 250 50 0 empty empty empty 0 -8 0 10 #fcfcfc #000000 #000000;
#X obj 330 67 loadbang;
#X obj 330 88 s \$0-init-state;
#X obj 331 113 r \$0-init-state;
#X obj 52 474 project/parameter-simple volume \$1 \$2 \$0;
#X obj 52 493 project/parameter-simple panning \$1 \$2 \$0;
#X obj 52 512 project/parameter-simple pitch \$1 \$2 \$0;
#X obj 52 531 project/parameter-simple filter \$1 \$2 \$0;
#X obj 52 550 project/parameter-simple reverbe \$1 \$2 \$0;
#X obj 52 569 project/parameter-simple reverse \$1 \$2 \$0;
#X obj 438 113 r sound-unit-controls;
#N canvas 824 603 450 300 remote-enablers-control 0;
#X obj 41 23 inlet;
#X obj 41 49 route volume panning pitch filter reverbe reverse;
#X obj 41 219 s \$0-volume-enable-i;
#X obj 89 199 s \$0-panning-enable-i;
#X obj 138 179 s \$0-pitch-enable-i;
#X obj 186 159 s \$0-filter-enable-i;
#X obj 235 139 s \$0-reverbe-enable-i;
#X obj 283 119 s \$0-reverse-enable-i;
#X connect 0 0 1 0;
#X connect 1 0 2 0;
#X connect 1 1 3 0;
#X connect 1 2 4 0;
#X connect 1 3 5 0;
#X connect 1 4 6 0;
#X connect 1 5 7 0;
#X restore 438 155 pd remote-enablers-control;
#X obj 438 134 route enable;
#X connect 0 0 18 0;
#X connect 1 0 22 1;
#X connect 2 0 1 0;
#X connect 3 0 22 0;
#X connect 4 0 5 1;
#X connect 5 0 3 0;
#X connect 6 0 14 0;
#X connect 6 1 7 0;
#X connect 7 0 8 1;
#X connect 8 0 9 0;
#X connect 9 0 10 0;
#X connect 9 1 12 0;
#X connect 10 0 11 0;
#X connect 10 1 11 1;
#X connect 11 0 20 0;
#X connect 14 0 15 0;
#X connect 14 1 8 0;
#X connect 16 0 29 0;
#X connect 17 0 18 1;
#X connect 17 0 19 0;
#X connect 18 0 96 0;
#X connect 20 0 13 0;
#X connect 21 0 27 0;
#X connect 21 1 23 0;
#X connect 22 0 54 0;
#X connect 23 0 26 0;
#X connect 23 1 24 0;
#X connect 24 0 0 1;
#X connect 25 0 4 0;
#X connect 26 0 25 0;
#X connect 27 0 25 0;
#X connect 28 0 93 0;
#X connect 29 0 35 0;
#X connect 30 0 0 0;
#X connect 31 0 29 0;
#X connect 31 1 29 1;
#X connect 32 0 31 0;
#X connect 33 0 34 0;
#X connect 33 1 34 1;
#X connect 34 0 47 0;
#X connect 34 1 48 0;
#X connect 35 0 45 0;
#X connect 36 0 35 0;
#X connect 36 1 35 1;
#X connect 37 0 38 0;
#X connect 37 1 39 0;
#X connect 38 0 36 0;
#X connect 39 0 36 0;
#X connect 40 0 37 0;
#X connect 41 0 32 0;
#X connect 42 0 21 0;
#X connect 43 0 52 0;
#X connect 44 0 33 1;
#X connect 45 0 30 0;
#X connect 46 0 34 2;
#X connect 49 0 96 0;
#X connect 50 0 93 0;
#X connect 51 0 2 0;
#X connect 52 0 51 0;
#X connect 53 0 5 0;
#X connect 54 0 33 0;
#X connect 82 0 95 0;
#X connect 84 0 85 0;
#X connect 84 1 6 0;
#X connect 85 0 86 0;
#X connect 93 0 94 0;
#X connect 93 1 92 0;
#X connect 93 2 89 0;
#X connect 93 3 87 0;
#X connect 93 4 90 0;
#X connect 93 5 91 0;
#X connect 93 6 88 0;
#X connect 95 0 84 0;
#X connect 96 0 53 0;
#X connect 98 0 97 0;
#X connect 99 0 100 0;
#X connect 101 0 98 0;
#X connect 108 0 110 0;
#X connect 110 0 109 0;
#X coords 0 -1 1 1 232 88 2 30 30;
