#N canvas 371 205 671 631 12;
#X obj 235 506 r \$0-controls;
#X obj 253 531 r \$0-id;
#X obj 235 581 s;
#X msg 353 440 color #00ff00 #00ff00 #000000;
#X msg 330 416 color #ff0000 #ff0000 #000000;
#X obj 391 361 loadbang;
#X obj 330 466 s \$0-activity-i;
#X obj 330 297 s \$0-connect-i;
#X obj 330 355 sel 0 1;
#X obj 330 251 sel 0 1;
#X msg 330 274 0;
#X obj 456 361 r \$0-connect-o;
#X obj 511 267 s \$0-label-i;
#X obj 541 203 loadbang;
#X msg 541 226 label;
#X msg 474 226 label \$1;
#X obj 474 157 r \$0-id;
#X obj 474 180 makefilename %i;
#X obj 456 385 sel 0;
#X obj 330 331 r \$0-connected;
#X obj 330 228 r \$0-connected;
#X obj 30 30 cnv 19 82 45 empty empty Joystick 8 12 0 12 #e0e0e0 #404040 0;
#X obj 52 53 tgl 19 0 \$0-activity-o \$0-activity-i empty 0 -10 0 12 #ff0000 #ff0000 #000000 0 1;
#X obj 33 53 tgl 19 0 \$0-connect-o \$0-connect-i empty 0 -10 0 12 #fcfcfc #000000 #000000 0 1;
#X obj 71 53 cnv 19 19 19 empty empty empty 6 10 0 12 #000000 #404040 0;
#X obj 72 54 cnv 10 17 17 empty \$0-label-i empty 5 9 0 12 #e0e0e0 #404040 0;
#X obj 31 556 s \$0-controls;
#X obj 31 468 spigot;
#X obj 81 468 spigot;
#X obj 120 379 sel 0;
#X obj 120 403 t 0;
#X obj 152 403 t 1 f;
#X obj 84 432 == 0;
#X obj 120 432 t f f;
#N canvas 875 191 473 383 assign 0;
#X obj 28 41 inlet;
#X obj 186 246 sel 1;
#X obj 186 279 outlet;
#X obj 28 70 route trigger btn2 btn3 btn4 btn4 btn5 btn6 btn7 btn8 btn9 btn10 btn11 btn12;
#X connect 0 0 3 0;
#X connect 1 0 2 0;
#X connect 3 0 1 0;
#X connect 3 1 1 0;
#X connect 3 2 1 0;
#X connect 3 3 1 0;
#X connect 3 4 1 0;
#X connect 3 5 1 0;
#X connect 3 6 1 0;
#X connect 3 7 1 0;
#X connect 3 8 1 0;
#X connect 3 9 1 0;
#X connect 3 10 1 0;
#X connect 3 11 1 0;
#X connect 3 12 1 0;
#X restore 81 496 pd assign;
#X obj 134 531 f;
#X obj 134 556 s \$0-id;
#X obj 31 432 t a a;
#X obj 90 53 bng 19 250 50 0 \$0-open-ui-o \$0-open-ui-i empty 0 -10 0 12 #fcfcfc #000000 #000000;
#X text 91 53 ui;
#X obj 459 536 makefilename pd-%i-ui;
#X msg 459 559 \; \$1 vis 1;
#X obj 459 490 r \$0-open-ui-o;
#N canvas 689 230 407 436 device-id-from-list-and-instance-nb 0;
#X obj 175 285 list split;
#X obj 208 309 list split 1;
#X obj 278 37 loadbang;
#X obj 278 60 f \$1;
#X obj 150 106 list length;
#X obj 182 169 <;
#X obj 278 83 t f f;
#X obj 118 82 t l l;
#X obj 98 31 inlet;
#X obj 166 362 outlet;
#X obj 182 192 t f f;
#X obj 175 252 spigot;
#X obj 120 253 sel 1;
#X msg 120 287 -1;
#X obj 214 221 == 0;
#X obj 150 130 - 1;
#X connect 0 1 1 0;
#X connect 1 0 9 0;
#X connect 2 0 3 0;
#X connect 3 0 6 0;
#X connect 4 0 15 0;
#X connect 5 0 10 0;
#X connect 6 0 5 1;
#X connect 6 1 0 1;
#X connect 7 0 11 0;
#X connect 7 1 4 0;
#X connect 8 0 7 0;
#X connect 10 0 12 0;
#X connect 10 1 14 0;
#X connect 11 0 0 0;
#X connect 12 0 13 0;
#X connect 13 0 9 0;
#X connect 14 0 11 1;
#X connect 15 0 5 0;
#X restore 229 95 pd device-id-from-list-and-instance-nb;
#X obj 253 556 makefilename joystick-%i;
#X obj 120 355 r joystick-assign;
#X obj 459 513 f \$0;
#N canvas 1 38 216 374 \$0-ui 0;
#X obj 11 11 cnv 19 190 350 empty empty empty 20 12 0 12 #404040 #404040 0;
#X obj 143 18 tgl 26 0 \$0-trigger-o \$0-trigger-i empty 0 -10 0 12 #fcfcfc #000000 #000000 0 1;
#X obj 83 76 tgl 26 0 \$0-btn2-o \$0-btn2-i empty 0 -10 0 12 #fcfcfc #000000 #000000 0 1;
#X obj 132 151 tgl 19 0 \$0-btn3-o \$0-btn3-i empty 0 -10 0 12 #fcfcfc #000000 #000000 0 1;
#X obj 161 151 tgl 19 0 \$0-btn4-o \$0-btn4-i empty 0 -10 0 12 #fcfcfc #000000 #000000 0 1;
#X obj 149 58 tgl 14 0 \$0-cross-up-o \$0-cross-up-i empty 0 -10 0 12 #fcfcfc #000000 #000000 0 1;
#X obj 173 82 tgl 14 0 \$0-cross-right-o \$0-cross-right-i empty 0 -10 0 12 #fcfcfc #000000 #000000 0 1;
#X obj 149 106 tgl 14 0 \$0-cross-down-o \$0-cross-down-i empty 0 -10 0 12 #fcfcfc #000000 #000000 0 1;
#X obj 125 82 tgl 14 0 \$0-cross-left-o \$0-cross-left-i empty 0 -10 0 12 #fcfcfc #000000 #000000 0 1;
#X obj 130 63 tgl 14 0 \$0-cross-upleft-o \$0-cross-upleft-i empty 0 -10 0 12 #fcfcfc #000000 #000000 0 1;
#X obj 168 63 tgl 14 0 \$0-cross-upright-o \$0-cross-upright-i empty 0 -10 0 12 #fcfcfc #000000 #000000 0 1;
#X obj 169 101 tgl 14 0 \$0-cross-downright-o \$0-cross-downright-i empty 0 -10 0 12 #fcfcfc #000000 #000000 0 1;
#X obj 129 101 tgl 14 0 \$0-cross-downleft-o \$0-cross-downleft-i empty 0 -10 0 12 #fcfcfc #000000 #000000 0 1;
#X obj 123 255 hsl 64 14 -1 1 0 0 \$0-joystick-x-o \$0-joystick-x-i empty -2 -10 0 12 #fcfcfc #000000 #000000 0 0;
#X obj 149 229 vsl 14 64 -1 1 0 0 \$0-joystick-y-o \$0-joystick-y-i empty 0 -9 0 12 #fcfcfc #000000 #000000 0 0;
#X obj 123 127 tgl 19 0 \$0-btn5-o \$0-btn5-i empty 0 -10 0 12 #fcfcfc #000000 #000000 0 1;
#X obj 171 127 tgl 19 0 \$0-btn6-o \$0-btn6-i empty 0 -10 0 12 #fcfcfc #000000 #000000 0 1;
#X obj 137 201 hsl 38 14 -1 1 0 0 \$0-joystick-Z-o \$0-joystick-z-i empty -2 -10 0 12 #fcfcfc #000000 #000000 0 0;
#X obj 149 311 vsl 14 38 0 1 0 0 \$0-knob-o \$0-knob-i empty 0 -9 0 12 #fcfcfc #000000 #000000 0 0;
#X obj 54 262 tgl 26 0 \$0-btn8-o \$0-btn8-i empty 0 -10 0 12 #fcfcfc #000000 #000000 0 1;
#X obj 54 294 tgl 26 0 \$0-btn10-o \$0-btn10-i empty 0 -10 0 12 #fcfcfc #000000 #000000 0 1;
#X obj 54 326 tgl 26 0 \$0-btn12-o \$0-btn12-i empty 0 -10 0 12 #fcfcfc #000000 #000000 0 1;
#X obj 21 262 tgl 26 0 \$0-btn7-o \$0-btn7-i empty 0 -10 0 12 #fcfcfc #000000 #000000 0 1;
#X obj 21 294 tgl 26 0 \$0-btn9-o \$0-btn9-i empty 0 -10 0 12 #fcfcfc #000000 #000000 0 1;
#X obj 21 326 tgl 26 0 \$0-btn11-o \$0-btn11-i empty 0 -10 0 12 #fcfcfc #000000 #000000 0 1;
#X restore 551 565 pd \$0-ui;
#X obj 229 71 r extreme3D-paths;
#X obj 229 119 s \$0-device-path;
#X obj 31 104 r \$0-connect-o;
#X obj 31 130 sel 0 1;
#X msg 31 192 close;
#X obj 31 227 hidraw;
#X obj 126 144 r \$0-device-path;
#X obj 87 167 symbol;
#N canvas 1223 400 450 300 connected 0;
#X msg 126 98 stop;
#X msg 227 180 1;
#X msg 155 179 0;
#X obj 143 150 del 500;
#X obj 154 74 sel 1 -1;
#X obj 154 48 inlet;
#X obj 225 73 t b b;
#X obj 225 47 inlet;
#X obj 155 228 s \$0-connected;
#X connect 0 0 3 0;
#X connect 1 0 8 0;
#X connect 2 0 8 0;
#X connect 3 0 2 0;
#X connect 4 0 0 0;
#X connect 4 1 2 0;
#X connect 5 0 4 0;
#X connect 6 0 3 0;
#X connect 6 1 1 0;
#X connect 7 0 6 0;
#X restore 82 227 pd connected;
#X msg 87 191 open-path \$1 \, poll 20;
#N canvas 178 372 820 618 parse-bytes 0;
#X obj 29 83 unpack 0 0 0 0 0 0 0 0;
#N canvas 179 217 696 583 main-buttons-and-triggers 0;
#X obj 69 126 & 1;
#X obj 105 126 & 2;
#X obj 141 126 & 4;
#X obj 177 126 & 8;
#X obj 213 126 & 16;
#X obj 249 126 & 32;
#X obj 285 126 & 64;
#X obj 321 126 & 128;
#X obj 69 322 change;
#X obj 105 274 change;
#X obj 141 226 change;
#X obj 177 178 change;
#X obj 213 322 change;
#X obj 249 274 change;
#X obj 285 226 change;
#X obj 321 178 change;
#X obj 140 72 t f f f f f f f f;
#X obj 140 47 change;
#X obj 140 22 inlet;
#X obj 69 150 != 0;
#X obj 105 150 != 0;
#X obj 141 150 != 0;
#X obj 177 150 != 0;
#X obj 213 150 != 0;
#X obj 249 150 != 0;
#X obj 285 150 != 0;
#X obj 321 150 != 0;
#X msg 69 426 btn1 \$1;
#X msg 105 403 btn2 \$1;
#X msg 141 426 btn3 \$1;
#X msg 177 403 btn4 \$1;
#X msg 213 426 leftup-trigger \$1;
#X msg 249 403 leftdown-trigger \$1;
#X msg 285 380 rightup-trigger \$1;
#X msg 321 357 rightdown-trigger \$1;
#X obj 249 517 outlet;
#X obj 120 322 s \$0-btn1-i;
#X obj 156 274 s \$0-btn2-i;
#X obj 192 226 s \$0-btn3-i;
#X obj 228 178 s \$0-btn4-i;
#X obj 372 178 s \$0-rightdown-trigger-i;
#X obj 336 226 s \$0-rightup-trigger-i;
#X obj 300 274 s \$0-leftdown-trigger-i;
#X obj 264 322 s \$0-leftup-trigger-i;
#X connect 0 0 19 0;
#X connect 1 0 20 0;
#X connect 2 0 21 0;
#X connect 3 0 22 0;
#X connect 4 0 23 0;
#X connect 5 0 24 0;
#X connect 6 0 25 0;
#X connect 7 0 26 0;
#X connect 8 0 27 0;
#X connect 8 0 36 0;
#X connect 9 0 28 0;
#X connect 9 0 37 0;
#X connect 10 0 29 0;
#X connect 10 0 38 0;
#X connect 11 0 30 0;
#X connect 11 0 39 0;
#X connect 12 0 31 0;
#X connect 12 0 43 0;
#X connect 13 0 32 0;
#X connect 13 0 42 0;
#X connect 14 0 33 0;
#X connect 14 0 41 0;
#X connect 15 0 34 0;
#X connect 15 0 40 0;
#X connect 16 0 0 0;
#X connect 16 1 1 0;
#X connect 16 2 2 0;
#X connect 16 3 3 0;
#X connect 16 4 4 0;
#X connect 16 5 5 0;
#X connect 16 6 6 0;
#X connect 16 7 7 0;
#X connect 17 0 16 0;
#X connect 18 0 17 0;
#X connect 19 0 8 0;
#X connect 20 0 9 0;
#X connect 21 0 10 0;
#X connect 22 0 11 0;
#X connect 23 0 12 0;
#X connect 24 0 13 0;
#X connect 25 0 14 0;
#X connect 26 0 15 0;
#X connect 27 0 35 0;
#X connect 28 0 35 0;
#X connect 29 0 35 0;
#X connect 30 0 35 0;
#X connect 31 0 35 0;
#X connect 32 0 35 0;
#X connect 33 0 35 0;
#X connect 34 0 35 0;
#X restore 29 218 pd main-buttons-and-triggers;
#N canvas 1017 167 444 537 select-start-and-joystick-buttons 0;
#X obj 88 145 & 1;
#X obj 127 145 & 2;
#X obj 166 145 & 4;
#X obj 205 145 & 8;
#X obj 88 335 change;
#X obj 127 287 change;
#X obj 166 239 change;
#X obj 205 191 change;
#X obj 117 80 change;
#X obj 117 55 inlet;
#X obj 117 105 t f f f f;
#X obj 88 168 != 0;
#X obj 127 168 != 0;
#X obj 166 168 != 0;
#X obj 205 168 != 0;
#X msg 88 358 select-btn \$1;
#X msg 127 310 start-btn \$1;
#X msg 166 262 left-joystick-btn \$1;
#X msg 205 214 right-joystick-btn \$1;
#X obj 240 420 outlet;
#X obj 215 239 s \$0-left-joystick-btn-i;
#X obj 255 191 s \$0-right-joystick-btn-i;
#X obj 138 335 s \$0-select-btn-i;
#X obj 177 287 s \$0-start-btn-i;
#X connect 0 0 11 0;
#X connect 1 0 12 0;
#X connect 2 0 13 0;
#X connect 3 0 14 0;
#X connect 4 0 15 0;
#X connect 4 0 22 0;
#X connect 5 0 16 0;
#X connect 5 0 23 0;
#X connect 6 0 17 0;
#X connect 6 0 20 0;
#X connect 7 0 18 0;
#X connect 7 0 21 0;
#X connect 8 0 10 0;
#X connect 9 0 8 0;
#X connect 10 0 0 0;
#X connect 10 1 1 0;
#X connect 10 2 2 0;
#X connect 10 3 3 0;
#X connect 11 0 4 0;
#X connect 12 0 5 0;
#X connect 13 0 6 0;
#X connect 14 0 7 0;
#X connect 15 0 19 0;
#X connect 16 0 19 0;
#X connect 17 0 19 0;
#X connect 18 0 19 0;
#X restore 50 193 pd select-start-and-joystick-buttons;
#N canvas 528 198 799 775 cross 0;
#X obj 62 59 sel 240 0 16 32 48 64 80 96 112;
#X msg 62 116 0;
#X msg 85 93 1;
#X msg 109 117 2;
#X msg 133 93 3;
#X msg 157 118 4;
#X msg 180 95 5;
#X msg 204 119 6;
#X msg 228 95 7;
#X msg 252 119 8;
#X obj 62 8 inlet;
#X obj 157 217 t f;
#X obj 428 250 list split;
#X obj 524 322 list append;
#X msg 428 149 0 0 0 0 0 0 0 0;
#X obj 524 243 list split 1;
#X obj 623 277 list split;
#X obj 565 135 t f f;
#X obj 609 171 swap 8;
#X obj 618 203 -;
#X obj 554 173 - 1;
#X floatatom 495 80 5 0 0 0 - - - 0;
#X obj 494 107 t b f;
#X obj 407 288 list append;
#X obj 524 270 t b;
#X msg 524 296 1;
#X obj 449 50 sel 0;
#X msg 311 250 0 0 0 0 0 0 0 0;
#X obj 228 418 t l l;
#X obj 288 454 unpack f f f f f f f f;
#X msg 274 648 cross-up \$1;
#X obj 62 33 change;
#X msg 297 625 cross-upright \$1;
#X msg 325 602 cross-right \$1;
#X msg 349 579 cross-downright \$1;
#X msg 374 556 cross-down \$1;
#X msg 399 533 cross-downleft \$1;
#X msg 423 510 cross-left \$1;
#X msg 445 487 cross-upleft \$1;
#X obj 157 544 list prepend cross-list;
#X obj 157 568 list trim;
#X obj 307 733 outlet;
#X obj 332 349 s \$0-cross-up-i;
#X obj 343 372 s \$0-cross-upright-i;
#X obj 358 394 s \$0-cross-right-i;
#X obj 371 417 s \$0-cross-downright-i;
#X obj 516 360 s \$0-cross-down-i;
#X obj 527 383 s \$0-cross-downleft-i;
#X obj 542 405 s \$0-cross-left-i;
#X obj 555 428 s \$0-cross-upleft-i;
#X connect 0 0 1 0;
#X connect 0 1 2 0;
#X connect 0 2 3 0;
#X connect 0 3 4 0;
#X connect 0 4 5 0;
#X connect 0 5 6 0;
#X connect 0 6 7 0;
#X connect 0 7 8 0;
#X connect 0 8 9 0;
#X connect 1 0 11 0;
#X connect 2 0 11 0;
#X connect 3 0 11 0;
#X connect 4 0 11 0;
#X connect 5 0 11 0;
#X connect 6 0 11 0;
#X connect 7 0 11 0;
#X connect 8 0 11 0;
#X connect 9 0 11 0;
#X connect 10 0 31 0;
#X connect 11 0 26 0;
#X connect 12 0 23 0;
#X connect 12 1 15 0;
#X connect 13 0 23 1;
#X connect 14 0 12 0;
#X connect 15 0 24 0;
#X connect 15 1 16 0;
#X connect 16 0 13 1;
#X connect 17 0 20 0;
#X connect 17 1 18 0;
#X connect 18 0 19 0;
#X connect 18 1 19 1;
#X connect 19 0 16 1;
#X connect 20 0 12 1;
#X connect 21 0 22 0;
#X connect 22 0 14 0;
#X connect 22 1 17 0;
#X connect 23 0 28 0;
#X connect 24 0 25 0;
#X connect 25 0 13 0;
#X connect 26 0 27 0;
#X connect 26 1 21 0;
#X connect 27 0 28 0;
#X connect 28 0 39 0;
#X connect 28 1 29 0;
#X connect 29 0 30 0;
#X connect 29 0 42 0;
#X connect 29 1 32 0;
#X connect 29 1 43 0;
#X connect 29 2 33 0;
#X connect 29 2 44 0;
#X connect 29 3 34 0;
#X connect 29 3 45 0;
#X connect 29 4 35 0;
#X connect 29 4 46 0;
#X connect 29 5 36 0;
#X connect 29 5 47 0;
#X connect 29 6 37 0;
#X connect 29 6 48 0;
#X connect 29 7 38 0;
#X connect 29 7 49 0;
#X connect 30 0 41 0;
#X connect 31 0 0 0;
#X connect 32 0 41 0;
#X connect 33 0 41 0;
#X connect 34 0 41 0;
#X connect 35 0 41 0;
#X connect 36 0 41 0;
#X connect 37 0 41 0;
#X connect 38 0 41 0;
#X connect 39 0 40 0;
#X connect 40 0 41 0;
#X restore 72 169 pd cross;
#N canvas 880 359 665 349 left-joystick 0;
#X obj 83 110 moses 128;
#X obj 83 134 / 127;
#X obj 143 133 expr 1 - ($f1 - 128) / 127;
#X obj 143 157 * -1;
#X obj 342 108 moses 128;
#X obj 342 132 / 127;
#X obj 402 131 expr 1 - ($f1 - 128) / 127;
#X obj 342 155 * -1;
#X obj 342 55 inlet;
#X obj 83 55 inlet;
#X obj 364 200 t f;
#X obj 102 201 t f;
#X msg 102 226 left-joystick-x \$1;
#X msg 364 225 left-joystick-y \$1;
#X obj 244 292 outlet;
#X obj 132 201 s \$0-left-joystick-x-i;
#X obj 393 200 s \$0-left-joystick-y-i;
#X obj 342 81 change;
#X obj 83 82 change;
#X connect 0 0 1 0;
#X connect 0 1 2 0;
#X connect 1 0 11 0;
#X connect 2 0 3 0;
#X connect 3 0 11 0;
#X connect 4 0 5 0;
#X connect 4 1 6 0;
#X connect 5 0 7 0;
#X connect 6 0 10 0;
#X connect 7 0 10 0;
#X connect 8 0 17 0;
#X connect 9 0 18 0;
#X connect 10 0 13 0;
#X connect 10 0 16 0;
#X connect 11 0 12 0;
#X connect 11 0 15 0;
#X connect 12 0 14 0;
#X connect 13 0 14 0;
#X connect 17 0 4 0;
#X connect 18 0 0 0;
#X restore 93 146 pd left-joystick;
#N canvas 237 275 665 349 right-joystick 0;
#X obj 342 25 inlet;
#X obj 83 25 inlet;
#X obj 83 86 moses 128;
#X obj 83 110 / 127;
#X obj 143 110 expr 1 - ($f1 - 128) / 127;
#X obj 143 133 * -1;
#X obj 342 86 moses 128;
#X obj 342 184 t f;
#X obj 102 184 t f;
#X obj 402 133 * -1;
#X obj 342 156 expr 1 - ($f1 / 128);
#X obj 402 110 expr ($f1 - 128) / 127;
#X msg 102 209 right-joystick-x \$1;
#X obj 247 284 outlet;
#X obj 371 184 s \$0-right-joystick-y-i;
#X obj 131 184 s \$0-right-joystick-x-i;
#X obj 83 53 change;
#X obj 342 53 change;
#X msg 342 209 right-joystick-y \$1;
#X connect 0 0 17 0;
#X connect 1 0 16 0;
#X connect 2 0 3 0;
#X connect 2 1 4 0;
#X connect 3 0 8 0;
#X connect 4 0 5 0;
#X connect 5 0 8 0;
#X connect 6 0 10 0;
#X connect 6 1 11 0;
#X connect 7 0 18 0;
#X connect 7 0 14 0;
#X connect 8 0 12 0;
#X connect 8 0 15 0;
#X connect 9 0 7 0;
#X connect 10 0 7 0;
#X connect 11 0 9 0;
#X connect 12 0 13 0;
#X connect 16 0 2 0;
#X connect 17 0 6 0;
#X connect 18 0 13 0;
#X restore 137 123 pd right-joystick;
#X obj 117 330 outlet;
#X obj 72 34 inlet;
#X obj 418 120 unpack 0 0 0 0 0 0 0 0;
#X floatatom 391 183 5 0 0 0 - - - 0;
#X floatatom 432 183 5 0 0 0 - - - 0;
#X floatatom 473 183 5 0 0 0 - - - 0;
#X floatatom 514 183 5 0 0 0 - - - 0;
#X floatatom 555 183 5 0 0 0 - - - 0;
#X floatatom 596 183 5 0 0 0 - - - 0;
#X floatatom 637 183 5 0 0 0 - - - 0;
#X floatatom 678 183 5 0 0 0 - - - 0;
#N canvas 527 158 431 640 buttons-1 0;
#X obj 140 39 inlet;
#X obj 69 143 & 1;
#X obj 105 143 & 2;
#X obj 141 143 & 4;
#X obj 177 143 & 8;
#X obj 213 143 & 16;
#X obj 249 143 & 32;
#X obj 285 143 & 64;
#X obj 321 143 & 128;
#X obj 69 339 change;
#X obj 105 291 change;
#X obj 141 243 change;
#X obj 177 195 change;
#X obj 213 339 change;
#X obj 249 291 change;
#X obj 285 243 change;
#X obj 321 195 change;
#X obj 140 89 t f f f f f f f f;
#X obj 140 64 change;
#X obj 69 167 != 0;
#X obj 105 167 != 0;
#X obj 141 167 != 0;
#X obj 177 167 != 0;
#X obj 213 167 != 0;
#X obj 249 167 != 0;
#X obj 285 167 != 0;
#X obj 321 167 != 0;
#X msg 105 402 btn2 \$1;
#X msg 141 379 btn3 \$1;
#X msg 177 402 btn4 \$1;
#X obj 213 552 outlet;
#X msg 69 425 trigger \$1;
#X msg 213 425 btn5 \$1;
#X msg 249 402 btn6 \$1;
#X msg 285 379 btn7 \$1;
#X msg 321 356 btn8 \$1;
#X connect 0 0 18 0;
#X connect 1 0 19 0;
#X connect 2 0 20 0;
#X connect 3 0 21 0;
#X connect 4 0 22 0;
#X connect 5 0 23 0;
#X connect 6 0 24 0;
#X connect 7 0 25 0;
#X connect 8 0 26 0;
#X connect 9 0 31 0;
#X connect 10 0 27 0;
#X connect 11 0 28 0;
#X connect 12 0 29 0;
#X connect 13 0 32 0;
#X connect 14 0 33 0;
#X connect 15 0 34 0;
#X connect 16 0 35 0;
#X connect 17 0 1 0;
#X connect 17 1 2 0;
#X connect 17 2 3 0;
#X connect 17 3 4 0;
#X connect 17 4 5 0;
#X connect 17 5 6 0;
#X connect 17 6 7 0;
#X connect 17 7 8 0;
#X connect 18 0 17 0;
#X connect 19 0 9 0;
#X connect 20 0 10 0;
#X connect 21 0 11 0;
#X connect 22 0 12 0;
#X connect 23 0 13 0;
#X connect 24 0 14 0;
#X connect 25 0 15 0;
#X connect 26 0 16 0;
#X connect 27 0 30 0;
#X connect 28 0 30 0;
#X connect 29 0 30 0;
#X connect 31 0 30 0;
#X connect 32 0 30 0;
#X connect 33 0 30 0;
#X connect 34 0 30 0;
#X connect 35 0 30 0;
#X restore 641 244 pd buttons-1;
#N canvas 150 188 450 300 rotation 0;
#X obj 162 63 inlet;
#X obj 163 96 moses 117;
#X obj 234 96 moses 128;
#X connect 0 0 1 0;
#X restore 601 269 pd rotation;
#X obj 317 233 t f f;
#X floatatom 311 294 5 0 0 0 - - - 0;
#X floatatom 359 294 5 0 0 0 - - - 0;
#X obj 357 265 >> 4;
#X obj 312 266 & 15;
#X obj 409 233 t f f;
#X floatatom 403 294 5 0 0 0 - - - 0;
#X floatatom 451 294 5 0 0 0 - - - 0;
#X obj 501 233 t f f;
#X floatatom 495 294 5 0 0 0 - - - 0;
#X floatatom 543 294 5 0 0 0 - - - 0;
#X obj 541 265 >> 4;
#X obj 496 266 & 15;
#X obj 344 374 +;
#X obj 468 347 +;
#X obj 404 266 & 3;
#X obj 371 348 +;
#X obj 495 318 << 3;
#X obj 449 265 >> 5;
#X obj 411 478 hsl 162 19 0 127 0 0 empty empty empty -2 -10 0 12 #fcfcfc #000000 #000000 0 1;
#X obj 480 402 vsl 19 162 0 127 0 0 empty empty empty 0 -9 0 12 #fcfcfc #000000 #000000 0 1;
#X obj 403 318 << 5;
#X obj 359 318 << 1;
#X obj 310 319 >> 3;
#X text 372 61 see : https://stackoverflow.com/a/78925528;
#X text 372 81 bits : joyx(10) \, joyy(10) \, hatswitch(4) \, rotz(8) \, btns...;
#X obj 367 537 t a;
#N canvas 681 245 672 610 buttons 0;
#X obj 52 40 inlet;
#X obj 52 223 route btn_0 btn_1 btn_2 btn_3 btn_4 btn_5 btn_6 btn_7 btn_8 btn_9 btn_10 btn_11;
#X msg 86 368 btn2 \$1;
#X msg 120 345 btn3 \$1;
#X msg 154 322 btn4 \$1;
#X obj 284 550 outlet;
#X obj 185 51 s \$0-btn2-i;
#X obj 202 74 s \$0-btn3-i;
#X obj 218 97 s \$0-btn4-i;
#X msg 52 391 trigger \$1;
#X msg 188 391 btn5 \$1;
#X msg 222 368 btn6 \$1;
#X msg 257 345 btn7 \$1;
#X msg 291 322 btn8 \$1;
#X msg 325 299 btn9 \$1;
#X msg 359 276 btn10 \$1;
#X msg 393 391 btn11 \$1;
#X msg 427 368 btn12 \$1;
#X obj 168 28 s \$0-trigger-i;
#X obj 281 28 s \$0-btn5-i;
#X obj 297 51 s \$0-btn6-i;
#X obj 318 74 s \$0-btn7-i;
#X obj 338 97 s \$0-btn8-i;
#X obj 386 125 s \$0-btn9-i;
#X obj 410 148 s \$0-btn10-i;
#X obj 433 171 s \$0-btn11-i;
#X obj 450 194 s \$0-btn12-i;
#X connect 0 0 1 0;
#X connect 1 0 9 0;
#X connect 1 0 18 0;
#X connect 1 1 2 0;
#X connect 1 1 6 0;
#X connect 1 2 3 0;
#X connect 1 2 7 0;
#X connect 1 3 4 0;
#X connect 1 3 8 0;
#X connect 1 4 10 0;
#X connect 1 4 19 0;
#X connect 1 5 11 0;
#X connect 1 5 20 0;
#X connect 1 6 12 0;
#X connect 1 6 21 0;
#X connect 1 7 13 0;
#X connect 1 7 22 0;
#X connect 1 8 14 0;
#X connect 1 8 23 0;
#X connect 1 9 15 0;
#X connect 1 9 24 0;
#X connect 1 10 16 0;
#X connect 1 10 25 0;
#X connect 1 11 17 0;
#X connect 1 11 26 0;
#X connect 2 0 5 0;
#X connect 3 0 5 0;
#X connect 4 0 5 0;
#X connect 9 0 5 0;
#X connect 10 0 5 0;
#X connect 11 0 5 0;
#X connect 12 0 5 0;
#X connect 13 0 5 0;
#X connect 14 0 5 0;
#X connect 15 0 5 0;
#X connect 16 0 5 0;
#X connect 17 0 5 0;
#X restore 70 452 pd buttons;
#N canvas 238 309 686 476 cross-and-joystick 0;
#X obj 127 54 inlet;
#X obj 127 85 route hatswitch abs_x abs_y abs_rz abs_throttle;
#N canvas 516 53 763 821 cross 0;
#X msg 62 116 0;
#X msg 85 93 1;
#X msg 109 117 2;
#X msg 133 93 3;
#X msg 157 118 4;
#X msg 180 95 5;
#X msg 204 119 6;
#X msg 228 95 7;
#X msg 252 119 8;
#X obj 157 217 t f;
#X obj 428 250 list split;
#X obj 524 322 list append;
#X msg 428 149 0 0 0 0 0 0 0 0;
#X obj 524 243 list split 1;
#X obj 623 277 list split;
#X obj 565 135 t f f;
#X obj 609 171 swap 8;
#X obj 618 203 -;
#X obj 554 173 - 1;
#X floatatom 495 80 5 0 0 0 - - - 0;
#X obj 494 107 t b f;
#X obj 407 288 list append;
#X obj 524 270 t b;
#X msg 524 296 1;
#X obj 449 50 sel 0;
#X msg 311 250 0 0 0 0 0 0 0 0;
#X obj 228 418 t l l;
#X obj 288 454 unpack f f f f f f f f;
#X msg 274 648 cross-up \$1;
#X msg 297 625 cross-upright \$1;
#X msg 325 602 cross-right \$1;
#X msg 349 579 cross-downright \$1;
#X msg 374 556 cross-down \$1;
#X msg 399 533 cross-downleft \$1;
#X msg 423 510 cross-left \$1;
#X msg 445 487 cross-upleft \$1;
#X obj 157 544 list prepend cross-list;
#X obj 157 568 list trim;
#X obj 307 733 outlet;
#X obj 332 349 s \$0-cross-up-i;
#X obj 343 372 s \$0-cross-upright-i;
#X obj 358 394 s \$0-cross-right-i;
#X obj 371 417 s \$0-cross-downright-i;
#X obj 516 360 s \$0-cross-down-i;
#X obj 527 383 s \$0-cross-downleft-i;
#X obj 542 405 s \$0-cross-left-i;
#X obj 555 428 s \$0-cross-upleft-i;
#X obj 87 26 inlet;
#X obj 87 51 sel 8 0 1 2 3 4 5 6 7;
#X connect 0 0 9 0;
#X connect 1 0 9 0;
#X connect 2 0 9 0;
#X connect 3 0 9 0;
#X connect 4 0 9 0;
#X connect 5 0 9 0;
#X connect 6 0 9 0;
#X connect 7 0 9 0;
#X connect 8 0 9 0;
#X connect 9 0 24 0;
#X connect 10 0 21 0;
#X connect 10 1 13 0;
#X connect 11 0 21 1;
#X connect 12 0 10 0;
#X connect 13 0 22 0;
#X connect 13 1 14 0;
#X connect 14 0 11 1;
#X connect 15 0 18 0;
#X connect 15 1 16 0;
#X connect 16 0 17 0;
#X connect 16 1 17 1;
#X connect 17 0 14 1;
#X connect 18 0 10 1;
#X connect 19 0 20 0;
#X connect 20 0 12 0;
#X connect 20 1 15 0;
#X connect 21 0 26 0;
#X connect 22 0 23 0;
#X connect 23 0 11 0;
#X connect 24 0 25 0;
#X connect 24 1 19 0;
#X connect 25 0 26 0;
#X connect 26 0 36 0;
#X connect 26 1 27 0;
#X connect 27 0 28 0;
#X connect 27 0 39 0;
#X connect 27 1 29 0;
#X connect 27 1 40 0;
#X connect 27 2 30 0;
#X connect 27 2 41 0;
#X connect 27 3 31 0;
#X connect 27 3 42 0;
#X connect 27 4 32 0;
#X connect 27 4 43 0;
#X connect 27 5 33 0;
#X connect 27 5 44 0;
#X connect 27 6 34 0;
#X connect 27 6 45 0;
#X connect 27 7 35 0;
#X connect 27 7 46 0;
#X connect 28 0 38 0;
#X connect 29 0 38 0;
#X connect 30 0 38 0;
#X connect 31 0 38 0;
#X connect 32 0 38 0;
#X connect 33 0 38 0;
#X connect 34 0 38 0;
#X connect 35 0 38 0;
#X connect 36 0 37 0;
#X connect 37 0 38 0;
#X connect 47 0 48 0;
#X connect 48 0 0 0;
#X connect 48 1 1 0;
#X connect 48 2 2 0;
#X connect 48 3 3 0;
#X connect 48 4 4 0;
#X connect 48 5 5 0;
#X connect 48 6 6 0;
#X connect 48 7 7 0;
#X connect 48 8 8 0;
#X restore 95 188 pd cross;
#X obj 395 188 / 127;
#X obj 189 251 t f;
#X obj 373 251 t f;
#X obj 189 397 outlet;
#X obj 282 251 * -1;
#X obj 441 130 swap 255;
#X obj 441 163 -;
#X obj 441 188 / 255;
#X obj 381 333 s \$0-joystick-z-i;
#X msg 373 357 joystick-z \$1;
#X msg 282 307 joystick-y \$1;
#X obj 290 283 s \$0-joystick-y-i;
#X obj 197 333 s \$0-joystick-x-i;
#X msg 189 357 joystick-x \$1;
#X obj 164 163 / 511;
#X obj 213 163 - 512;
#X obj 213 188 / 511;
#X obj 257 163 / 511;
#X obj 302 163 - 512;
#X obj 302 188 / 511;
#X obj 165 136 moses 511;
#X obj 257 136 moses 511;
#X obj 349 135 moses 127;
#X obj 349 163 / 127;
#X obj 395 163 - 128;
#X obj 449 277 s \$0-knob-i;
#X msg 441 301 knob \$1;
#X obj 164 188 - 1;
#X obj 257 188 - 1;
#X obj 349 188 - 1;
#X connect 0 0 1 0;
#X connect 1 0 2 0;
#X connect 1 1 23 0;
#X connect 1 2 24 0;
#X connect 1 3 25 0;
#X connect 1 4 8 0;
#X connect 2 0 6 0;
#X connect 3 0 5 0;
#X connect 4 0 16 0;
#X connect 4 0 15 0;
#X connect 5 0 12 0;
#X connect 5 0 11 0;
#X connect 7 0 13 0;
#X connect 7 0 14 0;
#X connect 8 0 9 0;
#X connect 8 1 9 1;
#X connect 9 0 10 0;
#X connect 10 0 28 0;
#X connect 10 0 29 0;
#X connect 12 0 6 0;
#X connect 13 0 6 0;
#X connect 16 0 6 0;
#X connect 17 0 30 0;
#X connect 18 0 19 0;
#X connect 19 0 4 0;
#X connect 20 0 31 0;
#X connect 21 0 22 0;
#X connect 22 0 7 0;
#X connect 23 0 17 0;
#X connect 23 1 18 0;
#X connect 24 0 20 0;
#X connect 24 1 21 0;
#X connect 25 0 26 0;
#X connect 25 1 27 0;
#X connect 26 0 32 0;
#X connect 27 0 3 0;
#X connect 29 0 6 0;
#X connect 30 0 4 0;
#X connect 31 0 7 0;
#X connect 32 0 5 0;
#X restore 150 452 pd cross-and-joystick;
#X text 32 423 from [hid]-based logitech-extreme-3d astraction :;
#X connect 0 0 1 0;
#X connect 0 1 2 0;
#X connect 0 2 3 0;
#X connect 0 3 4 0;
#X connect 0 4 4 1;
#X connect 0 5 5 0;
#X connect 0 6 5 1;
#X connect 1 0 6 0;
#X connect 2 0 6 0;
#X connect 3 0 6 0;
#X connect 4 0 6 0;
#X connect 5 0 6 0;
#X connect 7 0 8 0;
#X connect 8 0 9 0;
#X connect 8 1 10 0;
#X connect 8 2 11 0;
#X connect 8 3 12 0;
#X connect 8 4 13 0;
#X connect 8 4 17 0;
#X connect 8 5 14 0;
#X connect 8 6 15 0;
#X connect 8 7 16 0;
#X connect 9 0 19 0;
#X connect 10 0 24 0;
#X connect 11 0 27 0;
#X connect 17 0 45 0;
#X connect 19 0 23 0;
#X connect 19 1 22 0;
#X connect 20 0 42 0;
#X connect 21 0 41 0;
#X connect 22 0 21 0;
#X connect 23 0 20 0;
#X connect 24 0 34 0;
#X connect 24 1 37 0;
#X connect 25 0 40 0;
#X connect 26 0 33 0;
#X connect 27 0 31 0;
#X connect 27 1 30 0;
#X connect 28 0 36 0;
#X connect 30 0 29 0;
#X connect 31 0 28 0;
#X connect 32 0 38 0;
#X connect 33 0 39 0;
#X connect 34 0 25 0;
#X connect 35 0 32 1;
#X connect 36 0 33 1;
#X connect 37 0 26 0;
#X connect 40 0 35 1;
#X connect 41 0 35 0;
#X connect 42 0 32 0;
#X connect 45 0 6 0;
#X restore 31 271 pd parse-bytes;
#X connect 0 0 2 0;
#X connect 1 0 44 0;
#X connect 3 0 6 0;
#X connect 4 0 6 0;
#X connect 5 0 4 0;
#X connect 8 0 4 0;
#X connect 8 1 3 0;
#X connect 9 0 10 0;
#X connect 10 0 7 0;
#X connect 11 0 18 0;
#X connect 13 0 14 0;
#X connect 14 0 12 0;
#X connect 15 0 12 0;
#X connect 16 0 17 0;
#X connect 17 0 15 0;
#X connect 18 0 4 0;
#X connect 19 0 8 0;
#X connect 20 0 9 0;
#X connect 27 0 26 0;
#X connect 28 0 34 0;
#X connect 29 0 30 0;
#X connect 29 1 31 0;
#X connect 30 0 33 0;
#X connect 31 0 33 0;
#X connect 31 1 35 1;
#X connect 32 0 27 1;
#X connect 33 0 32 0;
#X connect 33 1 28 1;
#X connect 34 0 35 0;
#X connect 35 0 36 0;
#X connect 37 0 27 0;
#X connect 37 1 28 0;
#X connect 40 0 41 0;
#X connect 42 0 46 0;
#X connect 43 0 49 0;
#X connect 44 0 2 1;
#X connect 45 0 29 0;
#X connect 46 0 40 0;
#X connect 48 0 43 0;
#X connect 50 0 51 0;
#X connect 51 0 52 0;
#X connect 51 1 55 0;
#X connect 51 1 56 1;
#X connect 52 0 53 0;
#X connect 53 0 58 0;
#X connect 53 1 56 0;
#X connect 54 0 55 1;
#X connect 55 0 57 0;
#X connect 57 0 53 0;
#X connect 58 0 37 0;
#X coords 0 -1 1 1 82 45 2 30 30;
