#N canvas 494 435 671 631 12;
#X obj 235 506 r \$0-controls;
#X obj 253 531 r \$0-id;
#X obj 235 581 s;
#X msg 353 440 color #00ff00 #00ff00 #000000;
#X msg 330 416 color #ff0000 #ff0000 #000000;
#X obj 391 361 loadbang;
#X obj 330 466 s \$0-activity-i;
#X obj 330 297 s \$0-connect-i;
#X obj 330 355 sel 0 1;
#X obj 330 251 sel 0 1;
#X msg 330 274 0;
#X obj 456 361 r \$0-connect-o;
#X obj 511 267 s \$0-label-i;
#X obj 541 203 loadbang;
#X msg 541 226 label;
#X msg 474 226 label \$1;
#X obj 474 157 r \$0-id;
#X obj 474 180 makefilename %i;
#X obj 456 385 sel 0;
#X obj 330 331 r \$0-connected;
#X obj 330 228 r \$0-connected;
#X obj 30 30 cnv 19 82 45 empty empty Joystick 8 12 0 12 #e0e0e0 #404040 0;
#X obj 52 53 tgl 19 0 \$0-activity-o \$0-activity-i empty 0 -10 0 12 #ff0000 #ff0000 #000000 0 1;
#X obj 33 53 tgl 19 0 \$0-connect-o \$0-connect-i empty 0 -10 0 12 #fcfcfc #000000 #000000 0 1;
#X obj 71 53 cnv 19 19 19 empty empty empty 6 10 0 12 #000000 #404040 0;
#X obj 72 54 cnv 10 17 17 empty \$0-label-i 1 5 9 0 12 #e0e0e0 #404040 0;
#X obj 31 227 hid;
#X obj 31 278 route key rel abs syn;
#X obj 229 119 s \$0-device-id;
#X obj 61 227 route open;
#X obj 61 251 s \$0-connected;
#N canvas 681 245 672 610 buttons 0;
#X obj 52 40 inlet;
#X obj 52 223 route btn_0 btn_1 btn_2 btn_3 btn_4 btn_5 btn_6 btn_7 btn_8 btn_9 btn_10 btn_11;
#X msg 86 368 btn2 \$1;
#X msg 120 345 btn3 \$1;
#X msg 154 322 btn4 \$1;
#X obj 284 550 outlet;
#X obj 185 51 s \$0-btn2-i;
#X obj 202 74 s \$0-btn3-i;
#X obj 218 97 s \$0-btn4-i;
#X msg 52 391 trigger \$1;
#X msg 188 391 btn5 \$1;
#X msg 222 368 btn6 \$1;
#X msg 257 345 btn7 \$1;
#X msg 291 322 btn8 \$1;
#X msg 325 299 btn9 \$1;
#X msg 359 276 btn10 \$1;
#X msg 393 391 btn11 \$1;
#X msg 427 368 btn12 \$1;
#X obj 168 28 s \$0-trigger-i;
#X obj 281 28 s \$0-btn5-i;
#X obj 297 51 s \$0-btn6-i;
#X obj 318 74 s \$0-btn7-i;
#X obj 338 97 s \$0-btn8-i;
#X obj 386 125 s \$0-btn9-i;
#X obj 410 148 s \$0-btn10-i;
#X obj 433 171 s \$0-btn11-i;
#X obj 450 194 s \$0-btn12-i;
#X connect 0 0 1 0;
#X connect 1 0 9 0;
#X connect 1 0 18 0;
#X connect 1 1 2 0;
#X connect 1 1 6 0;
#X connect 1 2 3 0;
#X connect 1 2 7 0;
#X connect 1 3 4 0;
#X connect 1 3 8 0;
#X connect 1 4 10 0;
#X connect 1 4 19 0;
#X connect 1 5 11 0;
#X connect 1 5 20 0;
#X connect 1 6 12 0;
#X connect 1 6 21 0;
#X connect 1 7 13 0;
#X connect 1 7 22 0;
#X connect 1 8 14 0;
#X connect 1 8 23 0;
#X connect 1 9 15 0;
#X connect 1 9 24 0;
#X connect 1 10 16 0;
#X connect 1 10 25 0;
#X connect 1 11 17 0;
#X connect 1 11 26 0;
#X connect 2 0 5 0;
#X connect 3 0 5 0;
#X connect 4 0 5 0;
#X connect 9 0 5 0;
#X connect 10 0 5 0;
#X connect 11 0 5 0;
#X connect 12 0 5 0;
#X connect 13 0 5 0;
#X connect 14 0 5 0;
#X connect 15 0 5 0;
#X connect 16 0 5 0;
#X connect 17 0 5 0;
#X restore 31 310 pd buttons;
#X obj 31 556 s \$0-controls;
#X obj 31 468 spigot;
#X obj 81 468 spigot;
#X obj 120 379 sel 0;
#X obj 120 403 t 0;
#X obj 152 403 t 1 f;
#X obj 84 432 == 0;
#X obj 120 432 t f f;
#N canvas 875 191 473 383 assign 0;
#X obj 28 41 inlet;
#X obj 186 246 sel 1;
#X obj 186 279 outlet;
#X obj 28 70 route trigger btn2 btn3 btn4 btn4 btn5 btn6 btn7 btn8 btn9 btn10 btn11 btn12;
#X connect 0 0 3 0;
#X connect 1 0 2 0;
#X connect 3 0 1 0;
#X connect 3 1 1 0;
#X connect 3 2 1 0;
#X connect 3 3 1 0;
#X connect 3 4 1 0;
#X connect 3 5 1 0;
#X connect 3 6 1 0;
#X connect 3 7 1 0;
#X connect 3 8 1 0;
#X connect 3 9 1 0;
#X connect 3 10 1 0;
#X connect 3 11 1 0;
#X connect 3 12 1 0;
#X restore 81 496 pd assign;
#X obj 134 531 f;
#X obj 134 556 s \$0-id;
#X obj 31 432 t a a;
#X obj 90 53 bng 19 250 50 0 \$0-open-ui-o \$0-open-ui-i empty 0 -10 0 12 #fcfcfc #000000 #000000;
#X text 91 53 ui;
#X obj 459 536 makefilename pd-%i-ui;
#X msg 459 559 \; \$1 vis 1;
#X obj 459 490 r \$0-open-ui-o;
#N canvas 689 230 407 436 device-id-from-list-and-instance-nb 0;
#X obj 175 285 list split;
#X obj 208 309 list split 1;
#X obj 278 37 loadbang;
#X obj 278 60 f \$1;
#X obj 150 106 list length;
#X obj 182 169 <;
#X obj 278 83 t f f;
#X obj 118 82 t l l;
#X obj 98 31 inlet;
#X obj 166 362 outlet;
#X obj 182 192 t f f;
#X obj 175 252 spigot;
#X obj 120 253 sel 1;
#X msg 120 287 -1;
#X obj 214 221 == 0;
#X obj 150 130 - 1;
#X connect 0 1 1 0;
#X connect 1 0 9 0;
#X connect 2 0 3 0;
#X connect 3 0 6 0;
#X connect 4 0 15 0;
#X connect 5 0 10 0;
#X connect 6 0 5 1;
#X connect 6 1 0 1;
#X connect 7 0 11 0;
#X connect 7 1 4 0;
#X connect 8 0 7 0;
#X connect 10 0 12 0;
#X connect 10 1 14 0;
#X connect 11 0 0 0;
#X connect 12 0 13 0;
#X connect 13 0 9 0;
#X connect 14 0 11 1;
#X connect 15 0 5 0;
#X restore 229 95 pd device-id-from-list-and-instance-nb;
#X obj 229 71 r extreme3D-ids;
#X obj 253 556 makefilename joystick-%i;
#N canvas 238 309 686 476 cross-and-joystick 0;
#X obj 127 54 inlet;
#X obj 127 85 route hatswitch abs_x abs_y abs_rz abs_throttle;
#N canvas 516 53 763 821 cross 0;
#X msg 62 116 0;
#X msg 85 93 1;
#X msg 109 117 2;
#X msg 133 93 3;
#X msg 157 118 4;
#X msg 180 95 5;
#X msg 204 119 6;
#X msg 228 95 7;
#X msg 252 119 8;
#X obj 157 217 t f;
#X obj 428 250 list split;
#X obj 524 322 list append;
#X msg 428 149 0 0 0 0 0 0 0 0;
#X obj 524 243 list split 1;
#X obj 623 277 list split;
#X obj 565 135 t f f;
#X obj 609 171 swap 8;
#X obj 618 203 -;
#X obj 554 173 - 1;
#X floatatom 495 80 5 0 0 0 - - - 0;
#X obj 494 107 t b f;
#X obj 407 288 list append;
#X obj 524 270 t b;
#X msg 524 296 1;
#X obj 449 50 sel 0;
#X msg 311 250 0 0 0 0 0 0 0 0;
#X obj 228 418 t l l;
#X obj 288 454 unpack f f f f f f f f;
#X msg 274 648 cross-up \$1;
#X msg 297 625 cross-upright \$1;
#X msg 325 602 cross-right \$1;
#X msg 349 579 cross-downright \$1;
#X msg 374 556 cross-down \$1;
#X msg 399 533 cross-downleft \$1;
#X msg 423 510 cross-left \$1;
#X msg 445 487 cross-upleft \$1;
#X obj 157 544 list prepend cross-list;
#X obj 157 568 list trim;
#X obj 307 733 outlet;
#X obj 332 349 s \$0-cross-up-i;
#X obj 343 372 s \$0-cross-upright-i;
#X obj 358 394 s \$0-cross-right-i;
#X obj 371 417 s \$0-cross-downright-i;
#X obj 516 360 s \$0-cross-down-i;
#X obj 527 383 s \$0-cross-downleft-i;
#X obj 542 405 s \$0-cross-left-i;
#X obj 555 428 s \$0-cross-upleft-i;
#X obj 87 26 inlet;
#X obj 87 51 sel 8 0 1 2 3 4 5 6 7;
#X connect 0 0 9 0;
#X connect 1 0 9 0;
#X connect 2 0 9 0;
#X connect 3 0 9 0;
#X connect 4 0 9 0;
#X connect 5 0 9 0;
#X connect 6 0 9 0;
#X connect 7 0 9 0;
#X connect 8 0 9 0;
#X connect 9 0 24 0;
#X connect 10 0 21 0;
#X connect 10 1 13 0;
#X connect 11 0 21 1;
#X connect 12 0 10 0;
#X connect 13 0 22 0;
#X connect 13 1 14 0;
#X connect 14 0 11 1;
#X connect 15 0 18 0;
#X connect 15 1 16 0;
#X connect 16 0 17 0;
#X connect 16 1 17 1;
#X connect 17 0 14 1;
#X connect 18 0 10 1;
#X connect 19 0 20 0;
#X connect 20 0 12 0;
#X connect 20 1 15 0;
#X connect 21 0 26 0;
#X connect 22 0 23 0;
#X connect 23 0 11 0;
#X connect 24 0 25 0;
#X connect 24 1 19 0;
#X connect 25 0 26 0;
#X connect 26 0 36 0;
#X connect 26 1 27 0;
#X connect 27 0 28 0;
#X connect 27 0 39 0;
#X connect 27 1 29 0;
#X connect 27 1 40 0;
#X connect 27 2 30 0;
#X connect 27 2 41 0;
#X connect 27 3 31 0;
#X connect 27 3 42 0;
#X connect 27 4 32 0;
#X connect 27 4 43 0;
#X connect 27 5 33 0;
#X connect 27 5 44 0;
#X connect 27 6 34 0;
#X connect 27 6 45 0;
#X connect 27 7 35 0;
#X connect 27 7 46 0;
#X connect 28 0 38 0;
#X connect 29 0 38 0;
#X connect 30 0 38 0;
#X connect 31 0 38 0;
#X connect 32 0 38 0;
#X connect 33 0 38 0;
#X connect 34 0 38 0;
#X connect 35 0 38 0;
#X connect 36 0 37 0;
#X connect 37 0 38 0;
#X connect 47 0 48 0;
#X connect 48 0 0 0;
#X connect 48 1 1 0;
#X connect 48 2 2 0;
#X connect 48 3 3 0;
#X connect 48 4 4 0;
#X connect 48 5 5 0;
#X connect 48 6 6 0;
#X connect 48 7 7 0;
#X connect 48 8 8 0;
#X restore 95 188 pd cross;
#X obj 395 188 / 127;
#X obj 189 251 t f;
#X obj 373 251 t f;
#X obj 189 397 outlet;
#X obj 282 251 * -1;
#X obj 441 130 swap 255;
#X obj 441 163 -;
#X obj 441 188 / 255;
#X obj 381 333 s \$0-joystick-z-i;
#X msg 373 357 joystick-z \$1;
#X msg 282 307 joystick-y \$1;
#X obj 290 283 s \$0-joystick-y-i;
#X obj 197 333 s \$0-joystick-x-i;
#X msg 189 357 joystick-x \$1;
#X obj 164 163 / 511;
#X obj 213 163 - 512;
#X obj 213 188 / 511;
#X obj 257 163 / 511;
#X obj 302 163 - 512;
#X obj 302 188 / 511;
#X obj 165 136 moses 511;
#X obj 257 136 moses 511;
#X obj 349 135 moses 127;
#X obj 349 163 / 127;
#X obj 395 163 - 128;
#X obj 449 277 s \$0-knob-i;
#X msg 441 301 knob \$1;
#X obj 164 188 - 1;
#X obj 257 188 - 1;
#X obj 349 188 - 1;
#X connect 0 0 1 0;
#X connect 1 0 2 0;
#X connect 1 1 23 0;
#X connect 1 2 24 0;
#X connect 1 3 25 0;
#X connect 1 4 8 0;
#X connect 2 0 6 0;
#X connect 3 0 5 0;
#X connect 4 0 16 0;
#X connect 4 0 15 0;
#X connect 5 0 12 0;
#X connect 5 0 11 0;
#X connect 7 0 13 0;
#X connect 7 0 14 0;
#X connect 8 0 9 0;
#X connect 8 1 9 1;
#X connect 9 0 10 0;
#X connect 10 0 28 0;
#X connect 10 0 29 0;
#X connect 12 0 6 0;
#X connect 13 0 6 0;
#X connect 16 0 6 0;
#X connect 17 0 30 0;
#X connect 18 0 19 0;
#X connect 19 0 4 0;
#X connect 20 0 31 0;
#X connect 21 0 22 0;
#X connect 22 0 7 0;
#X connect 23 0 17 0;
#X connect 23 1 18 0;
#X connect 24 0 20 0;
#X connect 24 1 21 0;
#X connect 25 0 26 0;
#X connect 25 1 27 0;
#X connect 26 0 32 0;
#X connect 27 0 3 0;
#X connect 29 0 6 0;
#X connect 30 0 4 0;
#X connect 31 0 7 0;
#X connect 32 0 5 0;
#X restore 111 310 pd cross-and-joystick;
#X obj 120 355 r joystick-assign;
#X obj 459 513 f \$0;
#N canvas 1 38 216 374 \$0-ui 0;
#X obj 11 11 cnv 19 190 350 empty empty empty 20 12 0 12 #404040 #404040 0;
#X obj 143 18 tgl 26 0 \$0-trigger-o \$0-trigger-i empty 0 -10 0 12 #fcfcfc #000000 #000000 0 1;
#X obj 83 76 tgl 26 0 \$0-btn2-o \$0-btn2-i empty 0 -10 0 12 #fcfcfc #000000 #000000 0 1;
#X obj 132 151 tgl 19 0 \$0-btn3-o \$0-btn3-i empty 0 -10 0 12 #fcfcfc #000000 #000000 0 1;
#X obj 161 151 tgl 19 0 \$0-btn4-o \$0-btn4-i empty 0 -10 0 12 #fcfcfc #000000 #000000 0 1;
#X obj 149 58 tgl 14 0 \$0-cross-up-o \$0-cross-up-i empty 0 -10 0 12 #fcfcfc #000000 #000000 0 1;
#X obj 173 82 tgl 14 0 \$0-cross-right-o \$0-cross-right-i empty 0 -10 0 12 #fcfcfc #000000 #000000 0 1;
#X obj 149 106 tgl 14 0 \$0-cross-down-o \$0-cross-down-i empty 0 -10 0 12 #fcfcfc #000000 #000000 0 1;
#X obj 125 82 tgl 14 0 \$0-cross-left-o \$0-cross-left-i empty 0 -10 0 12 #fcfcfc #000000 #000000 0 1;
#X obj 130 63 tgl 14 0 \$0-cross-upleft-o \$0-cross-upleft-i empty 0 -10 0 12 #fcfcfc #000000 #000000 0 1;
#X obj 168 63 tgl 14 0 \$0-cross-upright-o \$0-cross-upright-i empty 0 -10 0 12 #fcfcfc #000000 #000000 0 1;
#X obj 169 101 tgl 14 0 \$0-cross-downright-o \$0-cross-downright-i empty 0 -10 0 12 #fcfcfc #000000 #000000 0 1;
#X obj 129 101 tgl 14 0 \$0-cross-downleft-o \$0-cross-downleft-i empty 0 -10 0 12 #fcfcfc #000000 #000000 0 1;
#X obj 123 255 hsl 64 14 -1 1 0 0 \$0-joystick-x-o \$0-joystick-x-i empty -2 -10 0 12 #fcfcfc #000000 #000000 0 0;
#X obj 149 229 vsl 14 64 -1 1 0 0 \$0-joystick-y-o \$0-joystick-y-i empty 0 -9 0 12 #fcfcfc #000000 #000000 0 0;
#X obj 123 127 tgl 19 0 \$0-btn5-o \$0-btn5-i empty 0 -10 0 12 #fcfcfc #000000 #000000 0 1;
#X obj 171 127 tgl 19 0 \$0-btn6-o \$0-btn6-i empty 0 -10 0 12 #fcfcfc #000000 #000000 0 1;
#X obj 137 201 hsl 38 14 -1 1 0 0 \$0-joystick-Z-o \$0-joystick-z-i empty -2 -10 0 12 #fcfcfc #000000 #000000 0 0;
#X obj 149 311 vsl 14 38 0 1 0 0 \$0-knob-o \$0-knob-i empty 0 -9 0 12 #fcfcfc #000000 #000000 0 0;
#X obj 54 262 tgl 26 0 \$0-btn8-o \$0-btn8-i empty 0 -10 0 12 #fcfcfc #000000 #000000 0 1;
#X obj 54 294 tgl 26 0 \$0-btn10-o \$0-btn10-i empty 0 -10 0 12 #fcfcfc #000000 #000000 0 1;
#X obj 54 326 tgl 26 0 \$0-btn12-o \$0-btn12-i empty 0 -10 0 12 #fcfcfc #000000 #000000 0 1;
#X obj 21 262 tgl 26 0 \$0-btn7-o \$0-btn7-i empty 0 -10 0 12 #fcfcfc #000000 #000000 0 1;
#X obj 21 294 tgl 26 0 \$0-btn9-o \$0-btn9-i empty 0 -10 0 12 #fcfcfc #000000 #000000 0 1;
#X obj 21 326 tgl 26 0 \$0-btn11-o \$0-btn11-i empty 0 -10 0 12 #fcfcfc #000000 #000000 0 1;
#X restore 551 565 pd \$0-ui;
#X obj 97 134 r \$0-device-id;
#X obj 79 158 f;
#X obj 31 94 r \$0-connect-o;
#X msg 79 182 close \, open \$1 \, info \, poll 20;
#X obj 31 120 sel 0 1;
#X msg 31 182 close;
#X connect 0 0 2 0;
#X connect 1 0 51 0;
#X connect 3 0 6 0;
#X connect 4 0 6 0;
#X connect 5 0 4 0;
#X connect 8 0 4 0;
#X connect 8 1 3 0;
#X connect 9 0 10 0;
#X connect 10 0 7 0;
#X connect 11 0 18 0;
#X connect 13 0 14 0;
#X connect 14 0 12 0;
#X connect 15 0 12 0;
#X connect 16 0 17 0;
#X connect 17 0 15 0;
#X connect 18 0 4 0;
#X connect 19 0 8 0;
#X connect 20 0 9 0;
#X connect 26 0 27 0;
#X connect 26 1 29 0;
#X connect 27 0 31 0;
#X connect 27 2 52 0;
#X connect 29 0 30 0;
#X connect 31 0 43 0;
#X connect 33 0 32 0;
#X connect 34 0 40 0;
#X connect 35 0 36 0;
#X connect 35 1 37 0;
#X connect 36 0 39 0;
#X connect 37 0 39 0;
#X connect 37 1 41 1;
#X connect 38 0 33 1;
#X connect 39 0 38 0;
#X connect 39 1 34 1;
#X connect 40 0 41 0;
#X connect 41 0 42 0;
#X connect 43 0 33 0;
#X connect 43 1 34 0;
#X connect 46 0 47 0;
#X connect 48 0 54 0;
#X connect 49 0 28 0;
#X connect 50 0 49 0;
#X connect 51 0 2 1;
#X connect 52 0 43 0;
#X connect 53 0 35 0;
#X connect 54 0 46 0;
#X connect 56 0 57 1;
#X connect 57 0 59 0;
#X connect 58 0 60 0;
#X connect 59 0 26 0;
#X connect 60 0 61 0;
#X connect 60 1 57 0;
#X connect 61 0 26 0;
#X coords 0 -1 1 1 82 45 2 30 30;
