#N canvas 695 74 671 631 12;
#X obj 235 506 r \$0-controls;
#X obj 253 531 r \$0-id;
#X obj 235 581 s;
#X msg 353 440 color #00ff00 #00ff00 #000000;
#X msg 330 416 color #ff0000 #ff0000 #000000;
#X obj 391 361 loadbang;
#X obj 330 466 s \$0-activity-i;
#X obj 330 297 s \$0-connect-i;
#X obj 330 355 sel 0 1;
#X obj 330 251 sel 0 1;
#X msg 330 274 0;
#X obj 456 361 r \$0-connect-o;
#X obj 511 267 s \$0-label-i;
#X obj 541 203 loadbang;
#X msg 541 226 label;
#X msg 474 226 label \$1;
#X obj 474 157 r \$0-id;
#X obj 474 180 makefilename %i;
#X obj 456 385 sel 0;
#X obj 330 331 r \$0-connected;
#X obj 330 228 r \$0-connected;
#X obj 30 30 cnv 19 82 45 empty empty Joystick 8 12 0 12 #e0e0e0 #404040 0;
#X obj 52 53 tgl 19 0 \$0-activity-o \$0-activity-i empty 0 -10 0 12 #00ff00 #00ff00 #000000 0 1;
#X obj 33 53 tgl 19 0 \$0-connect-o \$0-connect-i empty 0 -10 0 12 #fcfcfc #000000 #000000 0 1;
#X obj 71 53 cnv 19 19 19 empty empty empty 6 10 0 12 #000000 #404040 0;
#X obj 72 54 cnv 10 17 17 empty \$0-label-i 1 5 9 0 12 #e0e0e0 #404040 0;
#X obj 31 556 s \$0-controls;
#X obj 31 468 spigot;
#X obj 81 468 spigot;
#X obj 120 379 sel 0;
#X obj 120 403 t 0;
#X obj 152 403 t 1 f;
#X obj 84 432 == 0;
#X obj 120 432 t f f;
#N canvas 875 191 473 383 assign 0;
#X obj 28 41 inlet;
#X obj 186 246 sel 1;
#X obj 186 279 outlet;
#X obj 28 70 route trigger btn2 btn3 btn4 btn4 btn5 btn6 btn7 btn8 btn9 btn10 btn11 btn12;
#X connect 0 0 3 0;
#X connect 1 0 2 0;
#X connect 3 0 1 0;
#X connect 3 1 1 0;
#X connect 3 2 1 0;
#X connect 3 3 1 0;
#X connect 3 4 1 0;
#X connect 3 5 1 0;
#X connect 3 6 1 0;
#X connect 3 7 1 0;
#X connect 3 8 1 0;
#X connect 3 9 1 0;
#X connect 3 10 1 0;
#X connect 3 11 1 0;
#X connect 3 12 1 0;
#X restore 81 496 pd assign;
#X obj 134 531 f;
#X obj 134 556 s \$0-id;
#X obj 31 432 t a a;
#X obj 90 53 bng 19 250 50 0 \$0-open-ui-o \$0-open-ui-i empty 0 -10 0 12 #fcfcfc #000000 #000000;
#X text 91 53 ui;
#X obj 459 536 makefilename pd-%i-ui;
#X msg 459 559 \; \$1 vis 1;
#X obj 459 490 r \$0-open-ui-o;
#N canvas 689 230 407 436 device-id-from-list-and-instance-nb 0;
#X obj 175 285 list split;
#X obj 208 309 list split 1;
#X obj 278 37 loadbang;
#X obj 278 60 f \$1;
#X obj 150 106 list length;
#X obj 182 169 <;
#X obj 278 83 t f f;
#X obj 118 82 t l l;
#X obj 98 31 inlet;
#X obj 156 388 outlet;
#X obj 182 192 t f f;
#X obj 175 252 spigot;
#X obj 120 253 sel 1;
#X obj 214 221 == 0;
#X obj 150 130 - 1;
#X obj 156 358 symbol;
#X msg 120 287 nopath;
#X connect 0 1 1 0;
#X connect 1 0 15 0;
#X connect 2 0 3 0;
#X connect 3 0 6 0;
#X connect 4 0 14 0;
#X connect 5 0 10 0;
#X connect 6 0 5 1;
#X connect 6 1 0 1;
#X connect 7 0 11 0;
#X connect 7 1 4 0;
#X connect 8 0 7 0;
#X connect 10 0 12 0;
#X connect 10 1 13 0;
#X connect 11 0 0 0;
#X connect 12 0 16 0;
#X connect 13 0 11 1;
#X connect 14 0 5 0;
#X connect 15 0 9 0;
#X connect 16 0 15 0;
#X restore 229 95 pd device-id-from-list-and-instance-nb;
#X obj 253 556 makefilename joystick-%i;
#X obj 120 355 r joystick-assign;
#X obj 459 513 f \$0;
#N canvas 1 38 216 374 \$0-ui 1;
#X obj 11 11 cnv 19 190 350 empty empty empty 20 12 0 12 #404040 #404040 0;
#X obj 143 18 tgl 26 0 \$0-trigger-o \$0-trigger-i empty 0 -10 0 12 #fcfcfc #000000 #000000 0 1;
#X obj 83 76 tgl 26 0 \$0-btn2-o \$0-btn2-i empty 0 -10 0 12 #fcfcfc #000000 #000000 0 1;
#X obj 132 151 tgl 19 0 \$0-btn3-o \$0-btn3-i empty 0 -10 0 12 #fcfcfc #000000 #000000 0 1;
#X obj 161 151 tgl 19 0 \$0-btn4-o \$0-btn4-i empty 0 -10 0 12 #fcfcfc #000000 #000000 0 1;
#X obj 149 58 tgl 14 0 \$0-cross-up-o \$0-cross-up-i empty 0 -10 0 12 #fcfcfc #000000 #000000 0 1;
#X obj 173 82 tgl 14 0 \$0-cross-right-o \$0-cross-right-i empty 0 -10 0 12 #fcfcfc #000000 #000000 0 1;
#X obj 149 106 tgl 14 0 \$0-cross-down-o \$0-cross-down-i empty 0 -10 0 12 #fcfcfc #000000 #000000 0 1;
#X obj 125 82 tgl 14 0 \$0-cross-left-o \$0-cross-left-i empty 0 -10 0 12 #fcfcfc #000000 #000000 0 1;
#X obj 130 63 tgl 14 0 \$0-cross-upleft-o \$0-cross-upleft-i empty 0 -10 0 12 #fcfcfc #000000 #000000 0 1;
#X obj 168 63 tgl 14 0 \$0-cross-upright-o \$0-cross-upright-i empty 0 -10 0 12 #fcfcfc #000000 #000000 0 1;
#X obj 169 101 tgl 14 0 \$0-cross-downright-o \$0-cross-downright-i empty 0 -10 0 12 #fcfcfc #000000 #000000 0 1;
#X obj 129 101 tgl 14 0 \$0-cross-downleft-o \$0-cross-downleft-i empty 0 -10 0 12 #fcfcfc #000000 #000000 0 1;
#X obj 123 255 hsl 64 14 -1 1 0 0 \$0-joystick-x-o \$0-joystick-x-i empty -2 -10 0 12 #fcfcfc #000000 #000000 0 0;
#X obj 149 229 vsl 14 64 -1 1 0 0 \$0-joystick-y-o \$0-joystick-y-i empty 0 -9 0 12 #fcfcfc #000000 #000000 0 0;
#X obj 123 127 tgl 19 0 \$0-btn5-o \$0-btn5-i empty 0 -10 0 12 #fcfcfc #000000 #000000 0 1;
#X obj 171 127 tgl 19 0 \$0-btn6-o \$0-btn6-i empty 0 -10 0 12 #fcfcfc #000000 #000000 0 1;
#X obj 137 201 hsl 38 14 -1 1 0 0 \$0-joystick-Z-o \$0-joystick-z-i empty -2 -10 0 12 #fcfcfc #000000 #000000 0 0;
#X obj 149 311 vsl 14 38 0 1 0 0 \$0-knob-o \$0-knob-i empty 0 -9 0 12 #fcfcfc #000000 #000000 0 0;
#X obj 54 262 tgl 26 0 \$0-btn8-o \$0-btn8-i empty 0 -10 0 12 #fcfcfc #000000 #000000 0 1;
#X obj 54 294 tgl 26 0 \$0-btn10-o \$0-btn10-i empty 0 -10 0 12 #fcfcfc #000000 #000000 0 1;
#X obj 54 326 tgl 26 0 \$0-btn12-o \$0-btn12-i empty 0 -10 0 12 #fcfcfc #000000 #000000 0 1;
#X obj 21 262 tgl 26 0 \$0-btn7-o \$0-btn7-i empty 0 -10 0 12 #fcfcfc #000000 #000000 0 1;
#X obj 21 294 tgl 26 0 \$0-btn9-o \$0-btn9-i empty 0 -10 0 12 #fcfcfc #000000 #000000 0 1;
#X obj 21 326 tgl 26 0 \$0-btn11-o \$0-btn11-i empty 0 -10 0 12 #fcfcfc #000000 #000000 0 1;
#X restore 551 565 pd \$0-ui;
#X obj 229 71 r extreme3D-paths;
#X obj 229 119 s \$0-device-path;
#X obj 31 104 r \$0-connect-o;
#X obj 31 130 sel 0 1;
#X msg 31 192 close;
#X obj 126 144 r \$0-device-path;
#X obj 87 167 symbol;
#N canvas 1223 400 450 300 connected 0;
#X msg 126 98 stop;
#X msg 227 180 1;
#X msg 155 179 0;
#X obj 143 150 del 500;
#X obj 154 74 sel 1 -1;
#X obj 154 48 inlet;
#X obj 225 73 t b b;
#X obj 225 47 inlet;
#X obj 155 228 s \$0-connected;
#X connect 0 0 3 0;
#X connect 1 0 8 0;
#X connect 2 0 8 0;
#X connect 3 0 2 0;
#X connect 4 0 0 0;
#X connect 4 1 2 0;
#X connect 5 0 4 0;
#X connect 6 0 3 0;
#X connect 6 1 1 0;
#X connect 7 0 6 0;
#X restore 129 267 pd connected;
#N canvas 165 51 583 629 parse-bytes 0;
#N canvas 528 30 799 675 cross 0;
#X msg 33 167 0;
#X msg 56 144 1;
#X msg 80 168 2;
#X msg 104 144 3;
#X msg 128 169 4;
#X msg 151 146 5;
#X msg 175 170 6;
#X msg 199 146 7;
#X msg 223 170 8;
#X obj 62 8 inlet;
#X obj 128 268 t f;
#X obj 428 250 list split;
#X obj 524 322 list append;
#X msg 428 149 0 0 0 0 0 0 0 0;
#X obj 524 243 list split 1;
#X obj 623 277 list split;
#X obj 565 135 t f f;
#X obj 609 171 swap 8;
#X obj 618 203 -;
#X obj 554 173 - 1;
#X floatatom 495 80 5 0 0 0 - - - 0;
#X obj 494 107 t b f;
#X obj 407 288 list append;
#X obj 524 270 t b;
#X msg 524 296 1;
#X obj 449 50 sel 0;
#X msg 311 250 0 0 0 0 0 0 0 0;
#X obj 228 418 t l l;
#X obj 288 454 unpack f f f f f f f f;
#X msg 274 648 cross-up \$1;
#X obj 62 33 change;
#X msg 297 625 cross-upright \$1;
#X msg 325 602 cross-right \$1;
#X msg 349 579 cross-downright \$1;
#X msg 374 556 cross-down \$1;
#X msg 399 533 cross-downleft \$1;
#X msg 423 510 cross-left \$1;
#X msg 445 487 cross-upleft \$1;
#X obj 157 544 list prepend cross-list;
#X obj 157 568 list trim;
#X obj 307 733 outlet;
#X obj 332 349 s \$0-cross-up-i;
#X obj 343 372 s \$0-cross-upright-i;
#X obj 358 394 s \$0-cross-right-i;
#X obj 371 417 s \$0-cross-downright-i;
#X obj 516 360 s \$0-cross-down-i;
#X obj 527 383 s \$0-cross-downleft-i;
#X obj 542 405 s \$0-cross-left-i;
#X obj 555 428 s \$0-cross-upleft-i;
#X obj 63 102 sel 8 0 1 2 3 4 5 6 7;
#X connect 0 0 10 0;
#X connect 1 0 10 0;
#X connect 2 0 10 0;
#X connect 3 0 10 0;
#X connect 4 0 10 0;
#X connect 5 0 10 0;
#X connect 6 0 10 0;
#X connect 7 0 10 0;
#X connect 8 0 10 0;
#X connect 9 0 30 0;
#X connect 10 0 25 0;
#X connect 11 0 22 0;
#X connect 11 1 14 0;
#X connect 12 0 22 1;
#X connect 13 0 11 0;
#X connect 14 0 23 0;
#X connect 14 1 15 0;
#X connect 15 0 12 1;
#X connect 16 0 19 0;
#X connect 16 1 17 0;
#X connect 17 0 18 0;
#X connect 17 1 18 1;
#X connect 18 0 15 1;
#X connect 19 0 11 1;
#X connect 20 0 21 0;
#X connect 21 0 13 0;
#X connect 21 1 16 0;
#X connect 22 0 27 0;
#X connect 23 0 24 0;
#X connect 24 0 12 0;
#X connect 25 0 26 0;
#X connect 25 1 20 0;
#X connect 26 0 27 0;
#X connect 27 0 38 0;
#X connect 27 1 28 0;
#X connect 28 0 29 0;
#X connect 28 0 41 0;
#X connect 28 1 31 0;
#X connect 28 1 42 0;
#X connect 28 2 32 0;
#X connect 28 2 43 0;
#X connect 28 3 33 0;
#X connect 28 3 44 0;
#X connect 28 4 34 0;
#X connect 28 4 45 0;
#X connect 28 5 35 0;
#X connect 28 5 46 0;
#X connect 28 6 36 0;
#X connect 28 6 47 0;
#X connect 28 7 37 0;
#X connect 28 7 48 0;
#X connect 29 0 40 0;
#X connect 30 0 49 0;
#X connect 31 0 40 0;
#X connect 32 0 40 0;
#X connect 33 0 40 0;
#X connect 34 0 40 0;
#X connect 35 0 40 0;
#X connect 36 0 40 0;
#X connect 37 0 40 0;
#X connect 38 0 39 0;
#X connect 39 0 40 0;
#X connect 49 0 0 0;
#X connect 49 1 1 0;
#X connect 49 2 2 0;
#X connect 49 3 3 0;
#X connect 49 4 4 0;
#X connect 49 5 5 0;
#X connect 49 6 6 0;
#X connect 49 7 7 0;
#X connect 49 8 8 0;
#X restore 375 381 pd cross;
#X obj 125 553 outlet;
#X obj 72 34 inlet;
#X obj 177 101 unpack 0 0 0 0 0 0 0 0;
#X floatatom 150 164 5 0 0 0 - - - 0;
#X floatatom 191 164 5 0 0 0 - - - 0;
#X floatatom 232 164 5 0 0 0 - - - 0;
#X floatatom 273 164 5 0 0 0 - - - 0;
#X floatatom 314 164 5 0 0 0 - - - 0;
#X floatatom 355 164 5 0 0 0 - - - 0;
#X floatatom 396 164 5 0 0 0 - - - 0;
#X floatatom 408 106 5 0 0 0 - - - 0;
#N canvas 527 65 431 640 buttons-1 0;
#X obj 140 39 inlet;
#X obj 69 143 & 1;
#X obj 105 143 & 2;
#X obj 141 143 & 4;
#X obj 177 143 & 8;
#X obj 213 143 & 16;
#X obj 249 143 & 32;
#X obj 285 143 & 64;
#X obj 321 143 & 128;
#X obj 69 339 change;
#X obj 105 291 change;
#X obj 141 243 change;
#X obj 177 195 change;
#X obj 213 339 change;
#X obj 249 291 change;
#X obj 285 243 change;
#X obj 321 195 change;
#X obj 140 89 t f f f f f f f f;
#X obj 140 64 change;
#X obj 69 167 != 0;
#X obj 105 167 != 0;
#X obj 141 167 != 0;
#X obj 177 167 != 0;
#X obj 213 167 != 0;
#X obj 249 167 != 0;
#X obj 285 167 != 0;
#X obj 321 167 != 0;
#X msg 105 402 btn2 \$1;
#X msg 141 379 btn3 \$1;
#X msg 177 402 btn4 \$1;
#X obj 213 552 outlet;
#X msg 69 425 trigger \$1;
#X msg 213 425 btn5 \$1;
#X msg 249 402 btn6 \$1;
#X msg 285 379 btn7 \$1;
#X msg 321 356 btn8 \$1;
#X obj 24 318 s \$0-trigger-i;
#X obj 85 267 s \$0-btn2-i;
#X obj 103 219 s \$0-btn3-i;
#X obj 194 223 s \$0-btn4-i;
#X obj 177 316 s \$0-btn5-i;
#X obj 261 267 s \$0-btn6-i;
#X obj 296 220 s \$0-btn7-i;
#X obj 337 109 s \$0-btn8-i;
#X connect 0 0 18 0;
#X connect 1 0 19 0;
#X connect 2 0 20 0;
#X connect 3 0 21 0;
#X connect 4 0 22 0;
#X connect 5 0 23 0;
#X connect 6 0 24 0;
#X connect 7 0 25 0;
#X connect 8 0 26 0;
#X connect 9 0 31 0;
#X connect 9 0 36 0;
#X connect 10 0 27 0;
#X connect 10 0 37 0;
#X connect 11 0 28 0;
#X connect 11 0 38 0;
#X connect 12 0 29 0;
#X connect 12 0 39 0;
#X connect 13 0 32 0;
#X connect 13 0 40 0;
#X connect 14 0 33 0;
#X connect 14 0 41 0;
#X connect 15 0 34 0;
#X connect 15 0 42 0;
#X connect 16 0 35 0;
#X connect 16 0 43 0;
#X connect 17 0 1 0;
#X connect 17 1 2 0;
#X connect 17 2 3 0;
#X connect 17 3 4 0;
#X connect 17 4 5 0;
#X connect 17 5 6 0;
#X connect 17 6 7 0;
#X connect 17 7 8 0;
#X connect 18 0 17 0;
#X connect 19 0 9 0;
#X connect 20 0 10 0;
#X connect 21 0 11 0;
#X connect 22 0 12 0;
#X connect 23 0 13 0;
#X connect 24 0 14 0;
#X connect 25 0 15 0;
#X connect 26 0 16 0;
#X connect 27 0 30 0;
#X connect 28 0 30 0;
#X connect 29 0 30 0;
#X connect 31 0 30 0;
#X connect 32 0 30 0;
#X connect 33 0 30 0;
#X connect 34 0 30 0;
#X connect 35 0 30 0;
#X restore 369 226 pd buttons-1;
#X obj 76 214 t f f;
#X floatatom 70 275 5 0 0 0 - - - 0;
#X floatatom 118 275 5 0 0 0 - - - 0;
#X obj 116 246 >> 4;
#X obj 71 247 & 15;
#X obj 168 214 t f f;
#X floatatom 162 275 5 0 0 0 - - - 0;
#X floatatom 210 275 5 0 0 0 - - - 0;
#X obj 260 214 t f f;
#X floatatom 254 275 5 0 0 0 - - - 0;
#X floatatom 302 275 5 0 0 0 - - - 0;
#X obj 300 246 >> 4;
#X obj 255 247 & 15;
#X obj 103 355 +;
#X obj 227 328 +;
#X obj 163 247 & 3;
#X obj 130 329 +;
#X obj 254 299 << 3;
#X obj 208 246 >> 5;
#X obj 170 459 hsl 162 19 0 127 0 0 empty empty empty -2 -10 0 12 #fcfcfc #000000 #000000 0 1;
#X obj 239 383 vsl 19 162 0 127 0 0 empty empty empty 0 -9 0 12 #fcfcfc #000000 #000000 0 1;
#X obj 162 299 << 5;
#X obj 118 299 << 1;
#X obj 69 300 >> 3;
#X text 131 42 see : https://stackoverflow.com/a/78925528;
#X text 131 62 bits : joyx(10) \, joyy(10) \, hatswitch(4) \, rotz(8) \, btns...;
#X obj 126 518 t a;
#N canvas 691 223 421 341 joyx 0;
#X obj 96 79 moses 64;
#X obj 149 103 - 64;
#X obj 134 220 / 63;
#X obj 87 105 swap 63;
#X obj 87 129 -;
#X obj 94 156 * -1;
#X obj 126 32 inlet;
#X obj 133 275 outlet;
#X obj 192 170 s \$0-joystick-x-i;
#X msg 134 248 joystick-x \$1;
#X connect 0 0 3 0;
#X connect 0 1 1 0;
#X connect 1 0 2 0;
#X connect 2 0 8 0;
#X connect 2 0 9 0;
#X connect 3 0 4 0;
#X connect 3 1 4 1;
#X connect 4 0 5 0;
#X connect 5 0 2 0;
#X connect 6 0 0 0;
#X connect 9 0 7 0;
#X restore 161 389 pd joyx;
#N canvas 458 217 428 349 joyy 0;
#X obj 96 79 moses 64;
#X obj 149 103 - 64;
#X obj 134 220 / 63;
#X obj 87 105 swap 63;
#X obj 87 129 -;
#X obj 141 179 * -1;
#X obj 126 32 inlet;
#X obj 139 275 outlet;
#X obj 198 170 s \$0-joystick-y-i;
#X msg 140 248 joystick-y \$1;
#X connect 0 0 3 0;
#X connect 0 1 1 0;
#X connect 1 0 5 0;
#X connect 2 0 8 0;
#X connect 2 0 9 0;
#X connect 3 0 4 0;
#X connect 3 1 4 1;
#X connect 4 0 2 0;
#X connect 5 0 2 0;
#X connect 6 0 0 0;
#X connect 9 0 7 0;
#X restore 307 381 pd joyy;
#N canvas 458 217 432 339 joyz 0;
#X obj 87 129 -;
#X obj 94 156 * -1;
#X obj 126 32 inlet;
#X obj 96 79 moses 128;
#X obj 156 103 - 128;
#X obj 134 220 / 127;
#X obj 87 105 swap 127;
#X obj 133 275 outlet;
#X obj 192 170 s \$0-joystick-z-i;
#X msg 134 248 joystick-z \$1;
#X connect 0 0 1 0;
#X connect 1 0 5 0;
#X connect 2 0 3 0;
#X connect 3 0 6 0;
#X connect 3 1 4 0;
#X connect 4 0 5 0;
#X connect 5 0 9 0;
#X connect 5 0 8 0;
#X connect 6 0 0 0;
#X connect 6 1 0 1;
#X connect 9 0 7 0;
#X restore 444 379 pd joyz;
#N canvas 527 65 431 640 buttons-2 0;
#X obj 140 39 inlet;
#X obj 69 143 & 1;
#X obj 105 143 & 2;
#X obj 141 143 & 4;
#X obj 177 143 & 8;
#X obj 213 143 & 16;
#X obj 249 143 & 32;
#X obj 285 143 & 64;
#X obj 321 143 & 128;
#X obj 69 339 change;
#X obj 105 291 change;
#X obj 141 243 change;
#X obj 177 195 change;
#X obj 213 339 change;
#X obj 249 291 change;
#X obj 285 243 change;
#X obj 321 195 change;
#X obj 140 89 t f f f f f f f f;
#X obj 140 64 change;
#X obj 69 167 != 0;
#X obj 105 167 != 0;
#X obj 141 167 != 0;
#X obj 177 167 != 0;
#X obj 213 167 != 0;
#X obj 249 167 != 0;
#X obj 285 167 != 0;
#X obj 321 167 != 0;
#X obj 213 552 outlet;
#X msg 213 425 btn5 \$1;
#X msg 249 402 btn6 \$1;
#X msg 285 379 btn7 \$1;
#X msg 321 356 btn8 \$1;
#X obj 177 316 s \$0-btn5-i;
#X obj 261 267 s \$0-btn6-i;
#X obj 296 220 s \$0-btn7-i;
#X obj 337 109 s \$0-btn8-i;
#X msg 69 425 btn9 \$1;
#X msg 105 402 btn10 \$1;
#X msg 141 379 btn11 \$1;
#X msg 177 402 btn12 \$1;
#X obj 24 318 s \$0-btn9-i;
#X obj 85 267 s \$0-btn10-i;
#X obj 103 219 s \$0-btn11-i;
#X obj 194 223 s \$0-btn12-i;
#X connect 0 0 18 0;
#X connect 1 0 19 0;
#X connect 2 0 20 0;
#X connect 3 0 21 0;
#X connect 4 0 22 0;
#X connect 5 0 23 0;
#X connect 6 0 24 0;
#X connect 7 0 25 0;
#X connect 8 0 26 0;
#X connect 9 0 36 0;
#X connect 9 0 40 0;
#X connect 10 0 37 0;
#X connect 10 0 41 0;
#X connect 11 0 38 0;
#X connect 11 0 42 0;
#X connect 12 0 39 0;
#X connect 12 0 43 0;
#X connect 13 0 28 0;
#X connect 13 0 32 0;
#X connect 14 0 29 0;
#X connect 14 0 33 0;
#X connect 15 0 30 0;
#X connect 15 0 34 0;
#X connect 16 0 31 0;
#X connect 16 0 35 0;
#X connect 17 0 1 0;
#X connect 17 1 2 0;
#X connect 17 2 3 0;
#X connect 17 3 4 0;
#X connect 17 4 5 0;
#X connect 17 5 6 0;
#X connect 17 6 7 0;
#X connect 17 7 8 0;
#X connect 18 0 17 0;
#X connect 19 0 9 0;
#X connect 20 0 10 0;
#X connect 21 0 11 0;
#X connect 22 0 12 0;
#X connect 23 0 13 0;
#X connect 24 0 14 0;
#X connect 25 0 15 0;
#X connect 26 0 16 0;
#X connect 36 0 27 0;
#X connect 37 0 27 0;
#X connect 38 0 27 0;
#X connect 39 0 27 0;
#X restore 472 216 pd buttons-2;
#N canvas 458 217 450 300 knob 0;
#X obj 108 117 swap 255;
#X obj 116 144 -;
#X obj 93 54 inlet;
#X obj 119 235 outlet;
#X obj 204 173 s \$0-knob-i;
#X msg 120 208 knob \$1;
#X obj 116 170 / 255;
#X connect 0 0 1 0;
#X connect 0 1 1 1;
#X connect 1 0 6 0;
#X connect 2 0 0 0;
#X connect 5 0 3 0;
#X connect 6 0 5 0;
#X connect 6 0 4 0;
#X restore 472 246 pd knob;
#X connect 0 0 39 0;
#X connect 2 0 3 0;
#X connect 3 0 4 0;
#X connect 3 0 13 0;
#X connect 3 1 5 0;
#X connect 3 1 18 0;
#X connect 3 2 6 0;
#X connect 3 2 21 0;
#X connect 3 3 7 0;
#X connect 3 3 42 0;
#X connect 3 4 8 0;
#X connect 3 4 12 0;
#X connect 3 5 9 0;
#X connect 3 5 44 0;
#X connect 3 6 10 0;
#X connect 3 6 43 0;
#X connect 3 7 11 0;
#X connect 12 0 39 0;
#X connect 13 0 17 0;
#X connect 13 1 16 0;
#X connect 14 0 36 0;
#X connect 15 0 35 0;
#X connect 16 0 15 0;
#X connect 17 0 14 0;
#X connect 18 0 28 0;
#X connect 18 1 31 0;
#X connect 19 0 34 0;
#X connect 20 0 27 0;
#X connect 21 0 25 0;
#X connect 21 1 24 0;
#X connect 22 0 30 0;
#X connect 23 0 0 0;
#X connect 24 0 23 0;
#X connect 25 0 22 0;
#X connect 26 0 32 0;
#X connect 26 0 40 0;
#X connect 27 0 33 0;
#X connect 27 0 41 0;
#X connect 28 0 19 0;
#X connect 29 0 26 1;
#X connect 30 0 27 1;
#X connect 31 0 20 0;
#X connect 34 0 29 1;
#X connect 35 0 29 0;
#X connect 36 0 26 0;
#X connect 39 0 1 0;
#X connect 40 0 39 0;
#X connect 41 0 39 0;
#X connect 42 0 39 0;
#X connect 43 0 39 0;
#X connect 44 0 39 0;
#X restore 31 314 pd parse-bytes;
#X obj 87 192 sel nopath;
#X obj 31 270 hidraw -info;
#X msg 87 234 open-path \$1 \, poll 2;
#X connect 0 0 2 0;
#X connect 1 0 44 0;
#X connect 3 0 6 0;
#X connect 4 0 6 0;
#X connect 5 0 4 0;
#X connect 8 0 4 0;
#X connect 8 1 3 0;
#X connect 9 0 10 0;
#X connect 10 0 7 0;
#X connect 11 0 18 0;
#X connect 13 0 14 0;
#X connect 14 0 12 0;
#X connect 15 0 12 0;
#X connect 16 0 17 0;
#X connect 17 0 15 0;
#X connect 18 0 4 0;
#X connect 19 0 8 0;
#X connect 20 0 9 0;
#X connect 27 0 26 0;
#X connect 28 0 34 0;
#X connect 29 0 30 0;
#X connect 29 1 31 0;
#X connect 30 0 33 0;
#X connect 31 0 33 0;
#X connect 31 1 35 1;
#X connect 32 0 27 1;
#X connect 33 0 32 0;
#X connect 33 1 28 1;
#X connect 34 0 35 0;
#X connect 35 0 36 0;
#X connect 37 0 27 0;
#X connect 37 1 28 0;
#X connect 40 0 41 0;
#X connect 42 0 46 0;
#X connect 43 0 49 0;
#X connect 44 0 2 1;
#X connect 45 0 29 0;
#X connect 46 0 40 0;
#X connect 48 0 43 0;
#X connect 50 0 51 0;
#X connect 51 0 52 0;
#X connect 51 1 54 0;
#X connect 51 1 55 1;
#X connect 52 0 58 0;
#X connect 53 0 54 1;
#X connect 54 0 57 0;
#X connect 56 0 37 0;
#X connect 57 1 59 0;
#X connect 58 0 56 0;
#X connect 58 1 55 0;
#X connect 59 0 58 0;
#X coords 0 -1 1 1 82 45 2 30 30;
