#N canvas 333 235 1097 794 12;
#X obj 114 155 hidraw;
#X msg 44 95 close;
#X msg 114 34 listdevices;
#X msg 171 89 open \$1;
#X floatatom 171 64 5 0 0 0 - - - 0;
#X obj 189 290 unpack 0 0 0 0 0 0 0 0;
#X floatatom 162 353 5 0 0 0 - - - 0;
#X floatatom 203 353 5 0 0 0 - - - 0;
#X floatatom 244 353 5 0 0 0 - - - 0;
#X floatatom 285 353 5 0 0 0 - - - 0;
#X floatatom 326 353 5 0 0 0 - - - 0;
#X floatatom 367 353 5 0 0 0 - - - 0;
#X floatatom 408 353 5 0 0 0 - - - 0;
#X floatatom 449 353 5 0 0 0 - - - 0;
#N canvas 527 158 431 640 buttons-1 0;
#X obj 140 39 inlet;
#X obj 69 143 & 1;
#X obj 105 143 & 2;
#X obj 141 143 & 4;
#X obj 177 143 & 8;
#X obj 213 143 & 16;
#X obj 249 143 & 32;
#X obj 285 143 & 64;
#X obj 321 143 & 128;
#X obj 69 339 change;
#X obj 105 291 change;
#X obj 141 243 change;
#X obj 177 195 change;
#X obj 213 339 change;
#X obj 249 291 change;
#X obj 285 243 change;
#X obj 321 195 change;
#X obj 140 89 t f f f f f f f f;
#X obj 140 64 change;
#X obj 69 167 != 0;
#X obj 105 167 != 0;
#X obj 141 167 != 0;
#X obj 177 167 != 0;
#X obj 213 167 != 0;
#X obj 249 167 != 0;
#X obj 285 167 != 0;
#X obj 321 167 != 0;
#X msg 105 402 btn2 \$1;
#X msg 141 379 btn3 \$1;
#X msg 177 402 btn4 \$1;
#X obj 213 552 outlet;
#X msg 69 425 trigger \$1;
#X msg 213 425 btn5 \$1;
#X msg 249 402 btn6 \$1;
#X msg 285 379 btn7 \$1;
#X msg 321 356 btn8 \$1;
#X connect 0 0 18 0;
#X connect 1 0 19 0;
#X connect 2 0 20 0;
#X connect 3 0 21 0;
#X connect 4 0 22 0;
#X connect 5 0 23 0;
#X connect 6 0 24 0;
#X connect 7 0 25 0;
#X connect 8 0 26 0;
#X connect 9 0 31 0;
#X connect 10 0 27 0;
#X connect 11 0 28 0;
#X connect 12 0 29 0;
#X connect 13 0 32 0;
#X connect 14 0 33 0;
#X connect 15 0 34 0;
#X connect 16 0 35 0;
#X connect 17 0 1 0;
#X connect 17 1 2 0;
#X connect 17 2 3 0;
#X connect 17 3 4 0;
#X connect 17 4 5 0;
#X connect 17 5 6 0;
#X connect 17 6 7 0;
#X connect 17 7 8 0;
#X connect 18 0 17 0;
#X connect 19 0 9 0;
#X connect 20 0 10 0;
#X connect 21 0 11 0;
#X connect 22 0 12 0;
#X connect 23 0 13 0;
#X connect 24 0 14 0;
#X connect 25 0 15 0;
#X connect 26 0 16 0;
#X connect 27 0 30 0;
#X connect 28 0 30 0;
#X connect 29 0 30 0;
#X connect 31 0 30 0;
#X connect 32 0 30 0;
#X connect 33 0 30 0;
#X connect 34 0 30 0;
#X connect 35 0 30 0;
#X restore 231 196 pd buttons-1;
#N canvas 150 188 450 300 rotation 0;
#X obj 162 63 inlet;
#X obj 163 96 moses 117;
#X obj 234 96 moses 128;
#X connect 0 0 1 0;
#X restore 253 218 pd rotation;
#X obj 129 409 t f f;
#X floatatom 123 470 5 0 0 0 - - - 0;
#X floatatom 171 470 5 0 0 0 - - - 0;
#X obj 169 441 >> 4;
#X obj 124 442 & 15;
#X obj 221 409 t f f;
#X floatatom 215 470 5 0 0 0 - - - 0;
#X floatatom 263 470 5 0 0 0 - - - 0;
#X obj 313 409 t f f;
#X floatatom 307 470 5 0 0 0 - - - 0;
#X floatatom 355 470 5 0 0 0 - - - 0;
#X obj 353 441 >> 4;
#X obj 308 442 & 15;
#X obj 156 550 +;
#X obj 280 523 +;
#X obj 216 442 & 3;
#X obj 183 524 +;
#X obj 307 494 << 3;
#X obj 261 441 >> 5;
#X obj 223 654 hsl 162 19 0 127 0 0 empty empty empty -2 -10 0 12 #fcfcfc #000000 #000000 0 1;
#X obj 292 578 vsl 19 162 0 127 0 0 empty empty empty 0 -9 0 12 #fcfcfc #000000 #000000 0 1;
#X obj 215 494 << 5;
#X obj 171 494 << 1;
#X obj 122 495 >> 3;
#X text 262 56 see : https://stackoverflow.com/a/78925528;
#X text 262 76 bits : joyx(10) \, joyy(10) \, hatswitch(4) \, rotz(8) \, btns...;
#X msg 176 146 close \, open-vidpid 1133 49685 \, poll 5;
#X connect 0 0 5 0;
#X connect 1 0 0 0;
#X connect 2 0 0 0;
#X connect 3 0 0 0;
#X connect 4 0 3 0;
#X connect 5 0 6 0;
#X connect 5 1 7 0;
#X connect 5 2 8 0;
#X connect 5 3 9 0;
#X connect 5 4 10 0;
#X connect 5 4 14 0;
#X connect 5 5 11 0;
#X connect 5 6 12 0;
#X connect 5 7 13 0;
#X connect 6 0 16 0;
#X connect 7 0 21 0;
#X connect 8 0 24 0;
#X connect 16 0 20 0;
#X connect 16 1 19 0;
#X connect 17 0 39 0;
#X connect 18 0 38 0;
#X connect 19 0 18 0;
#X connect 20 0 17 0;
#X connect 21 0 31 0;
#X connect 21 1 34 0;
#X connect 22 0 37 0;
#X connect 23 0 30 0;
#X connect 24 0 28 0;
#X connect 24 1 27 0;
#X connect 25 0 33 0;
#X connect 27 0 26 0;
#X connect 28 0 25 0;
#X connect 29 0 35 0;
#X connect 30 0 36 0;
#X connect 31 0 22 0;
#X connect 32 0 29 1;
#X connect 33 0 30 1;
#X connect 34 0 23 0;
#X connect 37 0 32 1;
#X connect 38 0 32 0;
#X connect 39 0 29 0;
#X connect 42 0 0 0;
