#N canvas 388 85 909 591 10;
#X obj 241 450 r \$0-controls;
#X obj 259 475 r \$0-id;
#X obj 241 525 s;
#X msg 325 354 color #00ff00 #00ff00 #000000;
#X msg 302 330 color #ff0000 #ff0000 #000000;
#X obj 363 275 loadbang;
#X obj 302 380 s \$0-activity-i;
#X obj 302 211 s \$0-connect-i;
#X obj 302 269 sel 0 1;
#X obj 302 165 sel 0 1;
#X msg 302 188 0;
#X obj 428 275 r \$0-connect-o;
#X obj 536 221 s \$0-label-i;
#X obj 566 157 loadbang;
#X msg 566 180 label;
#X msg 499 180 label \$1;
#X obj 499 111 r \$0-id;
#X obj 499 134 makefilename %i;
#X obj 428 299 sel 0;
#X obj 302 245 r \$0-connected;
#X obj 302 142 r \$0-connected;
#X obj 30 30 cnv 19 82 40 empty empty Gamepad 4 9 0 10 #e0e0e0 #404040 0;
#X obj 52 48 tgl 19 0 \$0-activity-o \$0-activity-i empty 0 -10 0 12 #ff0000 #ff0000 #000000 0 1;
#X obj 33 48 tgl 19 0 \$0-connect-o \$0-connect-i empty 0 -10 0 12 #fcfcfc #000000 #000000 0 1;
#X obj 71 48 cnv 19 19 19 empty empty  6 10 0 12 #000000 #404040 0;
#X obj 72 49 cnv 10 17 17 empty \$0-label-i empty 5 9 0 12 #e0e0e0 #404040 0;
#X obj 259 500 makefilename gamepad-%i;
#X obj 31 104 r \$0-connect-o;
#X obj 31 511 s \$0-controls;
#X obj 31 423 spigot;
#X obj 81 423 spigot;
#X obj 120 334 sel 0;
#X obj 120 358 t 0;
#X obj 152 358 t 1 f;
#X obj 84 387 == 0;
#X obj 120 387 t f f;
#N canvas 875 191 473 383 assign 0;
#X obj 28 41 inlet;
#X obj 186 246 sel 1;
#X obj 186 279 outlet;
#X obj 28 70 route btn1 btn2 btn3 btn4 leftup-trigger leftdown-trigger rightup-trigger rightdown-trigger start-btn select-btn left-joystick-btn right-joystick-btn;
#X connect 0 0 3 0;
#X connect 1 0 2 0;
#X connect 3 0 1 0;
#X connect 3 1 1 0;
#X connect 3 2 1 0;
#X connect 3 3 1 0;
#X connect 3 4 1 0;
#X connect 3 5 1 0;
#X connect 3 6 1 0;
#X connect 3 7 1 0;
#X connect 3 8 1 0;
#X connect 3 9 1 0;
#X connect 3 10 1 0;
#X connect 3 11 1 0;
#X restore 81 451 pd assign;
#X obj 134 486 f;
#X obj 134 511 s \$0-id;
#X obj 31 387 t a a;
#X obj 120 310 r gamepad-assign;
#X obj 90 48 bng 19 250 50 0 \$0-open-ui-o \$0-open-ui-i empty 0 -10 0 12 #fcfcfc #000000 #000000;
#X text 92 49 ui;
#X obj 475 480 makefilename pd-%i-ui;
#X msg 475 503 \; \$1 vis 1;
#X obj 475 434 r \$0-open-ui-o;
#X obj 475 457 f \$0;
#N canvas 2 38 296 197 \$0-ui 0;
#X obj 15 13 cnv 19 265 170 empty empty empty 20 12 0 12 #404040 #404040 0;
#X obj 216 101 tgl 19 0 \$0-btn1-o \$0-btn1-i empty 0 -10 0 12 #fcfcfc #000000 #000000 0 1;
#X obj 197 82 tgl 19 0 \$0-btn2-o \$0-btn2-i empty 0 -10 0 12 #fcfcfc #000000 #000000 0 1;
#X obj 235 82 tgl 19 0 \$0-btn3-o \$0-btn3-i empty 0 -10 0 12 #fcfcfc #000000 #000000 0 1;
#X obj 216 63 tgl 19 0 \$0-btn4-o \$0-btn4-i empty 0 -10 0 12 #fcfcfc #000000 #000000 0 1;
#X obj 254 45 tgl 19 0 \$0-rightup-trigger-o \$0-rightup-trigger-i empty 0 -10 0 12 #fcfcfc #000000 #000000 0 1;
#X obj 254 20 tgl 19 0 \$0-rightdown-trigger-o \$0-rightdown-trigger-i empty 0 -10 0 12 #fcfcfc #000000 #000000 0 1;
#X obj 21 45 tgl 19 0 \$0-leftup-trigger-o \$0-leftup-trigger-i empty 0 -10 0 12 #fcfcfc #000000 #000000 0 1;
#X obj 21 20 tgl 19 0 \$0-leftdown-trigger-o \$0-leftdown-trigger-i empty 0 -10 0 12 #fcfcfc #000000 #000000 0 1;
#X obj 104 113 tgl 14 0 \$0-cross-up-o \$0-cross-up-i empty 0 -10 0 12 #fcfcfc #000000 #000000 0 1;
#X obj 128 137 tgl 14 0 \$0-cross-right-o \$0-cross-right-i empty 0 -10 0 12 #fcfcfc #000000 #000000 0 1;
#X obj 104 161 tgl 14 0 \$0-cross-down-o \$0-cross-down-i empty 0 -10 0 12 #fcfcfc #000000 #000000 0 1;
#X obj 80 137 tgl 14 0 \$0-cross-left-o \$0-cross-left-i empty 0 -10 0 12 #fcfcfc #000000 #000000 0 1;
#X obj 85 118 tgl 14 0 \$0-cross-upleft-o \$0-cross-upleft-i empty 0 -10 0 12 #fcfcfc #000000 #000000 0 1;
#X obj 123 118 tgl 14 0 \$0-cross-upright-o \$0-cross-upright-i empty 0 -10 0 12 #fcfcfc #000000 #000000 0 1;
#X obj 124 156 tgl 14 0 \$0-cross-downright-o \$0-cross-downright-i empty 0 -10 0 12 #fcfcfc #000000 #000000 0 1;
#X obj 84 156 tgl 14 0 \$0-cross-downleft-o \$0-cross-downleft-i empty 0 -10 0 12 #fcfcfc #000000 #000000 0 1;
#X obj 45 84 hsl 48 14 -1 1 0 0 \$0-left-joystick-x-o \$0-left-joystick-x-i empty -2 -10 0 12 #fcfcfc #000000 #000000 0 0;
#X obj 62 66 vsl 14 48 -1 1 0 0 \$0-left-joystick-y-o \$0-left-joystick-y-i empty 0 -9 0 12 #fcfcfc #000000 #000000 0 1;
#X obj 62 84 tgl 14 0 \$0-left-joystick-btn-o \$0-left-joystick-btn-i empty 0 -10 0 12 #fcfcfc #000000 #000000 0 1;
#X obj 159 137 hsl 48 14 -1 1 0 0 \$0-right-joystick-x-o \$0-right-joystick-x-i empty -2 -10 0 12 #fcfcfc #000000 #000000 0 0;
#X obj 176 120 vsl 14 48 -1 1 0 0 \$0-right-joystick-y-o \$0-right-joystick-y-i empty 0 -9 0 12 #fcfcfc #000000 #000000 0 1;
#X obj 176 137 tgl 14 0 \$0-right-joystick-btn-o \$0-right-joystick-btn-i empty 0 -10 0 12 #fcfcfc #000000 #000000 0 1;
#X obj 162 47 tgl 12 0 \$0-start-btn-o \$0-start-btn-i empty 0 -10 0 12 #fcfcfc #000000 #000000 0 1;
#X obj 114 47 tgl 12 0 \$0-select-btn-o \$0-select-btn-i empty 0 -10 0 12 #fcfcfc #000000 #000000 0 1;
#X restore 567 509 pd \$0-ui;
#X obj 31 130 sel 0 1;
#X msg 31 192 close;
#X obj 304 34 r thrustmaster-paths;
#N canvas 689 230 407 436 device-path-from-list-and-instance-nb 0;
#X obj 175 285 list split;
#X obj 208 309 list split 1;
#X obj 278 37 loadbang;
#X obj 278 60 f \$1;
#X obj 150 106 list length;
#X obj 182 169 <;
#X obj 278 83 t f f;
#X obj 118 82 t l l;
#X obj 98 31 inlet;
#X obj 164 381 outlet;
#X obj 182 192 t f f;
#X obj 175 252 spigot;
#X obj 120 253 sel 1;
#X obj 214 221 == 0;
#X obj 150 130 - 1;
#X obj 182 353 symbol;
#X msg 120 287 nopath;
#X connect 0 1 1 0;
#X connect 1 0 15 0;
#X connect 2 0 3 0;
#X connect 3 0 6 0;
#X connect 4 0 14 0;
#X connect 5 0 10 0;
#X connect 6 0 5 1;
#X connect 6 1 0 1;
#X connect 7 0 11 0;
#X connect 7 1 4 0;
#X connect 8 0 7 0;
#X connect 10 0 12 0;
#X connect 10 1 13 0;
#X connect 11 0 0 0;
#X connect 12 0 16 0;
#X connect 13 0 11 1;
#X connect 14 0 5 0;
#X connect 15 0 9 0;
#X connect 16 0 15 0;
#X restore 304 58 pd device-path-from-list-and-instance-nb;
#X obj 304 82 s \$0-device-path;
#X obj 148 107 r \$0-device-path;
#X obj 109 130 symbol;
#N canvas 916 400 450 300 connected 0;
#X msg 126 98 stop;
#X msg 227 180 1;
#X msg 155 179 0;
#X obj 143 150 del 500;
#X obj 154 74 sel 1 -1;
#X obj 154 48 inlet;
#X obj 225 73 t b b;
#X obj 225 47 inlet;
#X obj 155 228 s \$0-connected;
#X connect 0 0 3 0;
#X connect 1 0 8 0;
#X connect 2 0 8 0;
#X connect 3 0 2 0;
#X connect 4 0 0 0;
#X connect 4 1 2 0;
#X connect 5 0 4 0;
#X connect 6 0 3 0;
#X connect 6 1 1 0;
#X connect 7 0 6 0;
#X restore 127 227 pd connected;
#N canvas 150 188 501 412 parse-bytes 0;
#X obj 72 61 unpack 0 0 0 0 0 0 0 0;
#N canvas 179 217 696 583 main-buttons-and-triggers 0;
#X obj 69 126 & 1;
#X obj 105 126 & 2;
#X obj 141 126 & 4;
#X obj 177 126 & 8;
#X obj 213 126 & 16;
#X obj 249 126 & 32;
#X obj 285 126 & 64;
#X obj 321 126 & 128;
#X obj 69 322 change;
#X obj 105 274 change;
#X obj 141 226 change;
#X obj 177 178 change;
#X obj 213 322 change;
#X obj 249 274 change;
#X obj 285 226 change;
#X obj 321 178 change;
#X obj 140 72 t f f f f f f f f;
#X obj 140 47 change;
#X obj 140 22 inlet;
#X obj 69 150 != 0;
#X obj 105 150 != 0;
#X obj 141 150 != 0;
#X obj 177 150 != 0;
#X obj 213 150 != 0;
#X obj 249 150 != 0;
#X obj 285 150 != 0;
#X obj 321 150 != 0;
#X msg 69 426 btn1 \$1;
#X msg 105 403 btn2 \$1;
#X msg 141 426 btn3 \$1;
#X msg 177 403 btn4 \$1;
#X msg 213 426 leftup-trigger \$1;
#X msg 249 403 leftdown-trigger \$1;
#X msg 285 380 rightup-trigger \$1;
#X msg 321 357 rightdown-trigger \$1;
#X obj 249 517 outlet;
#X obj 120 322 s \$0-btn1-i;
#X obj 156 274 s \$0-btn2-i;
#X obj 192 226 s \$0-btn3-i;
#X obj 228 178 s \$0-btn4-i;
#X obj 372 178 s \$0-rightdown-trigger-i;
#X obj 336 226 s \$0-rightup-trigger-i;
#X obj 300 274 s \$0-leftdown-trigger-i;
#X obj 264 322 s \$0-leftup-trigger-i;
#X connect 0 0 19 0;
#X connect 1 0 20 0;
#X connect 2 0 21 0;
#X connect 3 0 22 0;
#X connect 4 0 23 0;
#X connect 5 0 24 0;
#X connect 6 0 25 0;
#X connect 7 0 26 0;
#X connect 8 0 27 0;
#X connect 8 0 36 0;
#X connect 9 0 28 0;
#X connect 9 0 37 0;
#X connect 10 0 29 0;
#X connect 10 0 38 0;
#X connect 11 0 30 0;
#X connect 11 0 39 0;
#X connect 12 0 31 0;
#X connect 12 0 43 0;
#X connect 13 0 32 0;
#X connect 13 0 42 0;
#X connect 14 0 33 0;
#X connect 14 0 41 0;
#X connect 15 0 34 0;
#X connect 15 0 40 0;
#X connect 16 0 0 0;
#X connect 16 1 1 0;
#X connect 16 2 2 0;
#X connect 16 3 3 0;
#X connect 16 4 4 0;
#X connect 16 5 5 0;
#X connect 16 6 6 0;
#X connect 16 7 7 0;
#X connect 17 0 16 0;
#X connect 18 0 17 0;
#X connect 19 0 8 0;
#X connect 20 0 9 0;
#X connect 21 0 10 0;
#X connect 22 0 11 0;
#X connect 23 0 12 0;
#X connect 24 0 13 0;
#X connect 25 0 14 0;
#X connect 26 0 15 0;
#X connect 27 0 35 0;
#X connect 28 0 35 0;
#X connect 29 0 35 0;
#X connect 30 0 35 0;
#X connect 31 0 35 0;
#X connect 32 0 35 0;
#X connect 33 0 35 0;
#X connect 34 0 35 0;
#X restore 72 196 pd main-buttons-and-triggers;
#N canvas 1017 167 444 537 select-start-and-joystick-buttons 0;
#X obj 88 145 & 1;
#X obj 127 145 & 2;
#X obj 166 145 & 4;
#X obj 205 145 & 8;
#X obj 88 335 change;
#X obj 127 287 change;
#X obj 166 239 change;
#X obj 205 191 change;
#X obj 117 80 change;
#X obj 117 55 inlet;
#X obj 117 105 t f f f f;
#X obj 88 168 != 0;
#X obj 127 168 != 0;
#X obj 166 168 != 0;
#X obj 205 168 != 0;
#X msg 88 358 select-btn \$1;
#X msg 127 310 start-btn \$1;
#X msg 166 262 left-joystick-btn \$1;
#X msg 205 214 right-joystick-btn \$1;
#X obj 240 420 outlet;
#X obj 215 239 s \$0-left-joystick-btn-i;
#X obj 255 191 s \$0-right-joystick-btn-i;
#X obj 138 335 s \$0-select-btn-i;
#X obj 177 287 s \$0-start-btn-i;
#X connect 0 0 11 0;
#X connect 1 0 12 0;
#X connect 2 0 13 0;
#X connect 3 0 14 0;
#X connect 4 0 15 0;
#X connect 4 0 22 0;
#X connect 5 0 16 0;
#X connect 5 0 23 0;
#X connect 6 0 17 0;
#X connect 6 0 20 0;
#X connect 7 0 18 0;
#X connect 7 0 21 0;
#X connect 8 0 10 0;
#X connect 9 0 8 0;
#X connect 10 0 0 0;
#X connect 10 1 1 0;
#X connect 10 2 2 0;
#X connect 10 3 3 0;
#X connect 11 0 4 0;
#X connect 12 0 5 0;
#X connect 13 0 6 0;
#X connect 14 0 7 0;
#X connect 15 0 19 0;
#X connect 16 0 19 0;
#X connect 17 0 19 0;
#X connect 18 0 19 0;
#X restore 93 171 pd select-start-and-joystick-buttons;
#N canvas 528 30 799 429 cross 0;
#X obj 62 59 sel 240 0 16 32 48 64 80 96 112;
#X msg 62 116 0;
#X msg 85 93 1;
#X msg 109 117 2;
#X msg 133 93 3;
#X msg 157 118 4;
#X msg 180 95 5;
#X msg 204 119 6;
#X msg 228 95 7;
#X msg 252 119 8;
#X obj 62 8 inlet;
#X obj 157 217 t f;
#X obj 428 250 list split;
#X obj 524 322 list append;
#X msg 428 149 0 0 0 0 0 0 0 0;
#X obj 524 243 list split 1;
#X obj 623 277 list split;
#X obj 565 135 t f f;
#X obj 609 171 swap 8;
#X obj 618 203 -;
#X obj 554 173 - 1;
#X floatatom 524 66 5 0 0 0 - - - 0;
#X obj 494 107 t b f;
#X obj 407 288 list append;
#X obj 524 270 t b;
#X msg 524 296 1;
#X obj 449 50 sel 0;
#X msg 311 250 0 0 0 0 0 0 0 0;
#X obj 228 418 t l l;
#X obj 288 454 unpack f f f f f f f f;
#X msg 274 648 cross-up \$1;
#X obj 62 33 change;
#X msg 297 625 cross-upright \$1;
#X msg 325 602 cross-right \$1;
#X msg 349 579 cross-downright \$1;
#X msg 374 556 cross-down \$1;
#X msg 399 533 cross-downleft \$1;
#X msg 423 510 cross-left \$1;
#X msg 445 487 cross-upleft \$1;
#X obj 157 544 list prepend cross-list;
#X obj 157 568 list trim;
#X obj 307 733 outlet;
#X obj 332 349 s \$0-cross-up-i;
#X obj 343 372 s \$0-cross-upright-i;
#X obj 358 394 s \$0-cross-right-i;
#X obj 371 417 s \$0-cross-downright-i;
#X obj 516 360 s \$0-cross-down-i;
#X obj 527 383 s \$0-cross-downleft-i;
#X obj 542 405 s \$0-cross-left-i;
#X obj 555 428 s \$0-cross-upleft-i;
#X connect 0 0 1 0;
#X connect 0 1 2 0;
#X connect 0 2 3 0;
#X connect 0 3 4 0;
#X connect 0 4 5 0;
#X connect 0 5 6 0;
#X connect 0 6 7 0;
#X connect 0 7 8 0;
#X connect 0 8 9 0;
#X connect 1 0 11 0;
#X connect 2 0 11 0;
#X connect 3 0 11 0;
#X connect 4 0 11 0;
#X connect 5 0 11 0;
#X connect 6 0 11 0;
#X connect 7 0 11 0;
#X connect 8 0 11 0;
#X connect 9 0 11 0;
#X connect 10 0 31 0;
#X connect 11 0 26 0;
#X connect 12 0 23 0;
#X connect 12 1 15 0;
#X connect 13 0 23 1;
#X connect 14 0 12 0;
#X connect 15 0 24 0;
#X connect 15 1 16 0;
#X connect 16 0 13 1;
#X connect 17 0 20 0;
#X connect 17 1 18 0;
#X connect 18 0 19 0;
#X connect 18 1 19 1;
#X connect 19 0 16 1;
#X connect 20 0 12 1;
#X connect 22 0 14 0;
#X connect 22 1 17 0;
#X connect 23 0 28 0;
#X connect 24 0 25 0;
#X connect 25 0 13 0;
#X connect 26 0 27 0;
#X connect 26 1 22 0;
#X connect 27 0 28 0;
#X connect 28 0 39 0;
#X connect 28 1 29 0;
#X connect 29 0 30 0;
#X connect 29 0 42 0;
#X connect 29 1 32 0;
#X connect 29 1 43 0;
#X connect 29 2 33 0;
#X connect 29 2 44 0;
#X connect 29 3 34 0;
#X connect 29 3 45 0;
#X connect 29 4 35 0;
#X connect 29 4 46 0;
#X connect 29 5 36 0;
#X connect 29 5 47 0;
#X connect 29 6 37 0;
#X connect 29 6 48 0;
#X connect 29 7 38 0;
#X connect 29 7 49 0;
#X connect 30 0 41 0;
#X connect 31 0 0 0;
#X connect 32 0 41 0;
#X connect 33 0 41 0;
#X connect 34 0 41 0;
#X connect 35 0 41 0;
#X connect 36 0 41 0;
#X connect 37 0 41 0;
#X connect 38 0 41 0;
#X connect 39 0 40 0;
#X connect 40 0 41 0;
#X restore 115 147 pd cross;
#N canvas 880 359 665 349 left-joystick 0;
#X obj 83 110 moses 128;
#X obj 83 134 / 127;
#X obj 143 133 expr 1 - ($f1 - 128) / 127;
#X obj 143 157 * -1;
#X obj 342 108 moses 128;
#X obj 342 132 / 127;
#X obj 402 131 expr 1 - ($f1 - 128) / 127;
#X obj 342 155 * -1;
#X obj 342 55 inlet;
#X obj 83 55 inlet;
#X obj 364 200 t f;
#X obj 102 201 t f;
#X msg 102 226 left-joystick-x \$1;
#X msg 364 225 left-joystick-y \$1;
#X obj 244 292 outlet;
#X obj 132 201 s \$0-left-joystick-x-i;
#X obj 393 200 s \$0-left-joystick-y-i;
#X obj 342 81 change;
#X obj 83 82 change;
#X connect 0 0 1 0;
#X connect 0 1 2 0;
#X connect 1 0 11 0;
#X connect 2 0 3 0;
#X connect 3 0 11 0;
#X connect 4 0 5 0;
#X connect 4 1 6 0;
#X connect 5 0 7 0;
#X connect 6 0 10 0;
#X connect 7 0 10 0;
#X connect 8 0 17 0;
#X connect 9 0 18 0;
#X connect 10 0 13 0;
#X connect 10 0 16 0;
#X connect 11 0 12 0;
#X connect 11 0 15 0;
#X connect 12 0 14 0;
#X connect 13 0 14 0;
#X connect 17 0 4 0;
#X connect 18 0 0 0;
#X restore 136 124 pd left-joystick;
#N canvas 237 275 665 349 right-joystick 0;
#X obj 342 25 inlet;
#X obj 83 25 inlet;
#X obj 83 86 moses 128;
#X obj 83 110 / 127;
#X obj 143 110 expr 1 - ($f1 - 128) / 127;
#X obj 143 133 * -1;
#X obj 342 86 moses 128;
#X obj 342 184 t f;
#X obj 102 184 t f;
#X obj 402 133 * -1;
#X obj 342 156 expr 1 - ($f1 / 128);
#X obj 402 110 expr ($f1 - 128) / 127;
#X msg 102 209 right-joystick-x \$1;
#X obj 247 284 outlet;
#X obj 371 184 s \$0-right-joystick-y-i;
#X obj 131 184 s \$0-right-joystick-x-i;
#X obj 83 53 change;
#X obj 342 53 change;
#X msg 342 209 right-joystick-y \$1;
#X connect 0 0 17 0;
#X connect 1 0 16 0;
#X connect 2 0 3 0;
#X connect 2 1 4 0;
#X connect 3 0 8 0;
#X connect 4 0 5 0;
#X connect 5 0 8 0;
#X connect 6 0 10 0;
#X connect 6 1 11 0;
#X connect 7 0 18 0;
#X connect 7 0 14 0;
#X connect 8 0 12 0;
#X connect 8 0 15 0;
#X connect 9 0 7 0;
#X connect 10 0 7 0;
#X connect 11 0 9 0;
#X connect 12 0 13 0;
#X connect 16 0 2 0;
#X connect 17 0 6 0;
#X connect 18 0 13 0;
#X restore 180 101 pd right-joystick;
#X obj 136 345 outlet;
#X obj 72 34 inlet;
#X connect 0 0 1 0;
#X connect 0 1 2 0;
#X connect 0 2 3 0;
#X connect 0 3 4 0;
#X connect 0 4 4 1;
#X connect 0 5 5 0;
#X connect 0 6 5 1;
#X connect 1 0 6 0;
#X connect 2 0 6 0;
#X connect 3 0 6 0;
#X connect 4 0 6 0;
#X connect 5 0 6 0;
#X connect 7 0 0 0;
#X restore 31 271 pd parse-bytes;
#X obj 54 154 t b b;
#X obj 109 155 sel nopath;
#X obj 31 227 hidraw -info;
#X msg 87 191 open-path \$1 \, poll 2;
#X connect 0 0 2 0;
#X connect 1 0 26 0;
#X connect 3 0 6 0;
#X connect 4 0 6 0;
#X connect 5 0 4 0;
#X connect 8 0 4 0;
#X connect 8 1 3 0;
#X connect 9 0 10 0;
#X connect 10 0 7 0;
#X connect 11 0 18 0;
#X connect 13 0 14 0;
#X connect 14 0 12 0;
#X connect 15 0 12 0;
#X connect 16 0 17 0;
#X connect 17 0 15 0;
#X connect 18 0 4 0;
#X connect 19 0 8 0;
#X connect 20 0 9 0;
#X connect 26 0 2 1;
#X connect 27 0 48 0;
#X connect 29 0 28 0;
#X connect 30 0 36 0;
#X connect 31 0 32 0;
#X connect 31 1 33 0;
#X connect 32 0 35 0;
#X connect 33 0 35 0;
#X connect 33 1 37 1;
#X connect 34 0 29 1;
#X connect 35 0 34 0;
#X connect 35 1 30 1;
#X connect 36 0 37 0;
#X connect 37 0 38 0;
#X connect 39 0 29 0;
#X connect 39 1 30 0;
#X connect 40 0 31 0;
#X connect 43 0 44 0;
#X connect 45 0 46 0;
#X connect 46 0 43 0;
#X connect 48 0 49 0;
#X connect 48 1 57 0;
#X connect 49 0 59 0;
#X connect 50 0 51 0;
#X connect 51 0 52 0;
#X connect 53 0 54 1;
#X connect 54 0 58 0;
#X connect 56 0 39 0;
#X connect 57 0 54 0;
#X connect 57 1 55 1;
#X connect 58 1 60 0;
#X connect 59 0 56 0;
#X connect 59 1 55 0;
#X connect 60 0 59 0;
#X coords 0 -1 1 1 82 40 2 30 30;
